<?xml version="1.0" encoding="utf-8"?>
<!-- Generator: Adobe Illustrator 27.5.0, SVG Export Plug-In . SVG Version: 6.00 Build 0)  -->
<svg version="1.1" xmlns="http://www.w3.org/2000/svg" xmlns:xlink="http://www.w3.org/1999/xlink" x="0px" y="0px"
	 viewBox="0 0 3710 3710" style="enable-background:new 0 0 3710 3710;" xml:space="preserve">
<g id="Background">
	<g>
		<g>
			<rect style="fill:#FFFFFF;" width="3710" height="3710"/>
		</g>
	</g>
</g>
<g id="Illustration">
	<g>
		<path style="fill:#F4F7FA;" d="M3221.442,1650.966c-76.318-499.541-389.224-1113.263-1007.405-1177.489
			c0,0-469.351-57.09-932.029,29.435c-274.599,51.352-515.383,204.217-667.741,423.922
			C461.909,1146.54,411.016,1414.44,472.781,1669.85c40.116,165.891,67.224,337.582,59.784,508.045
			c-12.948,296.675-5.498,573.599,282.418,750.527c257.076,157.978,580.61,297.308,889.266,321.712
			c209.76,16.585,444.993-10.253,647.163-64.864C3381.711,2906.954,3297.76,2150.507,3221.442,1650.966z"/>
		<g>
			<g>
				<linearGradient id="SVGID_1_" gradientUnits="userSpaceOnUse" x1="1688.7286" y1="1323.9056" x2="2632.8523" y2="1323.9056">
					<stop  offset="0.0036" style="stop-color:#E38DDD"/>
					<stop  offset="1" style="stop-color:#9571F6"/>
				</linearGradient>
				<path style="fill:url(#SVGID_1_);" d="M2206.086,2122.156c-121.597,66.892-289.102,44.242-384.035-90.581
					c-53.171-75.514-86.959-181.986-106.245-271.434c-119.953-556.35,198.086-231.263,188.165-572.266
					c-9.921-341.003,1.497-566.965,438.703-685.654c0,0,391.958-118.689,264.793,362.775
					c-23.304,88.231-58.134,175.888-114.969,248.149c-59.726,75.938-139.021,132.884-212.999,193.794
					c-88.536,72.895-26.913,193.86,6.361,279.43c41.353,106.344,81.986,214.137,62.903,330.228
					C2332.938,2012.879,2277.409,2082.921,2206.086,2122.156z"/>
				<g style="opacity:0.8;">
					<path style="fill:#FFFFFF;" d="M2087.434,2108.176c-1.565,0-3-1.038-3.436-2.62c-0.594-2.159-59.69-218.868-72.048-467.424
						c-7.265-146.11,2.794-274.517,29.9-381.655c33.977-134.3,94.99-235.425,181.345-300.568c1.571-1.185,3.809-0.874,4.994,0.699
						c1.187,1.572,0.873,3.809-0.699,4.994c-192.815,145.452-219.763,447.99-208.417,676.176
						c12.321,247.781,71.208,463.731,71.802,465.883c0.522,1.898-0.592,3.863-2.49,4.385
						C2088.066,2108.134,2087.747,2108.176,2087.434,2108.176z"/>
				</g>
			</g>
			<g>
				
					<linearGradient id="SVGID_00000075843729007396478290000014055734015359666085_" gradientUnits="userSpaceOnUse" x1="3137.9219" y1="861.1889" x2="1149.6621" y2="2483.5542">
					<stop  offset="0" style="stop-color:#FFC444"/>
					<stop  offset="0.9964" style="stop-color:#F36F56"/>
				</linearGradient>
				<path style="fill:url(#SVGID_00000075843729007396478290000014055734015359666085_);" d="M2120.187,2182.975
					c-16.615-2.336-31.88-13.816-44.66-37.991c-53.064-100.377,46.099-252.369,48.224-357.796
					c2.136-105.998-21.108-209.362-46.825-311.323c-26.521-105.148-40.16-216.899,31.995-307.637
					c62.214-78.237,168.959-137.863,266.006-79.858c179.751,107.407,175.018-72.23,206.09-193.38
					c35.765-139.449,191.967-301.446,347.004-271.649c139.028,26.72,196.345,223.714,196.389,345.867
					c0.023,63.784-23.457,161.182-72.406,207.004c-112.66,105.461-367.872,104.736-269.295,309.148
					c33.236,68.919,64.475,142.684,1.416,205.553c-64.605,64.411-171.403,70.053-252.157,102.333
					c-91.858,36.72-154.015,112.086-209.695,190.584C2295.215,2021.975,2194.283,2193.396,2120.187,2182.975z"/>
				<g style="opacity:0.8;">
					<path style="fill:#FFFFFF;" d="M2110.555,2151.075c-0.334-0.02-0.67-0.088-1.002-0.208c-1.852-0.671-2.809-2.717-2.137-4.569
						c0.801-2.209,81.525-223.932,204.023-476.786c71.963-148.545,144.056-278.629,214.278-386.637
						c87.885-135.179,173.115-236.022,253.319-299.727c1.541-1.226,3.785-0.968,5.011,0.575c1.225,1.542,0.968,3.785-0.575,5.011
						c-180.428,143.311-352.791,451.003-465.614,683.888c-122.337,252.527-202.936,473.901-203.735,476.109
						C2113.571,2150.25,2112.091,2151.168,2110.555,2151.075z"/>
				</g>
			</g>
		</g>
		<g>
			<g>
				
					<linearGradient id="SVGID_00000015321335778266252150000007339293523460205216_" gradientUnits="userSpaceOnUse" x1="2618.7598" y1="4691.9058" x2="968.4882" y2="6189.5093" gradientTransform="matrix(0 -1 1 0 -3755.802 3738.6064)">
					<stop  offset="0.0036" style="stop-color:#26264F"/>
					<stop  offset="1" style="stop-color:#444B8C"/>
				</linearGradient>
				<path style="fill:url(#SVGID_00000015321335778266252150000007339293523460205216_);" d="M2538.783,2933.273
					c0,45.77-32.475,84.904-72.52,87.241l-1544.749,90.162c-45.878,2.678-83.332-35.188-83.332-84.415V810.32
					c0-49.23,37.455-87.764,83.332-85.904l1544.749,62.601c40.045,1.623,72.52,40.177,72.52,85.95V2933.273z"/>
				
					<linearGradient id="SVGID_00000034790090621999041390000000596894328673874819_" gradientUnits="userSpaceOnUse" x1="916.624" y1="1918.873" x2="2798.697" y2="1866.4315">
					<stop  offset="0" style="stop-color:#444B8C"/>
					<stop  offset="0.9964" style="stop-color:#26264F"/>
				</linearGradient>
				<path style="fill:url(#SVGID_00000034790090621999041390000000596894328673874819_);" d="M2584.137,2933.273
					c0,45.77-32.475,84.904-72.519,87.241l-1544.75,90.162c-45.878,2.678-83.331-35.188-83.331-84.415V810.32
					c0-49.23,37.454-87.764,83.331-85.904l1544.75,62.601c40.044,1.623,72.519,40.177,72.519,85.95V2933.273z"/>
				
					<linearGradient id="SVGID_00000126300530527205310130000010227778837089498008_" gradientUnits="userSpaceOnUse" x1="1372.0771" y1="6004.3989" x2="2304.385" y2="4864.9116" gradientTransform="matrix(0 -1 1 0 -3755.802 3738.6064)">
					<stop  offset="0" style="stop-color:#444B8C"/>
					<stop  offset="0.9964" style="stop-color:#26264F"/>
				</linearGradient>
				<path style="fill:url(#SVGID_00000126300530527205310130000010227778837089498008_);" d="M922.399,811.751v2212.385
					c0,26.312,19.93,46.514,44.469,45.124l1221.731-69.212l323.018-18.299c21.456-1.216,38.819-22.093,38.819-46.634V871.724
					c0-24.54-17.363-45.108-38.819-45.941l-334.68-12.988L966.868,765.834C942.33,764.881,922.399,785.439,922.399,811.751z"/>
				<path style="fill:#D8DEE8;" d="M2529.028,2839.699c0,9.129-7.317,16.929-16.314,17.389l-1547.097,79.108
					c-10.28,0.526-18.654-6.993-18.654-16.761V811.795c0-9.768,8.373-17.402,18.654-17.016l1547.097,58.182
					c8.997,0.338,16.314,8.041,16.314,17.17V2839.699z"/>
				
					<linearGradient id="SVGID_00000085219963274405121890000009124340496254106804_" gradientUnits="userSpaceOnUse" x1="1778.5386" y1="2841.3123" x2="1747.4176" y2="3078.3096">
					<stop  offset="0" style="stop-color:#444B8C"/>
					<stop  offset="0.9964" style="stop-color:#26264F"/>
				</linearGradient>
				<path style="fill:url(#SVGID_00000085219963274405121890000009124340496254106804_);" d="M1920.8,2976.861l-314.147,17.277
					c-16.796,0.924-30.429-10.722-30.429-26.013v-1.148c0-15.291,13.633-28.403,30.429-29.287l314.147-16.521
					c16.326-0.859,29.545,10.644,29.545,25.692v1.13C1950.344,2963.038,1937.126,2975.963,1920.8,2976.861z"/>
				<path style="fill:#FFFFFF;" d="M1780.862,797.424c0,8.135-7.196,14.454-16.079,14.115c-8.889-0.339-16.101-7.218-16.101-15.363
					c0-8.146,7.211-14.465,16.101-14.114C1773.666,782.411,1780.862,789.289,1780.862,797.424z"/>
			</g>
			<g style="opacity:0.3;">
				<path style="fill:#FFFFFF;" d="M2175.263,2788.25c-6.297-135.027,143.833-214.219,129.41-404.7
					c-1.301-17.186-14.718-164.591-133.354-264.505c-106.534-89.722-196.079-55.965-393.257-127.53
					c-138.194-50.156-293.552-106.544-356.387-219.677c-124.782-224.669,231.789-449.074,158.807-739.927
					c-20.913-83.342-79.959-185.502-235.91-292.187l-377.705-15.307c-45.878-1.859-83.331,36.674-83.331,85.904v2215.94
					c0,49.23,37.454,87.095,83.331,84.417l1407.483-82.15C2224.436,2941.862,2178.545,2858.602,2175.263,2788.25z"/>
			</g>
		</g>
		<g>
			
				<linearGradient id="SVGID_00000032607811243666511950000017547195194033195410_" gradientUnits="userSpaceOnUse" x1="2217.1104" y1="1853.1315" x2="2625.7952" y2="2355.6274">
				<stop  offset="0" style="stop-color:#AA80F9"/>
				<stop  offset="0.9964" style="stop-color:#6165D7"/>
			</linearGradient>
			<path style="fill:url(#SVGID_00000032607811243666511950000017547195194033195410_);" d="M2367.543,1700.768
				c0,0-102.817,224.269-72.503,585.508h33.456c0,0,60.573-365.231,115.872-394.198
				C2499.666,1863.11,2367.543,1700.768,2367.543,1700.768z"/>
			
				<linearGradient id="SVGID_00000112621571009317394520000005201153811197448880_" gradientUnits="userSpaceOnUse" x1="-2082.3127" y1="2950.5789" x2="-2062.3643" y2="3309.6545" gradientTransform="matrix(1 0 0 1 4593.5039 0)">
				<stop  offset="0" style="stop-color:#444B8C"/>
				<stop  offset="0.9964" style="stop-color:#26264F"/>
			</linearGradient>
			<path style="fill:url(#SVGID_00000112621571009317394520000005201153811197448880_);" d="M2561.163,3078.26
				c0,0,2.495,19.849,0.82,26.499c-1.675,6.65-59.389,11.456-78.979,9.144c-19.59-2.313,11.668-22.323,24.15-26.079
				C2519.636,3084.07,2561.163,3078.26,2561.163,3078.26z"/>
			
				<linearGradient id="SVGID_00000009577081841222739170000007816044864330171303_" gradientUnits="userSpaceOnUse" x1="-2061.3928" y1="3065.7302" x2="-2031.521" y2="3065.7302" gradientTransform="matrix(1 0 0 1 4593.5039 0)">
				<stop  offset="0" style="stop-color:#FFC444"/>
				<stop  offset="0.9964" style="stop-color:#F36F56"/>
			</linearGradient>
			<path style="fill:url(#SVGID_00000009577081841222739170000007816044864330171303_);" d="M2532.111,3045.146l6.083,39.825
				c0,0,15.512,6.973,22.969,0.082l0.82-41.686L2532.111,3045.146z"/>
			
				<linearGradient id="SVGID_00000074425467450192913020000012229139381271228806_" gradientUnits="userSpaceOnUse" x1="-1721.2401" y1="2930.5183" x2="-1701.2916" y2="3289.5947" gradientTransform="matrix(1 0 0 1 4593.5039 0)">
				<stop  offset="0" style="stop-color:#444B8C"/>
				<stop  offset="0.9964" style="stop-color:#26264F"/>
			</linearGradient>
			<path style="fill:url(#SVGID_00000074425467450192913020000012229139381271228806_);" d="M2857.461,3043.366
				c0,0-12.246,9.087-8.98,19.97c3.264,10.883,31.839,54.489,52.203,66.865c20.363,12.378,13.98-13.408,8.054-29.468
				c-5.926-16.059-21.068-51.437-26.98-57.367C2875.847,3037.438,2857.461,3043.366,2857.461,3043.366z"/>
			
				<linearGradient id="SVGID_00000114068067773407217710000003980759672191941791_" gradientUnits="userSpaceOnUse" x1="-1758.0698" y1="3047.3103" x2="-1698.6597" y2="3047.3103" gradientTransform="matrix(1 0 0 1 4593.5039 0)">
				<stop  offset="0" style="stop-color:#FFC444"/>
				<stop  offset="0.9964" style="stop-color:#F36F56"/>
			</linearGradient>
			<path style="fill:url(#SVGID_00000114068067773407217710000003980759672191941791_);" d="M2835.434,2999.614
				c5.92,16.5,11.614,30.066,16.067,40.073c9.854,22.136,15.239,30.442,21.338,37.644c5.318,6.272,17.91,19.657,21.294,17.428
				c3.437-2.26-5.774-18.532-23.531-66.189c-2.578-6.918-10.721-28.956-10.721-28.956l0,0H2835.434z"/>
			
				<linearGradient id="SVGID_00000017502047561291074630000012831864640582482848_" gradientUnits="userSpaceOnUse" x1="-2077.4248" y1="3029.7493" x2="-2087.3994" y2="2644.073" gradientTransform="matrix(1 0 0 1 4593.5039 0)">
				<stop  offset="0" style="stop-color:#311944"/>
				<stop  offset="1" style="stop-color:#893976"/>
			</linearGradient>
			<path style="fill:url(#SVGID_00000017502047561291074630000012831864640582482848_);" d="M2411.247,2310.135
				c-4.225,41.475-8.276,105.847-2.218,183.975c7.898,101.788,28.251,166.199,53.776,274.73
				c15.599,66.327,36.617,163.947,55.64,286.035c4.414,2.527,17.398,9.169,34.114,6.689c9.362-1.39,16.362-5.112,20.494-7.786
				c49.906-152.5,35.168-247.002,11.082-305.88c-10.266-25.099-22.712-44.899-29.365-83.478
				c-8.803-51.041,2.081-79.574,17.603-197.806c11.066-84.269,9.151-97.295,1.788-109.933
				C2544.736,2306.153,2454.73,2307.141,2411.247,2310.135z"/>
			
				<linearGradient id="SVGID_00000006680787730408458880000013743841477349899924_" gradientUnits="userSpaceOnUse" x1="-1855.6638" y1="3024.0146" x2="-1865.6385" y2="2638.3379" gradientTransform="matrix(1 0 0 1 4593.5039 0)">
				<stop  offset="0" style="stop-color:#311944"/>
				<stop  offset="1" style="stop-color:#893976"/>
			</linearGradient>
			<path style="fill:url(#SVGID_00000006680787730408458880000013743841477349899924_);" d="M2583.028,2327.868
				c30.573,157.889,60.579,240.814,83.286,287.718c5.6,11.567,24.284,48.885,41.947,102.387
				c15.637,47.358,22.153,82.197,25.49,97.531c10.541,48.396,36.591,119.061,106.686,211.747c0.874,0.513,12.827,7.272,24.253,1.248
				c5.783-3.053,8.667-7.916,9.811-10.183c-9.163-88.614-19.682-163.077-28.814-220.545c-1.916-12.053-10.354-64.79-23.584-134.461
				c-5.179-27.267-12.766-67.217-21.854-108.25c-11.316-51.1-28.67-120.615-55.414-203.916
				C2690.899,2343.383,2636.962,2335.63,2583.028,2327.868z"/>
			
				<linearGradient id="SVGID_00000018196333396746845120000005103645156286783135_" gradientUnits="userSpaceOnUse" x1="-1719.5266" y1="2058.6018" x2="-1859.1676" y2="1860.777" gradientTransform="matrix(1 0 0 1 4593.5039 0)">
				<stop  offset="0" style="stop-color:#444B8C"/>
				<stop  offset="0.9964" style="stop-color:#26264F"/>
			</linearGradient>
			<path style="fill:url(#SVGID_00000018196333396746845120000005103645156286783135_);" d="M2556.983,1703.361
				c-17.338-16.027-50.509-34.503-67.146-77.452c-5.009-12.928-22.751-58.736,3.421-93.776c15.533-20.8,44.389-34.923,69.822-29.923
				c21.732,4.273,25.132,19.408,62.062,49.872c14.374,11.857,37.479,30.916,63.196,41.513c44.058,18.157,70.527,1.072,114.759,3.02
				c54.339,2.397,117.462,32.721,147.875,76.822c53.98,78.268-24.216,157.667,34.91,249.359
				c19.374,30.041,28.922,23.306,74.807,81.458c45.947,58.229,68.922,87.339,64.834,123.017
				c-5.674,49.514-59.005,96.814-109.228,100.028c-49.06,3.144-80.246-35.455-105.222-18.57
				c-17.777,12.012-7.612,35.383-26.492,63.469c-24.337,36.208-72.175,43.424-79.901,44.587
				c-71.71,10.817-168.397-73.27-209.462-172.889C2521.167,1964.252,2651.246,1790.493,2556.983,1703.361z"/>
			
				<linearGradient id="SVGID_00000104677430245554397390000009413148825760916118_" gradientUnits="userSpaceOnUse" x1="2341.6772" y1="1792.431" x2="3350.854" y2="3033.2578">
				<stop  offset="0" style="stop-color:#AA80F9"/>
				<stop  offset="0.9964" style="stop-color:#6165D7"/>
			</linearGradient>
			<path style="fill:url(#SVGID_00000104677430245554397390000009413148825760916118_);" d="M2386.051,1684.271
				c63.793-26.519,164.756-46.618,203.994-38.305c101.109,21.424,164.082,82.095,187.781,107.596
				c-19.408,12.639-72.965,51.198-99.488,124.353c-8.254,22.759-32.634,100.563,2.233,173.444
				c20.091,41.994,55.631,73.522,82.622,97.47c40.485,35.916,61.451,41.436,75.024,73.616c14.781,35.04-0.113,52.123,18.243,76.113
				c19.714,25.76,42.811,13.783,76.225,39.837c34.227,26.68,22.048,48.646,53.197,78.132
				c45.261,42.848,105.262,28.932,108.057,48.214c2.404,16.581-40.241,39.081-76.471,48.207
				c-71.75,18.071-134.331-12.262-152.94-21.61c-51.525-25.883-42.625-42.641-81.905-62.373
				c-65.779-33.044-110.731,3.725-260.548,7.512c-81.131,2.054-122.154,2.515-144.629-24.936
				c-20.525-25.072-9.735-52.575,2.581-171.096c5.862-56.413,7.978-113.152,12.298-169.7
				c10.294-134.745,12.182-165.978,6.037-185.691c-0.95-3.046-1.587-10.083-4.292-10.466
				C2391.756,1874.257,2322.067,1710.869,2386.051,1684.271z"/>
			<g>
				
					<linearGradient id="SVGID_00000056389033312912575140000017793077776655616907_" gradientUnits="userSpaceOnUse" x1="-1870.2249" y1="1639.5551" x2="-1754.9656" y2="2344.4119" gradientTransform="matrix(1 0 0 1 4593.5039 0)">
					<stop  offset="0" style="stop-color:#AA80F9"/>
					<stop  offset="0.9964" style="stop-color:#6165D7"/>
				</linearGradient>
				<path style="fill:url(#SVGID_00000056389033312912575140000017793077776655616907_);" d="M2985.881,2416.529
					c-31.148-29.489-18.969-51.451-53.197-78.133c-33.414-26.054-56.51-14.078-76.225-39.839
					c-18.356-23.989-3.462-41.073-18.243-76.114c-13.573-32.176-34.538-37.697-75.024-73.613
					c-26.99-23.948-62.531-55.476-82.622-97.47c-34.867-72.88-10.487-150.687-2.233-173.449
					c26.523-73.152,80.08-111.711,99.488-124.348c-1.867-2.013-4.072-4.306-6.428-6.721
					c-127.868,17.573-202.423,91.458-211.643,113.335c-21.313,50.573,12.427,69.152,13.299,215.008
					c0.415,69.715-7.104,97.244,15.515,126.343c25.871,33.28,55.684,22.981,93.094,66.496c28.747,33.428,24.143,54.624,50.982,68.71
					c28.86,15.142,47.243-2.507,79.794,4.435c54.381,11.596,66.008,74.301,101.96,108.608
					c27.186,25.941,77.451,44.078,176.582,24.611c2.293-3.337,3.401-6.597,2.957-9.65
					C3091.143,2445.458,3031.142,2459.373,2985.881,2416.529z"/>
			</g>
			
				<linearGradient id="SVGID_00000000929722652711773780000014968912963700529838_" gradientUnits="userSpaceOnUse" x1="2444.3672" y1="1622.4937" x2="2622.7808" y2="1622.4937">
				<stop  offset="0" style="stop-color:#FFC444"/>
				<stop  offset="0.9964" style="stop-color:#F36F56"/>
			</linearGradient>
			<path style="fill:url(#SVGID_00000000929722652711773780000014968912963700529838_);" d="M2534.016,1571.589
				c0,0,12.123,50.521,32.342,60.151c20.22,9.624,52.5,21.551,56.332,25.338c3.832,3.781-115.239,30.178-178.323,6.699l0,0
				c19.225-6.299,24.408-8.406,24.408-8.406c5.172-2.105,14.823-6.024,24.177-12.831c6.368-4.629,16.482-13.416,24.943-28.819
				l-3.384-28.345L2534.016,1571.589z"/>
			
				<linearGradient id="SVGID_00000166635966810586944090000006463808406469728434_" gradientUnits="userSpaceOnUse" x1="2495.3115" y1="1572.375" x2="2548.0476" y2="1572.375">
				<stop  offset="0" style="stop-color:#FFC444"/>
				<stop  offset="0.9964" style="stop-color:#F36F56"/>
			</linearGradient>
			<path style="fill:url(#SVGID_00000166635966810586944090000006463808406469728434_);" d="M2535.089,1592.872
				c0,0-14.568,15.22-32.903,5.59c-16.415-8.622-0.104-51.826,14.275-55.067c4.796-1.081,13.084,0.799,18.219,5.053
				c3.613,2.993,12.382,17.492,4.37,31.339c4.532-0.677,8.216,0.989,8.886,3.279c0.851,2.904-3.344,6.138-4.295,6.869
				C2540.344,1592.473,2536.737,1592.821,2535.089,1592.872z"/>
			
				<linearGradient id="SVGID_00000068646649476612357970000006374129948450813623_" gradientUnits="userSpaceOnUse" x1="2510.8779" y1="1633.6627" x2="3585.3281" y2="2954.7461">
				<stop  offset="0" style="stop-color:#AA80F9"/>
				<stop  offset="0.9964" style="stop-color:#6165D7"/>
			</linearGradient>
			<path style="fill:url(#SVGID_00000068646649476612357970000006374129948450813623_);" d="M2717.462,2092.118
				c0,0,121.665-40.292,145.473-122.707c23.809-82.415-52.582-223.437-170.15-277.374l-94.494,105.218
				c0,0,151.47,120.876,138.462,190.471c-13.008,69.595-44.142,82.415-44.142,82.415L2717.462,2092.118z"/>
			
				<linearGradient id="SVGID_00000145057681287244964520000007950250540218808250_" gradientUnits="userSpaceOnUse" x1="2605.0554" y1="2089.5813" x2="2717.4617" y2="2089.5813">
				<stop  offset="0" style="stop-color:#FFC444"/>
				<stop  offset="0.9964" style="stop-color:#F36F56"/>
			</linearGradient>
			<path style="fill:url(#SVGID_00000145057681287244964520000007950250540218808250_);" d="M2692.61,2070.14
				c0,0-46.154-8.853-59.056,0c-12.902,8.853-19.989,32.076-27.196,36.376c-7.208,4.301,16.875,12.042,38.377,0
				c21.502-12.041,65.464-6.434,72.726-14.398C2717.462,2092.118,2710.381,2066.448,2692.61,2070.14z"/>
			
				<linearGradient id="SVGID_00000071549477106042195660000004057368323724995975_" gradientUnits="userSpaceOnUse" x1="2295.0396" y1="2344.7463" x2="2348.1421" y2="2344.7463">
				<stop  offset="0" style="stop-color:#FFC444"/>
				<stop  offset="0.9964" style="stop-color:#F36F56"/>
			</linearGradient>
			<path style="fill:url(#SVGID_00000071549477106042195660000004057368323724995975_);" d="M2295.04,2286.276
				c0,0,11.088,77.01,21.913,94.124c10.825,17.114,31.189,22.818,31.189,22.818s-22.266-37.079-18.463-58.47
				c3.803-21.392-6.903-58.471-6.903-58.471H2295.04z"/>
		</g>
		<g>
			
				<linearGradient id="SVGID_00000146494869525842041700000014023674099207676299_" gradientUnits="userSpaceOnUse" x1="-2865.7224" y1="457.7158" x2="-3597.2542" y2="2286.5461" gradientTransform="matrix(-1 0 0 1 -258.321 0)">
				<stop  offset="0" style="stop-color:#311944"/>
				<stop  offset="1" style="stop-color:#893976"/>
			</linearGradient>
			<path style="fill:url(#SVGID_00000146494869525842041700000014023674099207676299_);" d="M2735.076,1502.707
				c0,0,34.318-21.316,54.312-54.675c-30.393-34.66-48.25-77.25-48.25-122.646c0-108.849,102.603-200.193,234.773-204.191
				c135.184-4.089,250.379,83.89,256.284,198.361c0.002,0.039,0.004,0.078,0.006,0.116c0.072,1.421,0.128,2.846,0.167,4.275
				c0.006,0.208,0.01,0.417,0.014,0.625c0.033,1.402,0.055,2.806,0.055,4.215c0,6.505-0.352,12.926-1.041,19.253
				c-0.295,2.712-0.652,5.406-1.069,8.082c-0.835,5.352-1.911,10.632-3.22,15.831c-0.654,2.6-1.367,5.18-2.136,7.738
				c-0.513,1.706-1.051,3.402-1.614,5.09c-13.229,39.645-40.193,74.013-76.107,99.657c-0.764,0.546-1.532,1.087-2.304,1.625
				c-12.355,8.603-25.735,16.187-39.952,22.615c-0.888,0.402-1.78,0.799-2.675,1.192c-6.265,2.749-12.688,5.275-19.253,7.567
				c-2.814,0.982-5.653,1.922-8.518,2.817c-1.91,0.597-3.831,1.174-5.762,1.732c-2.897,0.836-5.818,1.628-8.762,2.375
				c-1.962,0.498-3.935,0.975-5.918,1.432c-24.781,5.713-51.086,8.231-78.195,7.036c-2.004-0.089-4-0.199-5.99-0.327
				c-0.579-0.037-1.154-0.086-1.732-0.127c-1.419-0.099-2.837-0.201-4.248-0.32c-0.627-0.053-1.25-0.117-1.876-0.174
				c-1.371-0.125-2.74-0.252-4.104-0.396c-0.585-0.062-1.167-0.132-1.75-0.197c-1.416-0.157-2.83-0.32-4.238-0.498
				c-0.501-0.063-1-0.132-1.5-0.198c-1.51-0.198-3.015-0.405-4.515-0.626c-0.382-0.056-0.763-0.116-1.145-0.173
				c-1.648-0.249-3.29-0.512-4.925-0.788c-0.223-0.038-0.446-0.077-0.669-0.115c-1.843-0.316-3.677-0.649-5.503-0.999
				c-0.01-0.002-0.021-0.004-0.031-0.006c-15.436-2.958-30.288-7.106-44.404-12.325c0.017-0.017,0.034-0.033,0.051-0.049
				c-8.337-3.093-16.42-6.568-24.235-10.382C2846.246,1519.95,2797.961,1547.143,2735.076,1502.707z"/>
			<g>
				
					<linearGradient id="SVGID_00000056396587575346645660000015772593467882892698_" gradientUnits="userSpaceOnUse" x1="-3318.603" y1="1157.7504" x2="-2982.5789" y2="1780.9755" gradientTransform="matrix(-1 0 0 1 -258.321 0)">
					<stop  offset="0" style="stop-color:#FF9085"/>
					<stop  offset="1" style="stop-color:#FB6FBB"/>
				</linearGradient>
				<path style="fill:url(#SVGID_00000056396587575346645660000015772593467882892698_);" d="M2723.525,1324.637
					c0,108.849,102.603,201.613,234.773,207.441c138.797,6.12,256.526-85.106,256.526-204.041
					c0-118.935-117.729-211.79-256.526-207.591C2826.127,1124.444,2723.525,1215.787,2723.525,1324.637z"/>
				
					<linearGradient id="SVGID_00000042721815940753583420000015582411829826013319_" gradientUnits="userSpaceOnUse" x1="-3318.603" y1="1157.7504" x2="-2982.5789" y2="1780.9755" gradientTransform="matrix(-1 0 0 1 -258.321 0)">
					<stop  offset="0" style="stop-color:#FF9085"/>
					<stop  offset="1" style="stop-color:#FB6FBB"/>
				</linearGradient>
				<path style="fill:url(#SVGID_00000042721815940753583420000015582411829826013319_);" d="M2723.525,1324.637
					c0,108.849,102.603,201.613,234.773,207.441c138.797,6.12,256.526-85.106,256.526-204.041
					c0-118.935-117.729-211.79-256.526-207.591C2826.127,1124.444,2723.525,1215.787,2723.525,1324.637z"/>
				
					<linearGradient id="SVGID_00000000935642421811458000000007603684527792139705_" gradientUnits="userSpaceOnUse" x1="-2447.957" y1="808.8076" x2="-2133.3533" y2="1392.3043" gradientTransform="matrix(-0.9879 -0.1549 -0.1549 0.9879 742.7856 -10.3045)">
					<stop  offset="0" style="stop-color:#FF9085"/>
					<stop  offset="1" style="stop-color:#FB6FBB"/>
				</linearGradient>
				<path style="fill:url(#SVGID_00000000935642421811458000000007603684527792139705_);" d="M2856.105,1496.646
					c0,0-57.027,62.984-138.643,5.312c0,0,65.31-40.552,68.23-97.339L2856.105,1496.646z"/>
				<g>
					<path style="fill:#FFFFFF;" d="M2823.676,1271.239L2823.676,1271.239c9.936-28.331,34.759-48.669,64.089-49.022
						c38.73-0.466,70.533,34.02,70.533,77.031c0-43.011,32.172-78.265,72.376-78.749c31.223-0.375,58.189,20.285,69.125,49.886
						l0.001,0c41.911,106.836-141.502,200.574-141.502,200.574S2786.28,1371.674,2823.676,1271.239z"/>
				</g>
				<g style="opacity:0.3;">
					
						<linearGradient id="SVGID_00000006695615568218475790000010112855715035521212_" gradientUnits="userSpaceOnUse" x1="-3409.4951" y1="1192.4041" x2="-3077.6489" y2="1858.3395" gradientTransform="matrix(-1 0 0 1 -258.321 0)">
						<stop  offset="0" style="stop-color:#FF9085"/>
						<stop  offset="1" style="stop-color:#FB6FBB"/>
					</linearGradient>
					<path style="fill:url(#SVGID_00000006695615568218475790000010112855715035521212_);" d="M2899.406,1477.614
						c29.104-59.446-0.317-116.352,39.103-154.965c40.632-39.8,94.335-2.252,153.303-35.186
						c23.131-12.919,49.072-37.807,68.508-89.222c34.071,35.575,54.505,80.668,54.505,129.796
						c0,118.935-117.729,210.16-256.526,204.041c-30.846-1.36-60.033-7.433-86.63-17.268
						C2884.751,1502.587,2893.446,1489.786,2899.406,1477.614z"/>
				</g>
			</g>
		</g>
		<g>
			
				<linearGradient id="SVGID_00000104687257640836221580000016076273695363462018_" gradientUnits="userSpaceOnUse" x1="-409.5461" y1="2608.198" x2="-387.2777" y2="3009.0315" gradientTransform="matrix(-1 0 0 1 1479.8596 0)">
				<stop  offset="0" style="stop-color:#444B8C"/>
				<stop  offset="0.9964" style="stop-color:#26264F"/>
			</linearGradient>
			<path style="fill:url(#SVGID_00000104687257640836221580000016076273695363462018_);" d="M1833.623,2750.728
				c0,0-2.785,22.158-0.915,29.581c1.87,7.424,66.296,12.788,88.163,10.208c21.868-2.582-13.025-24.919-26.958-29.111
				C1879.979,2757.213,1833.623,2750.728,1833.623,2750.728z"/>
			
				<linearGradient id="SVGID_00000157987759176409509990000014332853879874786709_" gradientUnits="userSpaceOnUse" x1="1874.9558" y1="2741.655" x2="1868.7347" y2="2501.1096">
				<stop  offset="0" style="stop-color:#FFC444"/>
				<stop  offset="0.9964" style="stop-color:#F36F56"/>
			</linearGradient>
			<path style="fill:url(#SVGID_00000157987759176409509990000014332853879874786709_);" d="M1836.047,2310.604
				c0,0-55.802,120.454-44.375,186.477c11.427,66.024,41.823,254.718,41.823,254.718s27.392,24.904,26.749,0
				s55.858-371.529,78.712-432.473C1961.81,2258.38,1836.047,2310.604,1836.047,2310.604z"/>
			
				<linearGradient id="SVGID_00000148657659174417235320000002925607889744548534_" gradientUnits="userSpaceOnUse" x1="-4.5715" y1="1612.4929" x2="-160.4514" y2="1391.663" gradientTransform="matrix(-1 0 0 1 1479.8596 0)">
				<stop  offset="0" style="stop-color:#444B8C"/>
				<stop  offset="0.9964" style="stop-color:#26264F"/>
			</linearGradient>
			<path style="fill:url(#SVGID_00000148657659174417235320000002925607889744548534_);" d="M1838.289,1215.941
				c19.354-17.89,56.382-38.516,74.954-86.459c5.591-14.432,25.397-65.566-3.818-104.681c-17.34-23.218-49.551-38.984-77.941-33.403
				c-24.259,4.77-28.054,21.665-69.28,55.672c-16.045,13.236-41.837,34.511-70.545,46.341
				c-49.181,20.268-78.728,1.197-128.105,3.371c-60.658,2.676-131.121,36.526-165.071,85.755
				c-60.258,87.37,27.032,176.002-38.969,278.357c-21.627,33.534-32.286,26.016-83.507,90.931
				c-51.29,65-76.937,97.496-72.373,137.323c6.334,55.272,65.867,108.072,121.93,111.661c54.765,3.51,89.578-39.578,117.459-20.73
				c19.844,13.409,8.497,39.498,29.573,70.849c27.167,40.419,80.569,48.474,89.192,49.772
				c80.049,12.075,187.98-81.791,233.82-192.995C1878.269,1507.172,1733.064,1313.206,1838.289,1215.941z"/>
			
				<linearGradient id="SVGID_00000068641516612745272790000010631797217363694524_" gradientUnits="userSpaceOnUse" x1="1863.5865" y1="995.3113" x2="1875.5867" y2="1441.3219">
				<stop  offset="0" style="stop-color:#FFC444"/>
				<stop  offset="0.2325" style="stop-color:#FDB547"/>
				<stop  offset="0.676" style="stop-color:#F78F4F"/>
				<stop  offset="0.9964" style="stop-color:#F36F56"/>
			</linearGradient>
			<path style="fill:url(#SVGID_00000068641516612745272790000010631797217363694524_);" d="M1964,1171.753
				c-21.46-7.031-27.246-9.383-27.246-9.383c-5.773-2.351-16.547-6.725-26.989-14.323c-7.109-5.168-18.4-14.976-27.844-32.171
				l3.777-31.64l-21.772-15.391c0,0-13.533,56.396-36.102,67.146c-22.572,10.744-58.607,24.058-62.885,28.284
				c0,0-17.071,90.419,116.246,89.783C2014.502,1253.424,1964,1171.753,1964,1171.753z"/>
			
				<linearGradient id="SVGID_00000080909436775718047600000006385146653202764706_" gradientUnits="userSpaceOnUse" x1="-99.8062" y1="2580.8638" x2="-77.5379" y2="2981.6975" gradientTransform="matrix(-1 0 0 1 1479.8596 0)">
				<stop  offset="0" style="stop-color:#444B8C"/>
				<stop  offset="0.9964" style="stop-color:#26264F"/>
			</linearGradient>
			<path style="fill:url(#SVGID_00000080909436775718047600000006385146653202764706_);" d="M1596.19,2706.835
				c0,0,13.67,10.144,10.024,22.293c-3.643,12.148-35.541,60.826-58.274,74.641c-22.731,13.818-15.606-14.967-8.99-32.895
				c6.615-17.926,23.518-57.418,30.118-64.038C1575.665,2700.217,1596.19,2706.835,1596.19,2706.835z"/>
			
				<linearGradient id="SVGID_00000158737765114674561930000014234379018985230264_" gradientUnits="userSpaceOnUse" x1="1591.6987" y1="2697.8359" x2="1724.0635" y2="2339.7849">
				<stop  offset="0" style="stop-color:#FFC444"/>
				<stop  offset="0.9964" style="stop-color:#F36F56"/>
			</linearGradient>
			<path style="fill:url(#SVGID_00000158737765114674561930000014234379018985230264_);" d="M1620.778,2657.994
				c-6.608,18.419-12.964,33.563-17.935,44.733c-11,24.71-17.011,33.982-23.819,42.022c-5.936,7.002-19.992,21.942-23.771,19.455
				c-3.837-2.522,6.446-20.687,26.267-73.886c2.878-7.722,11.969-32.324,11.969-32.324l0,0H1620.778z"/>
			
				<linearGradient id="SVGID_00000129200367952003483780000012284840556565570442_" gradientUnits="userSpaceOnUse" x1="1518.4076" y1="2670.7412" x2="1650.7723" y2="2312.6899">
				<stop  offset="0" style="stop-color:#FFC444"/>
				<stop  offset="0.9964" style="stop-color:#F36F56"/>
			</linearGradient>
			<path style="fill:url(#SVGID_00000129200367952003483780000012284840556565570442_);" d="M1809.215,1913.073
				c-23.873,176.25-47.304,268.819-65.036,321.177c-4.373,12.912-18.963,54.57-32.755,114.294
				c-12.211,52.866-17.299,91.756-19.904,108.872c-8.231,54.024-34.463,143.013-89.197,246.478
				c-0.682,0.573-4.126-1.989-13.049-8.714c-4.516-3.408-13.54,15.249-14.433,12.718c7.155-98.919,22.142-206.127,29.273-270.278
				c1.496-13.455,8.085-72.324,18.416-150.098c4.044-30.438,9.969-75.034,17.065-120.838
				c8.836-57.042,22.387-134.642,43.271-227.629C1724.982,1930.391,1767.099,1921.737,1809.215,1913.073z"/>
			
				<linearGradient id="SVGID_00000065757303933651644030000016569679756879673276_" gradientUnits="userSpaceOnUse" x1="4183.6084" y1="1138.1377" x2="5383.0063" y2="2612.8501" gradientTransform="matrix(-1 0 0 1 6073.3633 0)">
				<stop  offset="0" style="stop-color:#FFC444"/>
				<stop  offset="0.9964" style="stop-color:#F36F56"/>
			</linearGradient>
			<path style="fill:url(#SVGID_00000065757303933651644030000016569679756879673276_);" d="M1659.148,1649.906
				c0,0-135.813-44.977-162.39-136.977c-26.578-91.999,58.697-249.42,189.937-309.63l80.139,89.233
				c0,0-189.022,113.651-174.502,191.339c14.52,77.688,94.558,141.501,94.558,141.501L1659.148,1649.906z"/>
			<g>
				
					<linearGradient id="SVGID_00000143611353279907483940000007933086166093861822_" gradientUnits="userSpaceOnUse" x1="3935.9023" y1="1306.7902" x2="4222.8511" y2="2241.2781" gradientTransform="matrix(-1 0 0 1 6073.3633 0)">
					<stop  offset="0" style="stop-color:#FFC444"/>
					<stop  offset="0.9964" style="stop-color:#F36F56"/>
				</linearGradient>
				<path style="fill:url(#SVGID_00000143611353279907483940000007933086166093861822_);" d="M2032.045,1195.626
					c0,0,132.488,267.77,98.648,671.017l-29.639,2.578c0,0-55.93-454.589-117.66-486.925
					C1921.665,1349.961,2032.045,1195.626,2032.045,1195.626z"/>
				
					<linearGradient id="SVGID_00000137848357929725753740000005704695566985628546_" gradientUnits="userSpaceOnUse" x1="1896.1107" y1="1264.4861" x2="2183.0598" y2="2198.9753">
					<stop  offset="0" style="stop-color:#FFC444"/>
					<stop  offset="0.9964" style="stop-color:#F36F56"/>
				</linearGradient>
				<path style="fill:url(#SVGID_00000137848357929725753740000005704695566985628546_);" d="M2130.693,1866.643
					c0,0-12.378,85.966-24.461,105.069s-34.816,25.471-34.816,25.471s24.855-41.391,20.61-65.27
					c-4.245-23.879,7.706-65.27,7.706-65.27H2130.693z"/>
			</g>
			
				<linearGradient id="SVGID_00000056428380409048534920000012684199844243319968_" gradientUnits="userSpaceOnUse" x1="1444.8004" y1="1382.5137" x2="2126.9333" y2="2221.2258">
				<stop  offset="0" style="stop-color:#FF9085"/>
				<stop  offset="1" style="stop-color:#FB6FBB"/>
			</linearGradient>
			<path style="fill:url(#SVGID_00000056428380409048534920000012684199844243319968_);" d="M2101.057,2214.855
				c-89.742,159.98-158.494,76.638-311.048,103.073c-152.552,26.435-290.364-2.095-376.068-74.277
				c-74.429-62.698-88.523-90.351-31.043-148.363c8.684-8.761,19.006-18.246,31.043-28.644
				c91.417-79.038,297.601-304.154,323.084-482.912c25.445-178.722-50.736-317.905-65.972-345.405l-11.922-30.13
				c0,0,75.913-51.993,105.815-43.995c0,0,28.72,45.481,103.873,50.052c75.115,4.609,108.787,7.275,95.189-43.309
				c33.367,3.238,71.457,4.838,72.714,37.253c1.257,32.415,13.142,117.852-24.835,204.584c0.8,38.89,15.313,106.654,33.748,187.558
				c0.039,0.114,0.039,0.191,0.076,0.305c0.039,0.191,0.076,0.38,0.152,0.647c0,0.076,0,0.152,0.039,0.267
				c0.037,0.114,0.076,0.267,0.113,0.381c0.039,0.266,0.076,0.533,0.152,0.8c17.635,77.286,38.738,166.341,54.889,253.568
				C2128.102,2002.31,2141.281,2143.13,2101.057,2214.855z"/>
			
				<linearGradient id="SVGID_00000083077194710668181780000010501153191688725419_" gradientUnits="userSpaceOnUse" x1="1877.8175" y1="1083.3407" x2="1909.5596" y2="1342.3569">
				<stop  offset="0" style="stop-color:#FFC444"/>
				<stop  offset="0.9964" style="stop-color:#F36F56"/>
			</linearGradient>
			<path style="fill:url(#SVGID_00000083077194710668181780000010501153191688725419_);" d="M1854.291,1082.855
				c0,0,5.894,22.768,29.004,23.383c20.691,0.549,28.355-50.428,16.115-61.424c-4.082-3.668-13.181-6.354-20.502-5.01
				c-5.151,0.946-21.597,10.289-21.341,28.145c-4.046-3.13-8.542-3.515-10.443-1.651c-2.412,2.365-0.088,7.802,0.439,9.033
				C1849.388,1079.601,1852.713,1081.907,1854.291,1082.855z"/>
			
				<linearGradient id="SVGID_00000165212492825749440100000010296616539708241807_" gradientUnits="userSpaceOnUse" x1="1659.1477" y1="1647.0751" x2="1784.6256" y2="1647.0751">
				<stop  offset="0" style="stop-color:#FFC444"/>
				<stop  offset="0.9964" style="stop-color:#F36F56"/>
			</linearGradient>
			<path style="fill:url(#SVGID_00000165212492825749440100000010296616539708241807_);" d="M1686.89,1625.373
				c0,0,51.522-9.882,65.923,0c14.402,9.883,22.313,35.806,30.359,40.606s-18.837,13.442-42.84,0
				c-24.003-13.442-73.077-7.183-81.184-16.073C1659.148,1649.906,1667.051,1621.252,1686.89,1625.373z"/>
			
				<linearGradient id="SVGID_00000083803463957803199280000016881874102235460028_" gradientUnits="userSpaceOnUse" x1="2240.7283" y1="935.577" x2="2337.0181" y2="935.577" gradientTransform="matrix(0.989 0.1476 -0.1476 0.989 -281.7386 -269.9135)">
				<stop  offset="0" style="stop-color:#FF9085"/>
				<stop  offset="1" style="stop-color:#FB6FBB"/>
			</linearGradient>
			<path style="fill:url(#SVGID_00000083803463957803199280000016881874102235460028_);" d="M1882.87,979.454
				c-2.712-9.16-10.746-16.474-20.967-19.072c-22.603-5.745-40.42-0.417-52.081,5.756c-9.741,5.158-14.919,15.074-13.215,25.273
				l5.255,31.473l88.803-17.099L1882.87,979.454z"/>
			
				<linearGradient id="SVGID_00000056389159843409016410000013989962885919754915_" gradientUnits="userSpaceOnUse" x1="2241.8647" y1="942.2389" x2="2337.0178" y2="942.2389" gradientTransform="matrix(0.989 0.1476 -0.1476 0.989 -281.7386 -269.9135)">
				<stop  offset="0" style="stop-color:#FF9085"/>
				<stop  offset="1" style="stop-color:#FB6FBB"/>
			</linearGradient>
			<path style="opacity:0.3;fill:url(#SVGID_00000056389159843409016410000013989962885919754915_);" d="M1882.87,979.454
				c-6.503-3.416-16.035-6.989-26.44-4.89c-8.988,1.813-10.488,6.217-17.666,6.36c-14.055,0.279-20.199-16.366-28.942-14.785
				c-4.352,0.787-9.454,6.108-13.215,25.273l5.256,31.473l88.802-17.099L1882.87,979.454z"/>
			
				<linearGradient id="SVGID_00000065785242445320952780000015005873637358533284_" gradientUnits="userSpaceOnUse" x1="1572.9348" y1="1061.6235" x2="2164.6777" y2="1061.6235">
				<stop  offset="0" style="stop-color:#FF9085"/>
				<stop  offset="1" style="stop-color:#FB6FBB"/>
			</linearGradient>
			<path style="fill:url(#SVGID_00000065785242445320952780000015005873637358533284_);" d="M1579.551,1153.363
				c-4.643,1.541-8.518-3.78-5.613-7.716c22.261-30.16,91.883-107.932,241.401-148.979
				c147.756-40.563,290.615-25.719,345.072-17.492c5.396,0.816,5.793,8.437,0.508,9.798
				C2074.83,1011.149,1763.322,1092.372,1579.551,1153.363z"/>
			
				<linearGradient id="SVGID_00000026129199129969149230000008702079032561762209_" gradientUnits="userSpaceOnUse" x1="1880.8994" y1="1467.401" x2="1883.149" y2="1551.0144">
				<stop  offset="0" style="stop-color:#311944"/>
				<stop  offset="1" style="stop-color:#893976"/>
			</linearGradient>
			<path style="fill:url(#SVGID_00000026129199129969149230000008702079032561762209_);" d="M1735.975,1505.456v49.518
				c0,0,296.802-8.436,293.213-49.518c-3.589-41.082-15.689-41.623-15.689-41.623S1974.153,1497.983,1735.975,1505.456z"/>
			
				<linearGradient id="SVGID_00000072975719260617085710000003452998825518694578_" gradientUnits="userSpaceOnUse" x1="2045.5453" y1="1600.1538" x2="2045.7245" y2="1600.3741">
				<stop  offset="0" style="stop-color:#FF9085"/>
				<stop  offset="1" style="stop-color:#FB6FBB"/>
			</linearGradient>
			<path style="fill:url(#SVGID_00000072975719260617085710000003452998825518694578_);" d="M2045.634,1600.34
				c-0.037-0.152-0.037-0.228-0.037-0.228s0.037,0.113,0.076,0.304C2045.673,1600.378,2045.634,1600.378,2045.634,1600.34z"/>
			
				<linearGradient id="SVGID_00000049213336189955395010000016314624306387645630_" gradientUnits="userSpaceOnUse" x1="1673.0996" y1="1859.2648" x2="2030.9661" y2="2299.2771">
				<stop  offset="0" style="stop-color:#FF9085"/>
				<stop  offset="1" style="stop-color:#FB6FBB"/>
			</linearGradient>
			<path style="opacity:0.3;fill:url(#SVGID_00000049213336189955395010000016314624306387645630_);" d="M2101.057,2214.855
				c-89.742,159.98-158.494,76.638-311.048,103.073c-152.552,26.435-290.364-2.095-376.068-74.277
				c-74.429-62.698-88.523-90.351-31.043-148.363c23.541,10.551,55.573,13.788,100.254,6.932
				c122.31-18.778,138.383,55.841,253.873,102.845c115.453,46.966,171.447-17.788,162.571-115.566
				c-8.875-97.741,21.597-182.835,111.72-204.395c86.275-20.645,38.853-262.672,34.587-283.546
				c-0.039-0.115-0.039-0.191-0.039-0.267c0.039,0.191,0.076,0.419,0.153,0.648c0.039,0.266,0.076,0.533,0.152,0.8
				c4.267,19.578,31.501,144.477,54.889,253.568C2128.102,2002.31,2141.281,2143.13,2101.057,2214.855z"/>
		</g>
		<ellipse style="fill:#D8DEE8;" cx="1721.183" cy="2792.155" rx="285.187" ry="34.523"/>
		<g>
			
				<linearGradient id="SVGID_00000124163187796104221630000005901684174439746709_" gradientUnits="userSpaceOnUse" x1="664.2662" y1="2203.3269" x2="747.8641" y2="2234.3774">
				<stop  offset="0" style="stop-color:#AB316D"/>
				<stop  offset="1" style="stop-color:#792D3D"/>
			</linearGradient>
			<path style="fill:url(#SVGID_00000124163187796104221630000005901684174439746709_);" d="M1110.87,2435.967
				c-4.868,0-9.028-3.701-9.499-8.646c-8.366-87.78-36.986-171.182-80.587-234.846c-38.625-56.4-84.61-90.056-123.032-90.056
				c-0.044,0-0.084,0-0.128,0c-139.942,0.273-169.215,321.567-169.494,324.813c-0.452,5.258-5.059,9.151-10.338,8.7
				c-5.256-0.452-9.152-5.08-8.701-10.335c1.199-13.965,31.161-341.978,188.495-342.286c0.056,0,0.113,0,0.168,0
				c45.397,0,95.973,35.841,138.794,98.367c45.399,66.29,75.176,152.883,83.844,243.828c0.5,5.253-3.352,9.918-8.605,10.419
				C1111.48,2435.954,1111.173,2435.967,1110.87,2435.967z"/>
			
				<linearGradient id="SVGID_00000071545167550490055160000011123775187584887737_" gradientUnits="userSpaceOnUse" x1="430.1092" y1="2490.6343" x2="662.9771" y2="2881.136">
				<stop  offset="0.0036" style="stop-color:#E38DDD"/>
				<stop  offset="1" style="stop-color:#9571F6"/>
			</linearGradient>
			<path style="fill:url(#SVGID_00000071545167550490055160000011123775187584887737_);" d="M527.869,3097.218l184.218,93.266
				l111.617-342.517L639.79,2388.772l-52.151,12.787l-79.128,659.485C506.72,3075.972,514.455,3090.427,527.869,3097.218z"/>
			
				<linearGradient id="SVGID_00000062190580279577934280000005036106871859450258_" gradientUnits="userSpaceOnUse" x1="466.1136" y1="2469.1638" x2="698.9813" y2="2859.6653">
				<stop  offset="0.0036" style="stop-color:#E38DDD"/>
				<stop  offset="1" style="stop-color:#9571F6"/>
			</linearGradient>
			<path style="opacity:0.3;fill:url(#SVGID_00000062190580279577934280000005036106871859450258_);" d="M823.704,2847.966
				L639.79,2388.772l-30.76,7.542c-4.265,61.309-2.391,111.769,0.506,148.507c12.329,156.341,53.274,199.848,33.439,308.914
				c-16.493,90.688-52.511,102.996-49.362,164.01c3.43,66.451,49.777,122.097,104.881,165.857l13.593,6.881L823.704,2847.966z"/>
			
				<linearGradient id="SVGID_00000031192680982626034070000001187438412211021241_" gradientUnits="userSpaceOnUse" x1="835.4907" y1="2647.9456" x2="1491.1025" y2="3153.0901">
				<stop  offset="0.0036" style="stop-color:#E38DDD"/>
				<stop  offset="1" style="stop-color:#9571F6"/>
			</linearGradient>
			<polygon style="fill:url(#SVGID_00000031192680982626034070000001187438412211021241_);" points="639.79,2388.772 
				1326.666,2388.773 1553.99,3122.646 712.086,3190.484 			"/>
			
				<linearGradient id="SVGID_00000121982921687583815370000008620426805001351347_" gradientUnits="userSpaceOnUse" x1="964.3173" y1="2059.2544" x2="1031.1953" y2="2485.6033">
				<stop  offset="0" style="stop-color:#AB316D"/>
				<stop  offset="1" style="stop-color:#792D3D"/>
			</linearGradient>
			<path style="fill:url(#SVGID_00000121982921687583815370000008620426805001351347_);" d="M852.573,2451.672
				c-4.336,0-8.26-2.972-9.294-7.375c-1.952-8.322-47.081-204.966,16.552-301.472c18.238-27.659,43.719-44.547,75.732-50.194
				c164.493-28.984,265.769,324.314,270,339.369c1.426,5.08-1.534,10.354-6.613,11.781c-5.085,1.432-10.355-1.535-11.783-6.613
				c-0.991-3.517-100.683-351.78-248.286-325.719c-27.013,4.763-47.652,18.467-63.099,41.892
				c-59.149,89.709-14.359,284.633-13.9,286.593c1.205,5.136-1.984,10.277-7.12,11.483
				C854.03,2451.591,853.295,2451.672,852.573,2451.672z"/>
			<g style="opacity:0.3;">
				
					<linearGradient id="SVGID_00000003790999600574401440000012943556056072901804_" gradientUnits="userSpaceOnUse" x1="843.9651" y1="2636.9451" x2="1499.5774" y2="3142.0898">
					<stop  offset="0.0036" style="stop-color:#E38DDD"/>
					<stop  offset="1" style="stop-color:#9571F6"/>
				</linearGradient>
				<path style="fill:url(#SVGID_00000003790999600574401440000012943556056072901804_);" d="M1326.666,2388.772H985.912
					c-16.805,17.094-28.732,36.796-29.872,58.895c-5.355,103.832,233.345,137.943,256.366,280.252
					c16.607,102.658-85.577,221.108-176.75,273.882c-96.058,55.6-161.145,27.443-226.111,89.171
					c-28.546,27.121-45.927,61.036-56.264,96.192l800.71-64.518L1326.666,2388.772z"/>
			</g>
			
				<linearGradient id="SVGID_00000168097057410933860860000014342863581871234459_" gradientUnits="userSpaceOnUse" x1="816.6175" y1="2439.7334" x2="827.3809" y2="2443.7312">
				<stop  offset="0" style="stop-color:#AB316D"/>
				<stop  offset="1" style="stop-color:#792D3D"/>
			</linearGradient>
			<circle style="fill:url(#SVGID_00000168097057410933860860000014342863581871234459_);" cx="852.641" cy="2453.113" r="26.701"/>
			
				<linearGradient id="SVGID_00000068668625878271651970000008042028872027235252_" gradientUnits="userSpaceOnUse" x1="1164.8274" y1="2437.2568" x2="1175.5908" y2="2441.2546">
				<stop  offset="0" style="stop-color:#AB316D"/>
				<stop  offset="1" style="stop-color:#792D3D"/>
			</linearGradient>
			<circle style="fill:url(#SVGID_00000068668625878271651970000008042028872027235252_);" cx="1200.85" cy="2450.637" r="26.701"/>
		</g>
		<g>
			<g>
				
					<linearGradient id="SVGID_00000128473235033141066710000009452293531412486569_" gradientUnits="userSpaceOnUse" x1="1123.1099" y1="2979.2539" x2="1229.3872" y2="2979.2539">
					<stop  offset="0" style="stop-color:#444B8C"/>
					<stop  offset="0.9964" style="stop-color:#26264F"/>
				</linearGradient>
				<path style="fill:url(#SVGID_00000128473235033141066710000009452293531412486569_);" d="M1129.66,2812.08
					c-12.895,9.44-4.056,40.003,3.558,71.158c13.234,54.154,34.827,166.621,27.703,250.086c-0.76,8.911,6.388,16.508,15.329,16.339
					c0.195-0.004,0.391-0.008,0.586-0.011c9.478-0.179,16.355-8.926,14.488-18.219c-6.603-32.856-25.906-80.493-16.302-120.111
					c16.125-66.52,61.641-87.267,53.368-129.863C1219.086,2833.543,1149.417,2797.616,1129.66,2812.08z"/>
				
					<linearGradient id="SVGID_00000102524599233222586500000001972273740867102110_" gradientUnits="userSpaceOnUse" x1="1345.0703" y1="2785.3689" x2="1343.2921" y2="3068.1306">
					<stop  offset="0" style="stop-color:#311944"/>
					<stop  offset="1" style="stop-color:#A03976"/>
				</linearGradient>
				<path style="fill:url(#SVGID_00000102524599233222586500000001972273740867102110_);" d="M1565.725,3075.382
					c-1.908-17.628-43.662-14.685-96.02-39.163c-45.393-21.221-51.015-40.735-88.239-80.381
					c-1.875-1.997-25.494-28.467-57.105-52.723c-37.375-28.679-41.691-20.454-67.506-41.224
					c-49.27-39.641-46.306-79.864-96.469-104.093c-6.834-3.301-28.514-13.773-35.487-6.547
					c-9.579,9.927,13.744,49.656,36.399,76.523c29.644,35.157,57.661,47.697,79.546,62.58
					c99.193,67.457,60.904,175.233,150.897,220.244c48.865,24.44,98.914,12.053,110.294,8.895
					C1529.568,3111.852,1567.588,3092.594,1565.725,3075.382z"/>
				
					<linearGradient id="SVGID_00000065772585649839466190000015729455655135188394_" gradientUnits="userSpaceOnUse" x1="1518.9738" y1="2809.7136" x2="1340.1991" y2="3111.2288">
					<stop  offset="0" style="stop-color:#FF9085"/>
					<stop  offset="1" style="stop-color:#FB6FBB"/>
				</linearGradient>
				<path style="fill:url(#SVGID_00000065772585649839466190000015729455655135188394_);" d="M1121.341,2744.135
					c-6.22,3.17-6.174,21.031-6.083,56.753c0.067,26.179,0.432,39.266,4.304,48.205c11.673,26.945,39.331,22.307,85.703,48.377
					c6.773,3.808,60.776,34.97,95.749,93.938c17.212,29.021,25.364,54.936,25.364,54.936c15.379,42.362,13.207,63.662,36.01,87.379
					c14.875,15.472,39.007,27.873,186.789,30.242c134.698,2.16,202.048,3.24,207.247-17.789
					c6.812-27.553-93.247-74.241-131.642-89.837c-38.492-15.635-57.738-23.453-80.052-19.568
					c-57.469,10.005-78.415,74.73-114.797,67.05c-10.449-2.206-15.509-8.979-33.817-32.586
					c-24.489-31.578-51.49-61.292-74.091-94.248c-35.449-51.692-63.569-87.118-100.172-133.231
					C1140.917,2741.794,1126.311,2741.603,1121.341,2744.135z"/>
				
					<linearGradient id="SVGID_00000093872744677254079180000008642627422400988553_" gradientUnits="userSpaceOnUse" x1="1518.9738" y1="2809.7136" x2="1340.1991" y2="3111.2288">
					<stop  offset="0" style="stop-color:#FF9085"/>
					<stop  offset="1" style="stop-color:#FB6FBB"/>
				</linearGradient>
				<path style="opacity:0.3;fill:url(#SVGID_00000093872744677254079180000008642627422400988553_);" d="M1121.341,2744.135
					c-6.22,3.17-6.174,21.031-6.083,56.753c0.067,26.179,0.432,39.266,4.304,48.205c11.673,26.945,39.331,22.307,85.703,48.377
					c6.773,3.808,60.776,34.97,95.749,93.938c17.212,29.021,25.364,54.936,25.364,54.936c15.379,42.362,13.207,63.662,36.01,87.379
					c14.875,15.472,39.007,27.873,186.789,30.242c134.698,2.16,202.048,3.24,207.247-17.789
					c6.812-27.553-93.247-74.241-131.642-89.837c-38.492-15.635-57.738-23.453-80.052-19.568
					c-57.469,10.005-78.415,74.73-114.797,67.05c-10.449-2.206-15.509-8.979-33.817-32.586
					c-24.489-31.578-51.49-61.292-74.091-94.248c-35.449-51.692-63.569-87.118-100.172-133.231
					C1140.917,2741.794,1126.311,2741.603,1121.341,2744.135z"/>
			</g>
			<g>
				
					<linearGradient id="SVGID_00000042709750786049170390000008098132732321991818_" gradientUnits="userSpaceOnUse" x1="1049.7145" y1="3017.8005" x2="1155.9919" y2="3017.8005">
					<stop  offset="0" style="stop-color:#444B8C"/>
					<stop  offset="0.9964" style="stop-color:#26264F"/>
				</linearGradient>
				<path style="fill:url(#SVGID_00000042709750786049170390000008098132732321991818_);" d="M1056.265,2850.627
					c-12.895,9.441-4.056,40.003,3.558,71.158c13.234,54.154,34.826,166.621,27.703,250.086c-0.76,8.911,6.388,16.507,15.329,16.338
					c0.196-0.003,0.391-0.007,0.586-0.011c9.477-0.179,16.355-8.926,14.488-18.219c-6.603-32.855-25.906-80.493-16.301-120.111
					c16.125-66.52,61.641-87.266,53.368-129.863C1145.69,2872.09,1076.021,2836.163,1056.265,2850.627z"/>
				
					<linearGradient id="SVGID_00000093172353451359519840000018237028764946719634_" gradientUnits="userSpaceOnUse" x1="1271.6749" y1="2823.9158" x2="1269.8967" y2="3106.6775">
					<stop  offset="0" style="stop-color:#311944"/>
					<stop  offset="1" style="stop-color:#A03976"/>
				</linearGradient>
				<path style="fill:url(#SVGID_00000093172353451359519840000018237028764946719634_);" d="M1492.329,3113.929
					c-1.908-17.628-43.662-14.685-96.02-39.164c-45.393-21.221-51.015-40.734-88.239-80.381
					c-1.874-1.997-25.494-28.467-57.105-52.723c-37.375-28.679-41.69-20.454-67.506-41.224
					c-49.27-39.641-46.306-79.864-96.469-104.093c-6.834-3.301-28.514-13.773-35.487-6.547
					c-9.579,9.927,13.744,49.655,36.399,76.523c29.644,35.157,57.661,47.697,79.546,62.58
					c99.192,67.457,60.903,175.233,150.896,220.244c48.865,24.44,98.914,12.053,110.294,8.895
					C1456.172,3150.399,1494.193,3131.14,1492.329,3113.929z"/>
				
					<linearGradient id="SVGID_00000022561168291981981260000004525033203178909577_" gradientUnits="userSpaceOnUse" x1="1351.6495" y1="3026.4111" x2="1265.3708" y2="3313.7104">
					<stop  offset="0" style="stop-color:#FF9085"/>
					<stop  offset="1" style="stop-color:#FB6FBB"/>
				</linearGradient>
				<path style="fill:url(#SVGID_00000022561168291981981260000004525033203178909577_);" d="M1047.946,2782.682
					c-6.22,3.17-6.174,21.031-6.083,56.753c0.067,26.179,0.432,39.266,4.304,48.205c11.672,26.945,39.331,22.307,85.703,48.377
					c6.773,3.808,60.776,34.971,95.749,93.939c17.212,29.021,25.364,54.936,25.364,54.936c15.379,42.361,13.207,63.662,36.01,87.379
					c14.875,15.472,39.007,27.872,186.789,30.242c134.698,2.16,202.048,3.24,207.247-17.789
					c6.812-27.553-93.247-74.241-131.642-89.837c-38.492-15.635-57.738-23.453-80.052-19.568
					c-57.469,10.005-78.415,74.73-114.797,67.05c-10.449-2.206-15.509-8.979-33.817-32.586
					c-24.489-31.578-51.49-61.292-74.091-94.249c-35.45-51.692-63.57-87.118-100.172-133.23
					C1067.522,2780.341,1052.915,2780.15,1047.946,2782.682z"/>
			</g>
		</g>
	</g>
</g>
</svg>
