<?xml version="1.0" encoding="utf-8"?>
<!-- Generator: Adobe Illustrator 27.5.0, SVG Export Plug-In . SVG Version: 6.00 Build 0)  -->
<svg version="1.1" xmlns="http://www.w3.org/2000/svg" xmlns:xlink="http://www.w3.org/1999/xlink" x="0px" y="0px"
	 viewBox="0 0 500 500" style="enable-background:new 0 0 500 500;" xml:space="preserve">
<g id="BACKGROUND">
	
		<ellipse transform="matrix(0.7071 -0.7071 0.7071 0.7071 -108.3382 243.4929)" style="fill:#FFF3BD;" cx="239.753" cy="252.522" rx="201.768" ry="201.768"/>
</g>
<g id="OBJECTS">
	<g>
		<g>
			<defs>
				<rect id="SVGID_1_" x="97.669" y="118.588" width="292.655" height="380.827"/>
			</defs>
			<clipPath id="SVGID_00000018228054017166339940000001207989197872837527_">
				<use xlink:href="#SVGID_1_"  style="overflow:visible;"/>
			</clipPath>
			<path style="clip-path:url(#SVGID_00000018228054017166339940000001207989197872837527_);fill:#262347;" d="M331.408,606.455
				H149.338c-13.528,0-24.494-10.966-24.494-24.494V225.072c0-13.528,10.966-24.494,24.494-24.494h182.069
				c13.528,0,24.494,10.966,24.494,24.494v356.889C355.902,595.489,344.935,606.455,331.408,606.455z"/>
			<path style="clip-path:url(#SVGID_00000018228054017166339940000001207989197872837527_);fill:#FFFFFF;" d="M149.724,594.891
				c-7.13,0-12.93-5.8-12.93-12.93V225.071c0-7.129,5.8-12.929,12.93-12.929h182.069c7.129,0,12.929,5.8,12.929,12.929v356.889
				c0,7.13-5.8,12.93-12.929,12.93H149.724z"/>
		</g>
		<rect x="154.999" y="275.943" style="fill:#9FD0E0;" width="171.815" height="131.388"/>
		<path style="fill:#9FD0E0;" d="M323.781,427.035l-165.543-0.009c-1.99,0-3.603-1.613-3.603-3.603l0,0
			c0-1.99,1.613-3.603,3.603-3.603l165.543,0.009c1.99,0,3.603,1.613,3.603,3.603l0,0
			C327.384,425.422,325.771,427.035,323.781,427.035z"/>
		
			<ellipse transform="matrix(0.231 -0.973 0.973 0.231 -306.4699 509.0515)" style="fill:#9FD0E0;" cx="168.786" cy="448.395" rx="12.304" ry="12.304"/>
		
			<ellipse transform="matrix(0.7071 -0.7071 0.7071 0.7071 -291.4223 260.5377)" style="fill:#9FD0E0;" cx="168.786" cy="482.047" rx="12.304" ry="12.304"/>
		
			<ellipse transform="matrix(0.7071 -0.7071 0.7071 0.7071 -241.5756 313.5757)" style="fill:#9FD0E0;" cx="257.732" cy="448.395" rx="12.304" ry="12.304"/>
		
			<ellipse transform="matrix(0.2285 -0.9735 0.9735 0.2285 -270.4606 622.7859)" style="fill:#9FD0E0;" cx="257.732" cy="482.047" rx="12.304" ry="12.304"/>
		<path style="fill:#9FD0E0;" d="M230.974,452.283l-39.086-0.008c-1.99,0-3.603-1.613-3.603-3.603l0,0
			c0-1.99,1.613-3.603,3.603-3.603l39.086,0.008c1.99,0,3.603,1.613,3.603,3.603l0,0
			C234.578,450.669,232.964,452.283,230.974,452.283z"/>
		<path style="fill:#9FD0E0;" d="M323.012,452.283l-39.086-0.008c-1.99,0-3.603-1.613-3.603-3.603l0,0
			c0-1.99,1.613-3.603,3.603-3.603l39.086,0.008c1.99,0,3.603,1.613,3.603,3.603l0,0
			C326.615,450.669,325.002,452.283,323.012,452.283z"/>
		<path style="fill:#9FD0E0;" d="M230.974,486.052l-39.086-0.008c-1.99,0-3.603-1.613-3.603-3.603v0c0-1.99,1.613-3.603,3.603-3.603
			l39.086,0.008c1.99,0,3.603,1.613,3.603,3.603l0,0C234.578,484.439,232.964,486.052,230.974,486.052z"/>
		<path style="fill:#9FD0E0;" d="M323.012,486.052l-39.086-0.008c-1.99,0-3.603-1.613-3.603-3.603v0c0-1.99,1.613-3.603,3.603-3.603
			l39.086,0.008c1.99,0,3.603,1.613,3.603,3.603l0,0C326.615,484.439,325.002,486.052,323.012,486.052z"/>
	</g>
	<g>
		<path style="fill:#9FD0E0;" d="M424.45,247.277h-63.128c-20.163,0-36.507-16.345-36.507-36.507v0
			c0-20.163,16.345-36.507,36.507-36.507h63.128c20.163,0,36.507,16.345,36.507,36.507v0
			C460.957,230.932,444.612,247.277,424.45,247.277z"/>
		<polygon style="fill:#9FD0E0;" points="308.763,247.174 366.682,247.174 344.405,224.897 		"/>
		<path style="fill:#FFFFFF;" d="M435.329,203.239l-85.163-0.008c-1.99,0-3.603-1.613-3.603-3.603l0,0
			c0-1.99,1.613-3.603,3.603-3.603l85.163,0.008c1.99,0,3.603,1.613,3.603,3.603l0,0
			C438.932,201.626,437.319,203.239,435.329,203.239z"/>
		<path style="fill:#FFFFFF;" d="M435.329,222.354l-85.163-0.008c-1.99,0-3.603-1.613-3.603-3.603l0,0
			c0-1.99,1.613-3.603,3.603-3.603l85.163,0.008c1.99,0,3.603,1.613,3.603,3.603v0C438.932,220.741,437.319,222.354,435.329,222.354
			z"/>
	</g>
	<g>
		
			<line style="fill:none;stroke:#262347;stroke-linecap:round;stroke-miterlimit:10;" x1="346.113" y1="69.493" x2="346.113" y2="92.343"/>
		
			<line style="fill:none;stroke:#262347;stroke-linecap:round;stroke-miterlimit:10;" x1="357.376" y1="80.918" x2="334.526" y2="80.918"/>
		
			<line style="fill:none;stroke:#262347;stroke-linecap:round;stroke-miterlimit:10;" x1="397.087" y1="294.838" x2="397.087" y2="317.688"/>
		
			<line style="fill:none;stroke:#262347;stroke-linecap:round;stroke-miterlimit:10;" x1="408.35" y1="306.263" x2="385.5" y2="306.263"/>
		<circle style="fill:none;stroke:#262347;stroke-linecap:round;stroke-miterlimit:10;" cx="89.955" cy="393.546" r="6.158"/>
	</g>
	<g>
		<polygon style="fill:#39A0B0;" points="282.625,335.607 300.621,407.477 191.891,407.091 199.997,329.823 		"/>
		<path style="fill:#FF7B4F;" d="M128.609,175.553l-24.106-31.127c-3.378-4.362-3.593-10.395-0.532-14.986l2.012-3.018
			c3.512-5.268,10.34-7.19,16.084-4.528l15.459,7.164l13.454,8.668c1.115,0.718,1.971,1.774,2.443,3.013l4.697,12.329
			L128.609,175.553z"/>
		<path style="fill:#841E8F;" d="M201.159,340.635l80.622,2.843l-0.284-86.67c0-10.843-8.79-19.632-19.632-19.632l-35.248,0.123
			c-6.199,0.015-38.144-4.654-38.45,1.538L201.159,340.635z"/>
		<path style="fill:#FF7B4F;" d="M233.141,297.908v44.055h-32.92c-1.184,0-2.349-0.294-3.391-0.857l-14.586-7.876
			c-5.015-2.708-4.93-9.932,0.148-12.521l36.215-18.461l-0.045-14.078c0-2.845,2.307-5.152,5.152-5.152l0,0
			c2.159,0,4.087,1.342,4.833,3.368C230.149,290.734,232.785,297.767,233.141,297.908z"/>
		<path style="fill:#841E8F;" d="M276.982,244.269l46.667,49.343c5.39,5.461,8.447,12.803,8.525,20.476v0
			c0.171,16.791-13.653,30.356-30.437,29.868l-68.595-1.994L276.982,244.269z"/>
		<polygon style="fill:#841E8F;" points="227.828,237.646 158.12,153.068 128.609,175.553 214.293,292.402 		"/>
		<polygon style="fill:none;stroke:#262347;stroke-width:3;stroke-miterlimit:10;" points="123.73,162.984 154.044,181.991 
			184.357,200.998 123.73,200.998 63.103,200.998 93.417,181.991 		"/>
		<path style="fill:#39A0B0;" d="M204.1,209.79l-16.22,25.9l-15.71-8.38v98.38h-96.8v-98.38l-16.8,8.96
			c-4.2-8.65-9.51-19.63-13.31-27.58l47.19-28.52c0,0,3.28,6,11.72,10.93c12.06,7.05,27.14,7.05,39.2,0
			c8.44-4.93,11.72-10.93,11.72-10.93L204.1,209.79z"/>
		
			<line style="fill:none;stroke:#262347;stroke-width:3;stroke-miterlimit:10;" x1="123.73" y1="162.984" x2="123.66" y2="150.972"/>
		<path style="fill:none;stroke:#262347;stroke-width:3;stroke-linecap:round;stroke-miterlimit:10;" d="M135.851,138.771
			c0-6.608-5.357-11.965-11.965-11.965c-6.608,0-11.965,5.357-11.965,11.965c0,6.608,5.357,11.965,11.965,11.965"/>
		<path style="fill:#FF7B4F;" d="M131.938,127.891l-5.28,4.379c-1.939,1.608-2.654,4.262-1.785,6.626l0,0
			c0.997,2.715,3.803,4.318,6.648,3.799l20.763-3.833l-9.129-10.255C140.195,125.436,135.277,125.122,131.938,127.891z"/>
		<g>
			<path style="fill:#FF7B4F;" d="M256.178,200.556v37.939c0,2.56-0.728,4.936-1.983,6.952c-2.326,3.756-6.484,6.258-11.227,6.258
				h-2.183c-7.295,0-13.21-5.906-13.21-13.21v-37.939H256.178z"/>
			<path style="fill:#FF7B4F;" d="M312.628,153.719l-19.734,63.009c-4.078,14.027-18.935,21.916-32.84,17.437l-11.244-2.726
				c-23.528-4.666-22.17-31.372-21.647-38.345l-0.032,0.502l-4.298-1.108c-5.8-1.495-10.012-6.507-10.487-12.477l0,0
				c-0.558-7.018,5.744-12.626,12.649-11.256l8.664,1.718l11.326-27.722L312.628,153.719z"/>
			<path style="fill:#FFFFFF;" d="M253.346,199.872l19.466,13.394c0,0-7.034,7.265-15.555,3.391
				C247.797,212.357,253.346,199.872,253.346,199.872z"/>
			<path style="fill:#262347;" d="M328.479,154.72c-6.003,11.999-19.94,17.726-32.646,13.416l-40.609-13.776l-14.891,19.07
				c-3.056,3.213-8.197,3.158-11.183-0.12l-4.152-4.557l3.368-21.548c0.957-6.121,6.894-10.154,12.937-8.787l0,0l0,0
				c1.589-8.265,9.108-14.037,17.503-13.436l54.016,5.467C324.618,131.643,332.254,143.481,328.479,154.72L328.479,154.72z"/>
			<path style="fill:#262347;" d="M256.656,184.827c-0.748,2.293-0.171,4.538,1.288,5.014c1.459,0.476,3.248-0.997,3.996-3.29
				c0.748-2.293,0.171-4.538-1.288-5.014C259.193,181.061,257.404,182.534,256.656,184.827z"/>
			<path style="fill:#262347;" d="M283.951,195.419c-0.748,2.293-0.171,4.538,1.288,5.014c1.459,0.476,3.248-0.997,3.996-3.29
				c0.748-2.293,0.171-4.538-1.288-5.014C286.488,191.654,284.699,193.126,283.951,195.419z"/>
			<path style="fill:#262347;" d="M256.178,232.463v6.032c0,2.56-0.728,4.936-1.983,6.952l-17.2-25.44L256.178,232.463z"/>
			<path style="fill:none;stroke:#262347;stroke-linecap:round;stroke-miterlimit:10;" d="M220.544,182.147
				c0.245,0,7.032-1.308,7.032-1.308l-6.704-6.623"/>
			<path style="fill:none;stroke:#262347;stroke-linecap:round;stroke-miterlimit:10;" d="M277.219,185.548
				c-0.16,0.32-0.12,7.091-0.068,12.133c0.026,2.524-2.59,4.207-4.878,3.143l-0.571-0.265"/>
			<path style="fill:none;stroke:#262347;stroke-linecap:round;stroke-miterlimit:10;" d="M255.008,170.457
				c0,0,5.177-3.635,11.235-0.22"/>
			<path style="fill:none;stroke:#262347;stroke-linecap:round;stroke-miterlimit:10;" d="M290.807,179.82
				c0.33,0.33,4.296,1.873,5.177,6.719"/>
			<path style="fill:none;stroke:#FFFFFF;stroke-linecap:round;stroke-miterlimit:10;" d="M232.572,147.021
				c1.106-2.864,3.91-4.898,7.196-4.898"/>
			
				<line style="fill:none;stroke:#FFFFFF;stroke-linecap:round;stroke-miterlimit:10;" x1="266.533" y1="130.302" x2="298.051" y2="133.097"/>
			
				<ellipse transform="matrix(0.7071 -0.7071 0.7071 0.7071 -23.0474 196.2525)" style="fill:#262347;" cx="225.374" cy="125.947" rx="29.693" ry="29.693"/>
		</g>
		<polyline style="fill:none;stroke:#FFFFFF;stroke-linecap:round;stroke-miterlimit:10;" points="269.316,279.846 286.375,298.8 
			233.349,298.39 		"/>
		
			<line style="fill:none;stroke:#262347;stroke-linecap:round;stroke-miterlimit:10;" x1="183.877" y1="334.387" x2="212.103" y2="321.766"/>
		<path style="fill:none;stroke:#262347;stroke-linecap:round;stroke-miterlimit:10;" d="M193.665,339.558
			c0.411-0.137,21.086-9.174,21.086-9.174"/>
		<path style="fill:none;stroke:#262347;stroke-linecap:round;stroke-miterlimit:10;" d="M132.932,127.279l-6.979,6.452
			c-2.354,2.176-2.369,5.892-0.032,8.088l0,0c1.651,1.55,4.08,1.937,6.131,0.976l6.868-3.219c0,0-9.516,5.881-0.535,17.964"/>
		<polygon style="fill:#FFF3BD;" points="123.588,221.541 131.94,238.464 150.615,241.177 137.102,254.35 140.292,272.949 
			123.588,264.168 106.885,272.949 110.075,254.35 96.562,241.177 115.237,238.464 		"/>
		<path style="fill:none;stroke:#FFFFFF;stroke-linecap:round;stroke-miterlimit:10;" d="M202.009,125.753
			c0-12.555,10.178-22.734,22.733-22.734"/>
		
			<line style="fill:none;stroke:#262347;stroke-linecap:round;stroke-miterlimit:10;" x1="265.412" y1="407.4" x2="258.974" y2="361.446"/>
		
			<line style="fill:none;stroke:#262347;stroke-linecap:round;stroke-miterlimit:10;" x1="241.37" y1="369.779" x2="240.257" y2="407.4"/>
	</g>
</g>
</svg>
