<?xml version="1.0" encoding="utf-8"?>
<!-- Generator: Adobe Illustrator 27.5.0, SVG Export Plug-In . SVG Version: 6.00 Build 0)  -->
<svg version="1.1" xmlns="http://www.w3.org/2000/svg" xmlns:xlink="http://www.w3.org/1999/xlink" x="0px" y="0px"
	 viewBox="0 0 750 500" style="enable-background:new 0 0 750 500;" xml:space="preserve">
<g id="BACKGROUND">
	<rect y="0.042" style="fill:#FFFFFF;" width="750" height="500"/>
</g>
<g id="OBJECTS">
	<g>
		<g>
			<circle style="fill:#FFCD27;" cx="456.237" cy="201.084" r="59.511"/>
			
				<ellipse transform="matrix(0.7071 -0.7071 0.7071 0.7071 -100.7083 278.0576)" style="fill:#667CFF;" cx="285.291" cy="260.594" rx="16.936" ry="16.936"/>
			
				<ellipse transform="matrix(0.4719 -0.8817 0.8817 0.4719 -159.3175 437.2263)" style="fill:#FFCD27;" cx="285.291" cy="351.594" rx="40.049" ry="40.05"/>
			
				<ellipse transform="matrix(0.1593 -0.9872 0.9872 0.1593 313.7623 589.4664)" style="fill:#FF527B;" cx="503" cy="110.5" rx="16.936" ry="16.936"/>
			<path style="fill:#C2CBFF;" d="M556.919,112.001c0-7.225,5.857-13.081,13.081-13.081c7.224,0,13.081,5.857,13.081,13.081
				c0,7.224-5.857,13.081-13.081,13.081C562.775,125.082,556.919,119.225,556.919,112.001z"/>
			
				<ellipse transform="matrix(0.7071 -0.7071 0.7071 0.7071 -78.6438 247.138)" style="fill:#E6E9FF;" cx="259" cy="218.5" rx="7.567" ry="7.567"/>
			
				<ellipse transform="matrix(0.7071 -0.7071 0.7071 0.7071 -21.3057 193.5644)" style="fill:#667CFF;" cx="223" cy="122.5" rx="7.567" ry="7.567"/>
			<path style="fill:#314CEB;" d="M561.41,196.375c0-2.949,2.391-5.34,5.34-5.34s5.34,2.391,5.34,5.34c0,2.949-2.391,5.34-5.34,5.34
				S561.41,199.325,561.41,196.375z"/>
			<path style="fill:#667CFF;" d="M135.292,322.75c0-4.395,3.563-7.958,7.959-7.958c4.395,0,7.958,3.563,7.958,7.958
				c0,4.395-3.563,7.958-7.958,7.958C138.855,330.709,135.292,327.146,135.292,322.75z"/>
			
				<ellipse transform="matrix(0.1634 -0.9866 0.9866 0.1634 -92.9711 425.7194)" style="fill:#FF527B;" cx="204.532" cy="267.678" rx="35.151" ry="35.151"/>
			
				<ellipse transform="matrix(0.2491 -0.9685 0.9685 0.2491 51.1175 359.9293)" style="fill:#FFCD27;" cx="257.667" cy="147" rx="17.817" ry="17.817"/>
		</g>
		<g>
			<g>
				<g>
					<g>
						<g>
							<g>
								<path style="fill:#314CEB;" d="M312.41,428.297c-14.953,0-27.119-12.166-27.119-27.119V99.792
									c0-14.953,12.166-27.119,27.119-27.119h124.033c14.953,0,27.119,12.165,27.119,27.119v301.386
									c0,14.954-12.166,27.119-27.119,27.119H312.41z"/>
								<rect x="292.617" y="100.334" style="fill:#667CFF;" width="163.62" height="300.667"/>
								<path style="fill:#FF527B;" d="M456.25,341.007v-51.39c-13.899,0.346-25.061,11.713-25.061,25.695
									C431.188,329.294,442.351,340.661,456.25,341.007z"/>
								<path style="fill:#FFFFFF;" d="M292.668,154.079v146.269C332.228,299.364,364,267.01,364,227.214
									S332.228,155.064,292.668,154.079z"/>
								<rect x="292.617" y="352.75" style="fill:#FFFFFF;" width="163.62" height="48.25"/>
								<rect x="292.617" y="359.047" style="fill:#C2CBFF;" width="163.62" height="4.781"/>
								<rect x="292.617" y="359.047" style="fill:#FF527B;" width="101.046" height="4.781"/>
							</g>
							<g>
								<g>
									<path style="fill:#FF51C5;" d="M344.936,100.265c0-1.373,1.113-2.485,2.485-2.485s2.485,1.113,2.485,2.485
										c0,1.373-1.113,2.485-2.485,2.485S344.936,101.638,344.936,100.265z"/>
								</g>
								<g>
									<circle style="fill:#FF51C5;" cx="374.427" cy="89.282" r="1.327"/>
								</g>
								<path style="fill:#FF51C5;" d="M386.652,101.977h-24.45c-0.731,0-1.323-0.592-1.323-1.323l0,0
									c0-0.731,0.592-1.323,1.323-1.323h24.45c0.731,0,1.323,0.592,1.323,1.323l0,0
									C387.975,101.384,387.383,101.977,386.652,101.977z"/>
							</g>
						</g>
					</g>
					<path style="fill:#E6E9FF;" d="M471.087,455.131c0,5.808-43.276,10.516-96.66,10.516c-53.384,0-96.66-4.708-96.66-10.516
						c0-5.808,43.276-10.516,96.66-10.516C427.811,444.615,471.087,449.323,471.087,455.131z"/>
				</g>
			</g>
			<g>
				<path style="fill:#001642;" d="M414.296,164.164c-12.452,15.41-65.238,14.009-79.247,0c-17.655-17.655,0-99.873,0-99.873
					c0-21.883,17.74-39.623,39.623-39.623h0c21.883,0,39.623,17.74,39.623,39.623C414.296,64.29,429.989,144.743,414.296,164.164z"
					/>
				<path style="fill:#FFBE92;" d="M374.675,147.204c-0.6-0.553-5.736-2.674-4.994-1.573c1.046,1.552,3.067,4.022,5.179,3.843
					c2.125-0.18,3.972-2.742,4.827-4.474C380.249,143.86,375.074,146.933,374.675,147.204z"/>
				<path style="fill:#FFBC8F;" d="M453.418,191.221c-4.005-13.155-7.596-26.317-15.255-37.964
					c-0.347-0.528-0.691-1.225-1.176-1.645c-1.469-1.268-3.883-2.049-5.86-2.636c-1.779-0.528-3.581-0.979-5.411-1.289
					c-5.666-0.96-11.448-1.216-17.007-2.764c-0.065-0.018-0.13-0.037-0.195-0.055c-11.645-3.319-18.788-15.148-16.463-26.89
					c0,0-32.491,0-32.505,0c1.651,0.004,0.531,9.954,0.219,11.169c-1.944,7.564-8.591,13.613-15.996,15.722
					c-0.065,0.018-0.13,0.037-0.195,0.055c-5.559,1.548-11.341,1.804-17.007,2.764c-1.83,0.31-3.631,0.762-5.41,1.289
					c-1.977,0.586-4.391,1.367-5.86,2.636c-0.486,0.42-0.829,1.117-1.176,1.645c-7.476,11.371-12.073,24.847-14.688,38.113
					c-2.658,13.487-14.622,49.375-13.255,63.041c0.01,0.102,10.865,0.51,19.1,7.332c0.625-12.292,4.854-13.806,8.37-23.986
					c2.184-6.323,4.88-12.477,6.713-18.911c1.884-6.612,4.383-12.788,6.882-17.441c-0.125,0.977-0.544,2.574-0.81,3.579
					c-0.634,2.394-1.075,4.846-1.075,7.322c-0.002,17.598,16.915,24.021,13.977,45.984c-1.313,9.816-30.131,71.378-23.674,94.511
					c6.272,0.035,33.06-0.11,60.144-0.275c27.084,0.165,53.873,0.31,60.144,0.275c6.456-23.134-22.362-84.696-23.675-94.511
					c-3.139-23.471,16.395-29.195,13.726-49.774c-0.133-1.021-0.384-2.019-0.677-3.006c-0.508-1.708-1.404-6.15-1.404-6.15
					s18.248,59.974,34.582,82.141c8.234-6.822,20.901-16.757,20.833-16.833c-6.762-7.536-8.991-18.784-11.596-28.247
					c-4.033-14.65-9.306-28.914-13.777-43.429C453.778,192.402,453.598,191.812,453.418,191.221z"/>
				<path style="fill:#1C3AEB;" d="M335.808,269.5c-7.812,21.467-25.327,64.744-20.149,83.3c6.272,0.035,114.017,0.035,120.288,0
					c5.179-18.557-12.336-61.833-20.149-83.3H335.808z"/>
				<path style="fill:#0E2EEB;" d="M334.667,322c18.667,9.333,13.312,3.617,41.137,30.526C404.623,325.861,406,331,418,324
					c0,0-23.333,6-43,23.333C359,328.667,334.667,322,334.667,322z"/>
				<path style="fill:#FFA76B;" d="M359.765,129.147c-0.246,0.956-0.567,1.887-0.955,2.79c2.933,1.546,6.152,2.515,9.41,3.103
					c7.629,1.378,17.783,0.829,25.501-2.963c-1.959-4.301-2.639-9.206-1.67-14.098c0,0-32.491,0-32.505,0
					C361.198,117.982,360.078,127.932,359.765,129.147z"/>
				<g>
					<path style="fill:#FFBC8F;" d="M407.66,62.475h-31.887h-0.827h-31.887c0,0-0.707,33.177,6.389,46.491
						c6.663,12.502,20.363,18.668,25.498,19.208v0.04c0.128,0.004,0.267,0.002,0.414-0.005c0.147,0.007,0.286,0.009,0.414,0.005
						v-0.04c5.135-0.54,18.835-6.706,25.498-19.208C408.367,95.652,407.66,62.475,407.66,62.475z"/>
					<g>
						<g>
							<path style="fill:#412716;" d="M400.223,84.204c-2.296-0.939-4.239,0.23-6.414,0.971c-1.985,0.677-9.483,0.878-9.006-2.604
								c0.055-0.4-0.557-0.573-0.612-0.169c-0.108,0.786-0.383,1.386,0.103,1.983c0.796,0.979,3.564,1.565,4.705,1.766
								c1.088,0.191,2.201,0.223,3.29,0.061c0.018,0.018,0.031,0.037,0.055,0.052c0.336,0.212,0.507,0.515,0.562,0.904
								c0.057,0.403,0.669,0.232,0.612-0.169c-0.052-0.369-0.218-0.685-0.458-0.945c0.075-0.018,0.152-0.026,0.227-0.046
								c0.354-0.095,0.7-0.214,1.044-0.342c0.02,0.012,0.035,0.028,0.058,0.037c0.512,0.196,0.938,0.535,1.25,0.986
								c0.231,0.334,0.781,0.017,0.548-0.321c-0.292-0.422-0.652-0.753-1.075-1.004c0.278-0.111,0.555-0.22,0.832-0.324
								c0.005,0,0.009,0.003,0.014,0.003c0.039,0,0.071-0.01,0.102-0.021c0.876,0.212,1.657,0.61,2.33,1.216
								c0.303,0.273,0.754-0.175,0.449-0.449c-0.532-0.479-1.131-0.847-1.782-1.109c0.958-0.246,1.939-0.296,2.996,0.136
								C400.432,84.971,400.596,84.357,400.223,84.204z"/>
							<path style="fill:#412716;" d="M365.917,82.511c0.482,3.515-7.015,3.273-9.006,2.604c-2.185-0.734-4.108-1.915-6.414-0.971
								c-0.373,0.153-0.21,0.767,0.169,0.612c1.051-0.43,2.031-0.379,2.993-0.135c-0.649,0.262-1.247,0.63-1.778,1.108
								c-0.304,0.274,0.146,0.722,0.449,0.449c0.673-0.606,1.454-1.005,2.33-1.216c0.032,0.01,0.063,0.021,0.102,0.021
								c0.008,0,0.013-0.004,0.02-0.004c0.277,0.103,0.554,0.211,0.832,0.321c-0.426,0.252-0.788,0.584-1.081,1.008
								c-0.233,0.337,0.317,0.655,0.548,0.321c0.311-0.451,0.738-0.789,1.25-0.985c0.027-0.01,0.045-0.028,0.067-0.042
								c0.229,0.084,0.458,0.165,0.69,0.237c0.193,0.06,0.39,0.094,0.586,0.141c-0.247,0.262-0.417,0.583-0.471,0.96
								c-0.057,0.4,0.555,0.573,0.612,0.169c0.055-0.389,0.226-0.692,0.562-0.904c0.03-0.019,0.049-0.043,0.07-0.067
								c1.082,0.163,2.182,0.146,3.275-0.046c1.186-0.209,3.822-0.768,4.673-1.741c0.535-0.612,0.252-1.155,0.135-2.008
								C366.474,81.94,365.862,82.111,365.917,82.511z"/>
						</g>
						<g>
							<path style="fill:#FFA76B;" d="M378.691,98.523c-0.655-0.213-1.204-0.364-1.861-0.118c-0.432,0.162-0.754,0.574-1.157,0.783
								c-0.415,0.216-0.804,0.319-1.182,0.354c-0.378-0.035-0.767-0.138-1.182-0.354c-0.403-0.21-0.725-0.621-1.157-0.783
								c-0.657-0.247-1.207-0.095-1.861,0.118c-0.516,0.168-0.295,0.985,0.225,0.816c1.376-0.447,2.557,0.909,3.928,1.053
								c0.015,0.002,0.032,0,0.047,0.001c0.015-0.001,0.032,0,0.047-0.001c1.371-0.144,2.551-1.5,3.928-1.053
								C378.986,99.509,379.207,98.691,378.691,98.523z"/>
							<path style="fill:#FF527B;" d="M384.24,109.96c-2.111,0.834-3.98-0.208-5.595-1.533c-0.418-0.343-0.928-1.049-1.478-1.194
								c-0.476-0.125-0.678-0.098-1.096,0.192c-0.159,0.111-0.536,0.646-0.719,1.052c-0.171-0.398-0.517-0.921-0.705-1.052
								c-0.372-0.259-0.534-0.3-0.931-0.236c-0.605,0.098-1.216,0.885-1.642,1.237c-1.634,1.348-3.428,2.389-5.595,1.533
								c-0.507-0.2-0.727,0.618-0.225,0.816c0.865,0.342,1.722,0.432,2.571,0.301c0.049,0.079,0.126,0.132,0.234,0.149
								c1.636,2.443,3.114,5.099,6.301,5.099c3.245,0,4.714-2.748,6.388-5.229c0.01-0.014,0.01-0.028,0.017-0.042
								c0.892,0.162,1.791,0.082,2.701-0.277C384.966,110.578,384.748,109.759,384.24,109.96z"/>
						</g>
					</g>
				</g>
				<g>
					<path style="fill:#001642;" d="M411.708,70.075h-13.335l-0.424-4.887l-0.212,4.887h-43.822l-0.706-8.186l-0.998,8.186h-13.2
						V62.39c0-20.075,16.274-36.348,36.348-36.348l0,0c20.074,0,36.348,16.274,36.348,36.348V70.075z"/>
				</g>
				<path style="fill:#FFCD27;" d="M334.333,257c-0.817,6.108-23.667,52-20.333,58c12,26.333,82-13,119,4
					c7.667-19-15.516-56.558-16.333-62.667c-2.937-21.964,9.586-26.431,9.584-44.029c0-2.476-0.442-4.928-1.075-7.322
					c-0.129-0.489-0.234-0.973-0.327-1.454c0.047-0.051-4.375-20.595-6.371-29.8c-2.075-9.569-3.464-18.511-6.073-27.953
					c-0.126-0.454-5.512-2.357-5.737-1.942c-17.329,31.924-44.902,30.008-60.167-0.583c-0.211-0.422-7.048,2.071-7.173,2.525
					c-2.609,9.442-3.998,18.384-6.073,27.953c-1.991,9.181-3.982,18.362-5.974,27.542c0,0-0.583,2.708-0.849,3.712
					c-0.634,2.394-1.075,4.846-1.075,7.322C325.354,229.903,337.271,235.037,334.333,257z"/>
				<path style="fill:#FFBC8F;" d="M357.495,298.091c-1.015-1.305-2.441-2.192-3.652-3.291c-1.596-1.448-2.625-3.363-3.666-5.218
					c-1.004-1.79-2.146-3.492-3.192-5.255c-1.105-1.865-1.967-3.854-3.336-5.553c-0.248-0.307-0.511-0.6-0.78-0.887
					c1.194-0.732,2.553,0.057,3.576,0.738c0.794,0.529,1.534,1.014,2.484,1.209c0.894,0.182,1.827,0.143,2.716-0.036
					c0.818-0.163,1.813-0.405,2.447-0.981c0.485-0.439,0.816-1.123,0.718-1.787c-0.117-0.769-0.774-1.146-1.472-1.305
					c-1.124-0.253-2.314-0.106-3.401-0.545c-1.009-0.407-1.766-1.211-2.561-1.924c-0.799-0.718-1.646-1.232-2.662-1.594
					c-1.094-0.39-2.207-0.689-3.264-1.189c-1.065-0.503-2.086-1.109-3.178-1.565c-0.934-0.388-1.921-0.538-2.929-0.511
					c-1.024,0.029-2.035,0.22-3.049,0.357c-1.221,0.167-2.391,0.172-3.618,0.083c-1.099-0.078-2.203,0.111-3.236,0.486
					c-1.152,0.415-2.397,0.996-3.653,0.934c-0.552-0.027-7.591-8.899-11.917-14.418c-3.07-3.917-7.209-6.921-11.981-8.333
					c-5.232-1.547-11.053-1.299-11.856,6.95c1.044,18.863,30.674,30.417,33.746,32.164c3.847,2.188,5.136,5.78,8.046,8.8
					c0.744,0.773,1.508,1.549,2.313,2.255c0.105,0.092,0.258,0.182,0.342,0.289c0.122,0.155,0.174,0.393,0.247,0.584
					c0.258,0.676,0.516,1.353,0.773,2.029c0.234,0.609,0.468,1.222,0.701,1.834c0.206,0.541,0.362,1.199,0.688,1.683
					c0.24,0.354,0.631,0.515,1.005,0.682c0.535,0.24,1.07,0.476,1.613,0.697c1.003,0.405,2.038,0.753,3.109,0.925
					c1.172,0.187,2.318,0.075,3.488-0.059c1.262-0.142,2.528-0.224,3.798-0.241c0.057-0.001,0.083-0.039,0.087-0.082
					c1.716,0.648,3.419,1.335,5.105,2.063c0.062,0.027,0.112-0.006,0.133-0.056c0.066,0.08,0.131,0.159,0.191,0.242
					c0.359,0.491,0.616,1.072,1.064,1.494c0.796,0.749,2.1,0.38,2.551-0.546c0.691-1.422-0.171-2.685-0.967-3.848
					c-1.032-1.5-2.279-2.842-3.556-4.133c-1.395-1.41-2.955-2.685-4.239-4.199c-1.347-1.589-2.096-3.504-2.793-5.438
					c1.496,0.555,2.488,1.839,3.417,3.091c0.975,1.308,1.938,2.522,3.332,3.409c0.77,0.489,1.584,0.904,2.355,1.394
					c0.803,0.514,1.448,1.142,2.111,1.821c0.531,0.543,1.116,1.047,1.885,1.189c0.643,0.119,1.338-0.064,1.712-0.632
					C359.065,300.691,358.243,299.055,357.495,298.091z"/>
				<path style="fill:#FFA76B;" d="M333.985,298.112c-0.185,0.206,0.327,1.578,0.377,1.749c0.304,1.039,0.602,2.359,1.302,3.212
					c1.13,1.375,3.182,1.871,4.814,2.346c0.712,0.207,3.66,0.49,4.419,0.475c-1.229-0.462-2.466-0.907-3.711-1.325
					c-1.307-0.439-2.633-0.818-3.517-1.949c-0.186-0.237-0.346-0.49-0.499-0.749c-0.021-0.036-0.044-0.072-0.066-0.108
					c-0.141-0.246-0.275-0.496-0.408-0.746c-0.151-0.283-0.304-0.564-0.468-0.837c-0.016-0.027-0.034-0.054-0.051-0.081
					c-0.157-0.255-0.326-0.502-0.52-0.733c-0.005-0.006-0.011-0.011-0.016-0.017C335.521,299.346,334.308,297.753,333.985,298.112z"
					/>
				<path style="fill:#FFA76B;" d="M338.48,296.896c-0.315-0.355-0.875-1.609-1.373-1.663c-1.166-0.125,0.031,1.868,0.247,2.197
					c0.935,1.421,1.882,2.87,3.141,4.028c1.669,1.535,3.634,2.708,5.584,3.845c1.342,0.783,2.911,1.468,4.131,2.495
					c0.03,0.013,0.061,0.025,0.092,0.038c-0.208-0.224-0.434-0.436-0.665-0.641c-0.231-0.205-0.466-0.404-0.691-0.601
					c-0.301-0.264-0.595-0.537-0.886-0.814c-0.581-0.554-1.147-1.123-1.732-1.672c-0.292-0.275-0.589-0.544-0.894-0.804
					c-0.276-0.235-0.562-0.457-0.854-0.67c-0.584-0.426-1.195-0.815-1.81-1.197c-0.308-0.191-0.617-0.379-0.924-0.569
					c-0.698-0.43-1.213-0.961-1.688-1.579c-0.158-0.206-0.312-0.422-0.466-0.647c-0.156-0.227-0.314-0.46-0.471-0.696
					c-0.034-0.052-0.068-0.103-0.102-0.155c-0.168-0.257-0.329-0.518-0.474-0.786c-0.004-0.007-0.008-0.013-0.012-0.02
					C338.578,296.974,338.525,296.946,338.48,296.896z"/>
				<g>
					<g>
						<g>
							<path style="fill:#FF527B;" d="M409.277,75.303c-0.051-0.905-0.298-1.189-1.205-1.333c-1.333-0.212-2.668-0.415-4.008-0.575
								c-5.551-0.662-13.106-1.564-18.34,0.921c-0.693,0.329-1.363,0.713-2.022,1.107c-1.004,0.6-1.99,1.23-2.984,1.847
								c-0.034,0.021-0.078,0.032-0.106,0.059c-0.726,0.688-1.642,0.778-2.572,0.799c-0.92,0.021-1.84,0.039-2.76,0.057
								c-0.92,0.015-1.84,0.029-2.76,0.041c-0.93,0.012-1.848-0.045-2.598-0.707c-0.029-0.026-0.073-0.035-0.108-0.055
								c-1.015-0.581-2.023-1.176-3.048-1.74c-0.673-0.371-1.355-0.731-2.06-1.035c-5.319-2.298-12.837-1.13-18.361-0.272
								c-1.333,0.207-2.66,0.457-3.985,0.716c-0.902,0.176-1.138,0.469-1.157,1.375c-0.012,0.593,0.06,4.552,0.738,5.29
								c0.079,0.086,0.128,0.208,0.166,0.322c0.269,0.806,0.543,1.61,0.793,2.421c0.607,1.973,1.137,3.972,2.048,5.838
								c1.747,3.578,4.484,5.903,8.423,6.767c3.308,0.726,6.57,0.586,9.801-0.395c2.146-0.652,3.978-1.79,5.389-3.559
								c1.017-1.275,1.844-2.671,2.457-4.174c0.657-1.61,1.221-3.258,1.823-4.89c0.277-0.75,0.789-1.291,1.564-1.449
								c0.312-0.064,0.632-0.105,0.953-0.129c0.322,0.013,0.643,0.043,0.957,0.096c0.78,0.131,1.311,0.654,1.614,1.393
								c0.66,1.61,1.282,3.237,1.995,4.822c0.666,1.481,1.542,2.846,2.603,4.085c1.473,1.719,3.344,2.792,5.512,3.367
								c3.263,0.866,6.528,0.891,9.809,0.048c3.905-1.003,6.559-3.424,8.178-7.061c0.845-1.898,1.304-3.914,1.841-5.907
								c0.221-0.82,0.467-1.633,0.707-2.448c0.034-0.115,0.079-0.239,0.155-0.328C409.379,79.854,409.311,75.895,409.277,75.303z
								 M365.702,94.089c-0.466,0.34-1.004,0.58-1.488,0.898c-4.914,3.23-13.973,1.088-16.548-4.165
								c-1.576-3.216-3.549-8.65-1.388-11.963c1.75-2.682,5.272-2.987,8.299-3.134c3.528-0.17,7.116,0.415,10.39,1.749
								c1.178,0.48,2.291,1.076,3.312,1.85C372.957,82.872,369.601,91.251,365.702,94.089z M403.325,89.837
								c-2.388,5.341-11.366,7.802-16.391,4.748c-0.495-0.3-1.04-0.522-1.518-0.844c-3.997-2.699-7.647-10.954-3.096-14.665
								c0.992-0.809,2.084-1.444,3.244-1.966c3.224-1.449,6.789-2.161,10.321-2.115c3.03,0.039,6.561,0.219,8.405,2.838
								C406.567,81.067,404.787,86.568,403.325,89.837z"/>
						</g>
					</g>
				</g>
				<path style="fill:#001642;" d="M446.595,132.728c-8.503-5.794-14.945-14.044-19.46-23.225
					c-2.278-4.632-4.077-9.494-5.453-14.467c-1.375-4.969-2.271-10.055-3.642-15.025c-1.459-5.29-3.509-10.408-7.055-14.661
					c-0.265-0.318-0.718,0.139-0.454,0.454c6.996,8.389,5.504,20.936,8.366,31.06C421.56,106.29,427.652,119.683,446.595,132.728z"
					/>
				<path style="fill:#001642;" d="M306.808,178.174c7.599-6.937,12.811-16.014,15.984-25.741c1.601-4.907,2.695-9.975,3.354-15.092
					c0.659-5.113,0.828-10.275,1.483-15.389c0.698-5.443,2.004-10.799,4.913-15.511c0.218-0.352,0.73,0.036,0.514,0.386
					c-5.741,9.294-2.491,21.504-3.894,31.93C327.857,148.465,323.717,162.584,306.808,178.174z"/>
				<path style="fill:#001642;" d="M432.638,163.747c-6.092-5.561-10.271-12.838-12.815-20.637c-1.283-3.934-2.16-7.997-2.689-12.1
					c-0.529-4.099-0.664-8.238-1.189-12.337c-0.559-4.364-1.606-8.658-3.939-12.435c-0.174-0.282-0.585,0.029-0.412,0.309
					c4.602,7.451,1.997,17.24,3.122,25.599C415.763,139.929,419.082,151.248,432.638,163.747z"/>
				<path style="fill:#001642;" d="M429.696,156.069c-4.636-4.232-7.815-9.769-9.751-15.703c-0.977-2.993-1.644-6.085-2.046-9.207
					c-0.402-3.119-0.505-6.268-0.905-9.388c-0.426-3.32-1.222-6.588-2.997-9.462c-0.133-0.215-0.445,0.022-0.314,0.235
					c3.502,5.669,1.52,13.118,2.375,19.479C416.855,137.946,419.38,146.559,429.696,156.069z"/>
				<path style="fill:#001642;" d="M317.077,166.032c4.635-4.232,7.815-9.769,9.751-15.703c0.976-2.993,1.644-6.085,2.046-9.207
					c0.402-3.119,0.505-6.268,0.905-9.388c0.426-3.32,1.222-6.588,2.997-9.462c0.133-0.215,0.445,0.022,0.314,0.235
					c-3.502,5.669-1.52,13.118-2.376,19.479C329.917,147.909,327.392,156.521,317.077,166.032z"/>
				<path style="fill:#FFBC8F;" d="M570.792,210.773c-0.162-0.022-0.325-0.033-0.487-0.033c-0.394,0-0.83,0.063-1.33,0.19
					c-0.454,0.116-0.904,0.271-1.348,0.422c-0.381,0.13-0.758,0.259-1.128,0.362c-1.454,0.405-2.655,0.767-3.78,1.139
					c-2.1,0.693-4.271,1.482-6.249,2.568c-0.002-0.002-0.003-0.004-0.005-0.006c-1.893,1.042-3.776,2.106-5.557,3.346
					c-1.064,0.741-8.512,0.1-9.563,1.39c-1.49,1.831-3.475,3.679-4.412,5.868c-1.003,2.342-1.345,4.926-1.877,7.401
					c-0.122,0.57-0.277,1.13-0.374,1.704c-1.728,1.01-11.037,4.62-17.016,6.902c-4.65,1.775-57.905,13.083-60.665,17.224
					c-3.026,4.54-4.142,20.542,3.5,23.75c18.328,4.583,86.923-38.915,89.5-41.333c2.779-2.606,5.991-3.096,9.221-4.385l0.188-0.03
					c1-0.442,1.832-0.814,2.674-1.237l0.248-0.124c1.528-0.768,4.294-1.38,4.17-3.557c-0.333-5.833-7.774-11.318-7.792-11.354
					c-0.035-0.071,5.066-3.796,7.02-4.544c0.523-0.2,1.061-0.368,1.6-0.537c1.005-0.314,2.044-0.64,2.951-1.182
					c0.7-0.419,1.892-1.294,2-2.436C572.357,211.448,571.572,210.882,570.792,210.773z"/>
				<path style="fill:#FFA76B;" d="M549.992,226.755c3.018-0.11,5.758-2.379,5.401-4.185c-1.449,2.298-3.784,2.952-6.359,2.765
					c-0.835-0.061-1.605-0.273-2.431-0.035c-2.375,0.684-2.274,3.776-4.637,4.462c-1.173,0.341-0.851,1.596,0.335,1.251
					c1.172-0.341,2.152-0.813,2.909-1.809c0.532-0.699,0.665-1.251,1.118-1.713c-0.705,4.142,3.883,10.62,7.922,10.008
					c-3.854-0.909-6.97-7.153-5.831-10.803C548.91,226.702,549.408,226.776,549.992,226.755z"/>
			</g>
			<circle style="fill:#FFFFFF;" cx="309.333" cy="114.667" r="8"/>
			<g>
				<g>
					
						<ellipse transform="matrix(0.1602 -0.9871 0.9871 0.1602 -121.8029 626.6795)" style="fill:#C2CBFF;" cx="307.385" cy="384.921" rx="9" ry="9"/>
					
						<ellipse transform="matrix(0.1602 -0.9871 0.9871 0.1602 -121.8029 626.6796)" style="fill:#E6E9FF;" cx="307.385" cy="384.921" rx="5.878" ry="5.878"/>
					<g>
						<rect x="322.219" y="379.254" style="fill:#C2CBFF;" width="72.667" height="4.333"/>
						<rect x="322.219" y="386.254" style="fill:#E6E9FF;" width="58.917" height="2.167"/>
						<rect x="322.219" y="390.421" style="fill:#E6E9FF;" width="58.917" height="2.167"/>
					</g>
				</g>
				<g>
					<rect x="410.667" y="375.421" style="fill:#C2CBFF;" width="36" height="19"/>
					<polygon style="fill:#FFFFFF;" points="423.948,389.156 423.948,380.685 433.385,384.921 					"/>
				</g>
			</g>
		</g>
		<g>
			<g>
				<rect x="160.715" y="272.505" style="fill:#FFCD27;" width="22.561" height="15.231"/>
				<g>
					<g>
						<g>
							<g>
								<path style="fill:#FFCD27;" d="M141.521,280.81c0,0-39.788,22.634-39.785,38.408c0.001,8.294,23.074,23.836,23.074,23.836
									l6.973-4.868c-3.685-9.663-11.412-21.962-11.412-21.962l24.826-10.212C145.196,306.013,147.224,290.523,141.521,280.81z"/>
								<path style="fill:#FFC400;" d="M130.853,338.343c-2.897,1.259-6.456,0.763-9.375-0.157
									c-4.243-1.337-7.685-4.247-10.373-7.741c-3.293-4.28-5.76-9.873-5.816-15.342c-0.03-2.939,0.851-5.589,2.222-8.018
									c-3.482,4.168-5.777,8.348-5.776,12.134c0.001,8.294,23.074,23.836,23.074,23.836l6.973-4.868
									c-0.036-0.094-0.075-0.19-0.111-0.285C131.419,338.061,131.153,338.212,130.853,338.343z"/>
								<path style="fill:#FFC400;" d="M115.186,307.24l5.185,8.985l24.826-10.212C145.196,306.013,120.889,316.953,115.186,307.24z
									"/>
							</g>
							<g>
								<path style="fill:#FF75AD;" d="M124.81,343.055l6.973-4.868c0,0,2.308,1.469,2.308,4.029l-6.169,4.343
									C127.922,346.559,125.664,345.908,124.81,343.055z"/>
								<g>
									<path style="fill:#FF4774;" d="M125.158,342.812l-0.125,0.087c0.677,1.367,1.668,2.598,2.813,3.634
										c0.046,0.016,0.076,0.026,0.076,0.026l0.194-0.137C126.932,345.351,125.99,344.149,125.158,342.812z"/>
									<path style="fill:#FF4774;" d="M126.117,342.142c0.734,1.36,1.713,2.612,2.788,3.725l0.216-0.152
										c-1.079-1.135-2.004-2.365-2.875-3.662L126.117,342.142z"/>
									<path style="fill:#FF4774;" d="M127.21,341.38c0.781,1.336,1.72,2.596,2.702,3.779l0.206-0.145
										c-0.976-1.199-1.878-2.457-2.788-3.717L127.21,341.38z"/>
									<path style="fill:#FF4774;" d="M128.292,340.624c0.826,1.31,1.73,2.579,2.617,3.832l0.204-0.144
										c-0.873-1.263-1.753-2.548-2.7-3.773L128.292,340.624z"/>
									<path style="fill:#FF4774;" d="M129.376,339.867c0.87,1.285,1.739,2.563,2.527,3.889l0.206-0.145
										c-0.77-1.326-1.628-2.638-2.609-3.83L129.376,339.867z"/>
									<path style="fill:#FF4774;" d="M130.46,339.11c0.912,1.26,1.744,2.548,2.432,3.949l0.215-0.151
										c-0.668-1.387-1.495-2.735-2.508-3.895L130.46,339.11z"/>
									<path style="fill:#FF4774;" d="M134.089,342.169c-0.565-1.435-1.362-2.799-2.397-3.919l-0.146,0.102
										c0.954,1.236,1.747,2.534,2.332,4.013l0.213-0.15C134.091,342.2,134.089,342.185,134.089,342.169z"/>
								</g>
							</g>
						</g>
						<g>
							<g>
								<path style="fill:#FFCD27;" d="M202.45,280.81c0,0,39.788,22.634,39.785,38.408c-0.001,8.294-23.074,23.836-23.074,23.836
									l-6.973-4.868c3.685-9.663,11.413-21.962,11.413-21.962l-24.826-10.212C198.774,306.013,196.747,290.523,202.45,280.81z"/>
								<path style="fill:#FFC400;" d="M213.118,338.343c2.897,1.259,6.456,0.763,9.375-0.157c4.243-1.337,7.685-4.247,10.373-7.741
									c3.293-4.28,5.76-9.873,5.816-15.342c0.03-2.939-0.851-5.589-2.222-8.018c3.482,4.168,5.777,8.348,5.776,12.134
									c-0.001,8.294-23.074,23.836-23.074,23.836l-6.973-4.868c0.036-0.094,0.075-0.19,0.111-0.285
									C212.551,338.061,212.818,338.212,213.118,338.343z"/>
								<path style="fill:#FFC400;" d="M228.785,307.24l-5.185,8.985l-24.826-10.212
									C198.774,306.013,223.081,316.953,228.785,307.24z"/>
							</g>
							<g>
								<path style="fill:#FF75AD;" d="M219.161,343.055l-6.973-4.868c0,0-2.308,1.469-2.308,4.029l6.169,4.343
									C216.048,346.559,218.307,345.908,219.161,343.055z"/>
								<g>
									<path style="fill:#FF4774;" d="M218.813,342.812l0.125,0.087c-0.677,1.367-1.668,2.598-2.813,3.634
										c-0.046,0.016-0.076,0.026-0.076,0.026l-0.194-0.137C217.038,345.351,217.981,344.149,218.813,342.812z"/>
									<path style="fill:#FF4774;" d="M217.854,342.142c-0.734,1.36-1.713,2.612-2.788,3.725l-0.216-0.152
										c1.079-1.135,2.003-2.365,2.875-3.662L217.854,342.142z"/>
									<path style="fill:#FF4774;" d="M216.761,341.38c-0.781,1.336-1.72,2.596-2.702,3.779l-0.206-0.145
										c0.976-1.199,1.878-2.457,2.788-3.717L216.761,341.38z"/>
									<path style="fill:#FF4774;" d="M215.679,340.624c-0.826,1.31-1.73,2.579-2.617,3.832l-0.204-0.144
										c0.873-1.263,1.753-2.548,2.7-3.773L215.679,340.624z"/>
									<path style="fill:#FF4774;" d="M214.595,339.867c-0.87,1.285-1.739,2.563-2.527,3.889l-0.206-0.145
										c0.77-1.326,1.628-2.638,2.609-3.83L214.595,339.867z"/>
									<path style="fill:#FF4774;" d="M213.51,339.11c-0.912,1.26-1.744,2.548-2.432,3.949l-0.215-0.151
										c0.668-1.387,1.495-2.735,2.508-3.895L213.51,339.11z"/>
									<path style="fill:#FF4774;" d="M209.882,342.169c0.565-1.435,1.361-2.799,2.397-3.919l0.146,0.102
										c-0.954,1.236-1.747,2.534-2.332,4.013l-0.213-0.15C209.88,342.2,209.882,342.185,209.882,342.169z"/>
								</g>
							</g>
						</g>
					</g>
					<g>
						<g>
							<path style="fill:#FF75AD;" d="M202.42,280.81c-6.845-1.964-12.918-5.034-19.194-8.305
								c-0.338-0.176,0.322,8.043-11.255,8.224c-11.577-0.181-10.917-8.4-11.255-8.224c-6.277,3.271-12.349,6.342-19.194,8.305
								c-0.152,0.044,6.047,58.943,2.126,73.028c-0.181,0.65,19.019,3.622,28.323,3.549c9.304,0.073,28.554-2.915,28.323-3.549
								C196.079,342.271,202.572,280.854,202.42,280.81z"/>
						</g>
						<g>
							<path style="fill:#FF4774;" d="M156.819,274.51c0,0-0.459,10.874,15.151,11.118c15.611-0.244,15.22-11.083,15.22-11.083
								l-3.965-2.04c-0.338-0.176,0.322,8.043-11.255,8.224c-11.577-0.181-10.917-8.4-11.255-8.224L156.819,274.51z"/>
							<g>
								<path style="fill:#FF75AD;" d="M160.94,273.46c-1.397,0.61-2.756,1.298-4.056,2.088c0.017,0.134,0.04,0.282,0.067,0.437
									c1.332-0.748,2.691-1.432,4.1-2.033C161.006,273.776,160.97,273.611,160.94,273.46z"/>
								<path style="fill:#FF75AD;" d="M161.392,275.029c-1.367,0.882-2.679,1.844-3.903,2.912c0.049,0.128,0.104,0.258,0.16,0.389
									c1.263-1.017,2.571-1.96,3.944-2.829C161.52,275.341,161.451,275.183,161.392,275.029z"/>
								<path style="fill:#FF75AD;" d="M162.412,276.892c-0.104-0.14-0.201-0.281-0.291-0.422c-1.25,1.126-2.43,2.326-3.497,3.624
									c0.077,0.112,0.155,0.223,0.239,0.335C159.978,279.181,161.154,278.002,162.412,276.892z"/>
								<path style="fill:#FF75AD;" d="M163.11,277.706c-1.07,1.326-2.056,2.715-2.914,4.183c0.099,0.09,0.203,0.179,0.308,0.268
									c0.912-1.424,1.886-2.797,2.967-4.106C163.344,277.938,163.225,277.823,163.11,277.706z"/>
								<path style="fill:#FF75AD;" d="M164.296,278.704c-0.847,1.472-1.6,2.993-2.22,4.57c0.117,0.07,0.237,0.138,0.36,0.206
									c0.675-1.544,1.42-3.047,2.283-4.505C164.573,278.886,164.43,278.797,164.296,278.704z"/>
								<path style="fill:#FF75AD;" d="M164.131,284.269c0.13,0.051,0.263,0.101,0.398,0.15c0.421-1.614,0.921-3.199,1.543-4.759
									c-0.16-0.066-0.312-0.137-0.462-0.208C165.009,281.025,164.502,282.63,164.131,284.269z"/>
								<path style="fill:#FF75AD;" d="M166.273,284.942c0.141,0.035,0.279,0.072,0.424,0.104c0.162-1.647,0.408-3.279,0.778-4.907
									c-0.169-0.047-0.328-0.098-0.488-0.149C166.64,281.626,166.388,283.278,166.273,284.942z"/>
								<path style="fill:#FF75AD;" d="M168.899,280.455c-0.173-0.03-0.341-0.063-0.506-0.097c-0.083,1.67-0.075,3.342,0.072,5.003
									c0.146,0.021,0.293,0.041,0.443,0.059C168.805,283.77,168.791,282.121,168.899,280.455z"/>
								<path style="fill:#FF75AD;" d="M182.938,273.748c-0.034,0.151-0.075,0.311-0.123,0.48c1.427,0.641,2.804,1.369,4.16,2.156
									c0.03-0.136,0.055-0.266,0.077-0.391C185.74,275.142,184.362,274.4,182.938,273.748z"/>
								<path style="fill:#FF75AD;" d="M182.182,275.839c1.376,0.904,2.677,1.9,3.949,2.951c0.057-0.116,0.115-0.232,0.166-0.345
									c-1.217-1.12-2.526-2.13-3.901-3.05C182.332,275.54,182.26,275.689,182.182,275.839z"/>
								<path style="fill:#FF75AD;" d="M181.546,276.87c-0.096,0.13-0.198,0.26-0.306,0.389c1.247,1.136,2.404,2.351,3.517,3.622
									c0.082-0.097,0.163-0.195,0.24-0.292C183.951,279.256,182.788,278.023,181.546,276.87z"/>
								<path style="fill:#FF75AD;" d="M180.044,278.408c1.064,1.323,2.026,2.709,2.93,4.146c0.104-0.078,0.202-0.157,0.301-0.236
									c-0.834-1.484-1.798-2.887-2.852-4.226C180.302,278.199,180.177,278.304,180.044,278.408z"/>
								<path style="fill:#FF75AD;" d="M178.686,279.276c0.847,1.463,1.581,2.969,2.246,4.518c0.124-0.06,0.236-0.125,0.355-0.187
									c-0.598-1.577-1.336-3.097-2.165-4.569C178.982,279.12,178.835,279.199,178.686,279.276z"/>
								<path style="fill:#FF75AD;" d="M177.252,279.896c0.607,1.556,1.093,3.137,1.505,4.746c0.131-0.041,0.269-0.078,0.396-0.122
									c-0.354-1.634-0.844-3.235-1.433-4.804C177.567,279.778,177.415,279.839,177.252,279.896z"/>
								<path style="fill:#FF75AD;" d="M175.792,280.309c0.359,1.618,0.596,3.241,0.752,4.878c0.14-0.026,0.284-0.05,0.421-0.079
									c-0.105-1.654-0.345-3.297-0.682-4.923C176.122,280.228,175.962,280.271,175.792,280.309z"/>
								<path style="fill:#FF75AD;" d="M174.336,280.559c0.103,1.656,0.084,3.297-0.02,4.938c0.145-0.014,0.296-0.023,0.438-0.039
									c0.151-1.649,0.166-3.31,0.088-4.969C174.678,280.516,174.506,280.537,174.336,280.559z"/>
								<path style="fill:#FF75AD;" d="M170.909,280.688c-0.175-0.011-0.339-0.029-0.508-0.044c-0.06,1.647-0.029,3.294,0.135,4.929
									c0.142,0.009,0.294,0.01,0.439,0.017C170.857,283.962,170.824,282.334,170.909,280.688z"/>
								<path style="fill:#FF75AD;" d="M172.489,285.609c0.131-0.004,0.261-0.009,0.39-0.015c0.045-1.634,0.047-3.27,0.042-4.902
									c-0.154,0.009-0.316,0.012-0.474,0.018C172.442,282.341,172.444,283.976,172.489,285.609z"/>
							</g>
						</g>
						<g>
							<g>
								<path style="fill:#FF4774;" d="M199.656,351.834c-0.015-0.031-55.469-0.033-55.48,0c-1.567,4.581-0.969,7.964-0.824,7.933
									c0.023,0.004,57.105,0.004,57.128,0C200.625,359.798,201.172,355.028,199.656,351.834z"/>
							</g>
							<g>
								<path style="fill:#FF75AD;" d="M144.564,351.829c-0.199,2.608-0.24,5.333-0.082,7.938c0.1,0,0.2,0,0.312,0
									c0.159-2.605,0.117-5.33-0.082-7.939C144.661,351.829,144.609,351.829,144.564,351.829z"/>
								<path style="fill:#FF75AD;" d="M146.431,351.824c-0.199,2.61-0.241,5.337-0.082,7.945c0.101,0,0.207,0,0.312,0
									c0.159-2.607,0.117-5.335-0.082-7.945C146.527,351.823,146.481,351.823,146.431,351.824z"/>
								<path style="fill:#FF75AD;" d="M148.297,351.82c-0.2,2.611-0.241,5.34-0.082,7.948c0.104,0,0.206,0,0.312,0
									c0.159-2.608,0.117-5.337-0.082-7.948C148.394,351.82,148.347,351.82,148.297,351.82z"/>
								<path style="fill:#FF75AD;" d="M150.163,351.818c-0.199,2.612-0.242,5.341-0.082,7.951c0.105,0,0.206,0,0.312,0
									c0.159-2.609,0.117-5.339-0.082-7.951C150.262,351.818,150.211,351.818,150.163,351.818z"/>
								<path style="fill:#FF75AD;" d="M152.029,351.816c-0.2,2.612-0.242,5.342-0.082,7.953c0.105,0,0.206,0,0.312,0
									c0.159-2.61,0.117-5.34-0.083-7.953C152.128,351.816,152.078,351.816,152.029,351.816z"/>
								<path style="fill:#FF75AD;" d="M153.896,351.815c-0.2,2.613-0.242,5.344-0.083,7.954c0.104,0,0.207,0,0.312,0
									c0.159-2.61,0.117-5.341-0.083-7.954C153.994,351.815,153.944,351.815,153.896,351.815z"/>
								<path style="fill:#FF75AD;" d="M155.762,351.814c-0.2,2.613-0.242,5.344-0.083,7.955c0.103,0,0.208,0,0.312,0
									c0.159-2.611,0.117-5.342-0.083-7.955C155.859,351.814,155.811,351.814,155.762,351.814z"/>
								<path style="fill:#FF75AD;" d="M157.628,351.813c-0.2,2.614-0.242,5.345-0.083,7.956c0.104,0,0.207,0,0.312,0
									c0.159-2.611,0.117-5.342-0.083-7.957C157.726,351.813,157.677,351.813,157.628,351.813z"/>
								<path style="fill:#FF75AD;" d="M159.494,351.812c-0.2,2.614-0.242,5.346-0.083,7.957c0.104,0,0.208,0,0.312,0
									c0.159-2.611,0.117-5.343-0.083-7.957C159.592,351.812,159.543,351.812,159.494,351.812z"/>
								<path style="fill:#FF75AD;" d="M161.36,351.812c-0.2,2.614-0.242,5.346-0.083,7.958c0.104,0,0.208,0,0.312,0
									c0.159-2.612,0.117-5.344-0.083-7.958C161.458,351.811,161.409,351.812,161.36,351.812z"/>
								<path style="fill:#FF75AD;" d="M163.227,351.811c-0.2,2.614-0.242,5.347-0.083,7.959c0.104,0,0.208,0,0.312,0
									c0.159-2.612,0.117-5.344-0.083-7.959C163.324,351.811,163.275,351.811,163.227,351.811z"/>
								<path style="fill:#FF75AD;" d="M165.093,351.811c-0.2,2.614-0.242,5.347-0.083,7.959c0.104,0,0.208,0,0.312,0
									c0.159-2.612,0.117-5.344-0.083-7.959C165.19,351.811,165.142,351.811,165.093,351.811z"/>
								<path style="fill:#FF75AD;" d="M166.959,351.81c-0.2,2.614-0.242,5.347-0.083,7.959c0.104,0,0.208,0,0.312,0
									c0.159-2.612,0.117-5.344-0.083-7.959C167.057,351.81,167.008,351.81,166.959,351.81z"/>
								<path style="fill:#FF75AD;" d="M168.825,351.81c-0.2,2.614-0.242,5.347-0.083,7.96c0.104,0,0.208,0,0.312,0
									c0.159-2.612,0.117-5.345-0.083-7.96C168.923,351.81,168.874,351.81,168.825,351.81z"/>
								<path style="fill:#FF75AD;" d="M170.691,351.81c-0.2,2.615-0.242,5.347-0.083,7.96c0.104,0,0.208,0,0.312,0
									c0.159-2.612,0.117-5.345-0.083-7.96C170.789,351.81,170.74,351.81,170.691,351.81z"/>
								<path style="fill:#FF75AD;" d="M172.557,351.81c-0.2,2.615-0.242,5.347-0.083,7.96c0.104,0,0.208,0,0.312,0
									c0.159-2.612,0.117-5.345-0.083-7.96C172.655,351.81,172.606,351.81,172.557,351.81z"/>
								<path style="fill:#FF75AD;" d="M174.423,351.81c-0.2,2.614-0.242,5.347-0.083,7.96c0.104,0,0.208,0,0.312,0
									c0.159-2.612,0.117-5.345-0.083-7.96C174.521,351.81,174.472,351.81,174.423,351.81z"/>
								<path style="fill:#FF75AD;" d="M176.289,351.81c-0.2,2.614-0.242,5.347-0.083,7.959c0.104,0,0.208,0,0.312,0
									c0.159-2.612,0.117-5.344-0.083-7.959C176.387,351.81,176.338,351.81,176.289,351.81z"/>
								<path style="fill:#FF75AD;" d="M178.155,351.811c-0.2,2.614-0.242,5.347-0.083,7.959c0.104,0,0.209,0,0.312,0
									c0.159-2.612,0.117-5.344-0.083-7.959C178.253,351.811,178.204,351.811,178.155,351.811z"/>
								<path style="fill:#FF75AD;" d="M180.021,351.811c-0.2,2.614-0.242,5.346-0.083,7.959c0.105,0,0.208,0,0.312,0
									c0.159-2.612,0.117-5.344-0.083-7.959C180.119,351.811,180.07,351.811,180.021,351.811z"/>
								<path style="fill:#FF75AD;" d="M181.887,351.812c-0.2,2.614-0.242,5.346-0.083,7.958c0.104,0,0.209,0,0.312,0
									c0.159-2.612,0.117-5.344-0.083-7.958C181.986,351.812,181.936,351.812,181.887,351.812z"/>
								<path style="fill:#FF75AD;" d="M183.753,351.812c-0.2,2.614-0.242,5.346-0.083,7.957c0.105,0,0.208,0,0.312,0
									c0.159-2.611,0.117-5.343-0.083-7.957C183.851,351.812,183.803,351.812,183.753,351.812z"/>
								<path style="fill:#FF75AD;" d="M185.62,351.813c-0.2,2.613-0.242,5.345-0.083,7.956c0.104,0,0.209,0,0.312,0
									c0.159-2.611,0.117-5.342-0.083-7.956C185.717,351.813,185.669,351.813,185.62,351.813z"/>
								<path style="fill:#FF75AD;" d="M187.486,351.814c-0.2,2.613-0.242,5.344-0.083,7.955c0.105,0,0.208,0,0.312,0
									c0.159-2.611,0.117-5.342-0.083-7.955C187.584,351.814,187.535,351.814,187.486,351.814z"/>
								<path style="fill:#FF75AD;" d="M189.352,351.815c-0.2,2.613-0.242,5.344-0.083,7.954c0.104,0,0.209,0,0.312,0
									c0.159-2.61,0.117-5.341-0.083-7.954C189.45,351.815,189.401,351.815,189.352,351.815z"/>
								<path style="fill:#FF75AD;" d="M191.218,351.816c-0.2,2.612-0.242,5.342-0.082,7.953c0.104,0,0.21,0,0.312,0
									c0.159-2.61,0.117-5.34-0.082-7.952C191.316,351.817,191.267,351.816,191.218,351.816z"/>
								<path style="fill:#FF75AD;" d="M193.084,351.818c-0.2,2.612-0.242,5.341-0.082,7.951c0.104,0,0.21,0,0.312,0
									c0.159-2.609,0.117-5.338-0.082-7.951C193.182,351.818,193.133,351.818,193.084,351.818z"/>
								<path style="fill:#FF75AD;" d="M194.95,351.82c-0.2,2.611-0.241,5.34-0.082,7.949c0.104,0,0.211,0,0.312,0
									c0.159-2.609,0.117-5.337-0.082-7.948C195.049,351.82,194.999,351.82,194.95,351.82z"/>
								<path style="fill:#FF75AD;" d="M196.816,351.823c-0.199,2.61-0.241,5.338-0.082,7.945c0.108,0,0.208,0,0.312,0
									c0.159-2.607,0.117-5.335-0.082-7.945C196.914,351.823,196.866,351.823,196.816,351.823z"/>
								<path style="fill:#FF75AD;" d="M198.83,351.828c-0.05,0-0.094,0-0.149-0.001c-0.199,2.609-0.241,5.335-0.082,7.941
									c0.111,0,0.211,0,0.312,0C199.071,357.162,199.029,354.437,198.83,351.828z"/>
							</g>
						</g>
					</g>
				</g>
			</g>
			<g>
				<g>
					
						<ellipse transform="matrix(0.9239 -0.3827 0.3827 0.9239 -137.0043 71.9784)" style="fill:#C2CBFF;" cx="112.428" cy="380.374" rx="8.229" ry="8.229"/>
					<circle style="fill:#E6E9FF;" cx="112.428" cy="380.374" r="5.374"/>
					<g>
						<rect x="125.99" y="375.193" style="fill:#C2CBFF;" width="66.438" height="3.962"/>
						<rect x="125.99" y="381.593" style="fill:#E6E9FF;" width="53.867" height="1.981"/>
						<rect x="125.99" y="385.402" style="fill:#E6E9FF;" width="53.867" height="1.981"/>
					</g>
				</g>
				<g>
					<rect x="206.857" y="371.688" style="fill:#C2CBFF;" width="32.914" height="17.371"/>
					<polygon style="fill:#FFFFFF;" points="219,384.246 219,376.501 227.628,380.374 					"/>
				</g>
			</g>
		</g>
		<g>
			<g>
				<path style="fill:#424496;" d="M665.832,166.483c-0.68-4.959-14.074-6.69-22.043-7.352c0.71,1.123,1.781,7.79,2.073,9.916
					C658.242,168.362,665.797,166.435,665.832,166.483z"/>
				<path style="fill:#5C5C5F;" d="M614.716,148.801c0.604,0,1.094-0.49,1.094-1.093c0-0.603-0.49-1.093-1.094-1.093
					c-0.603,0-1.093,0.49-1.093,1.093C613.623,148.311,614.113,148.801,614.716,148.801z"/>
				<path style="fill:#5C5C5F;" d="M621.336,152.081c0.603,0,1.093-0.49,1.093-1.093c0-0.603-0.49-1.093-1.093-1.093
					c-0.603,0-1.094,0.49-1.094,1.093C620.242,151.591,620.733,152.081,621.336,152.081z"/>
				<path style="fill:#5C5C5F;" d="M634.577,158.642c0.603,0,1.094-0.49,1.094-1.094c0-0.603-0.49-1.093-1.094-1.093
					c-0.603,0-1.093,0.49-1.093,1.093C633.483,158.151,633.974,158.642,634.577,158.642z"/>
				<path style="fill:#5C5C5F;" d="M627.956,155.361c0.603,0,1.093-0.49,1.093-1.093s-0.49-1.093-1.093-1.093
					c-0.603,0-1.094,0.49-1.094,1.093S627.353,155.361,627.956,155.361z"/>
				<path style="fill:#5C5C5F;" d="M608.095,145.521c0.603,0,1.093-0.49,1.093-1.093c0-0.603-0.49-1.093-1.093-1.093
					c-0.603,0-1.093,0.49-1.093,1.093C607.002,145.031,607.492,145.521,608.095,145.521z"/>
				<path style="fill:#FF527B;" d="M637.207,169.287c3.093,0,5.984-0.091,8.655-0.239c-0.292-2.126-1.363-8.794-2.073-9.916
					c-0.02-0.032-0.041-0.08-0.061-0.103c-0.669-0.778-37.626-24.07-38.776-25.166c-2.202-2.1-7.168-6.35-8.466-6.314
					c-1.263,0.035-5.541,4.194-6.259,5.427c-0.477,0.82-0.67,1.651-0.202,2.613c-2.036,9.112-13.465,12.277-18.86,12.831
					c-4.899,0.503-10.52,0.243-14.419-3.16c-1.163-1.015-2.192-2.201-3.652-2.838c-2.052-0.895-3.192,0.998-3.67,2.73
					c-0.477,1.726-0.469,3.459-0.434,5.23c0.002,0.134-4.385,13.452-2.76,19.224v-0.32H637.207z M634.577,155.361
					c1.206,0,2.187,0.981,2.187,2.187c0,1.206-0.981,2.187-2.187,2.187c-1.205,0-2.187-0.981-2.187-2.187
					C632.39,156.343,633.371,155.361,634.577,155.361z M627.956,152.081c1.205,0,2.187,0.981,2.187,2.187
					c0,1.205-0.981,2.187-2.187,2.187c-1.206,0-2.187-0.981-2.187-2.187C625.769,153.063,626.75,152.081,627.956,152.081z
					 M621.336,148.801c1.205,0,2.187,0.981,2.187,2.187c0,1.206-0.981,2.187-2.187,2.187c-1.206,0-2.187-0.981-2.187-2.187
					C619.149,149.783,620.13,148.801,621.336,148.801z M614.716,145.521c1.206,0,2.187,0.981,2.187,2.187
					c0,1.206-0.981,2.187-2.187,2.187c-1.205,0-2.187-0.981-2.187-2.187C612.529,146.502,613.51,145.521,614.716,145.521z
					 M608.095,142.241c1.205,0,2.187,0.981,2.187,2.187c0,1.205-0.982,2.187-2.187,2.187c-1.205,0-2.187-0.981-2.187-2.187
					C605.908,143.222,606.89,142.241,608.095,142.241z M601.475,138.961c1.205,0,2.187,0.981,2.187,2.187
					c0,1.206-0.981,2.187-2.187,2.187c-1.206,0-2.187-0.981-2.187-2.187C599.288,139.942,600.27,138.961,601.475,138.961z"/>
				<path style="fill:#5C5C5F;" d="M601.475,142.241c0.603,0,1.093-0.49,1.093-1.093c0-0.603-0.49-1.093-1.093-1.093
					c-0.603,0-1.093,0.49-1.093,1.093C600.382,141.751,600.872,142.241,601.475,142.241z"/>
				<path style="fill:#EEF0F1;" d="M637.207,169.287h-90.977v0.32v4.424c0,0.529,0,0.949,0,1.284h90.977V169.287z"/>
				<path style="fill:#EEF0F1;" d="M546.231,176.531c0,2.051,1.702,3.714,3.802,3.714h87.174v-3.714H546.231z"/>
				<path style="fill:#424496;" d="M637.207,175.315h-90.977c0,0.965,0,1.216,0,1.216h90.977V175.315z"/>
				<path style="fill:#EEF0F1;" d="M665.832,166.483c-0.035-0.049-7.591,1.879-19.97,2.564c-2.671,0.148-5.562,0.239-8.655,0.239
					v6.028v1.216v3.714c5.4,0.166,21.467-0.212,24.484-1.65C667.239,176.069,666.371,167.228,665.832,166.483z"/>
				<path style="fill:#FFFFFF;" d="M601.475,143.335c1.205,0,2.187-0.981,2.187-2.187c0-1.205-0.981-2.187-2.187-2.187
					c-1.206,0-2.187,0.981-2.187,2.187C599.288,142.353,600.27,143.335,601.475,143.335z M601.475,140.054
					c0.603,0,1.093,0.49,1.093,1.093c0,0.603-0.49,1.093-1.093,1.093c-0.603,0-1.093-0.49-1.093-1.093
					C600.382,140.545,600.872,140.054,601.475,140.054z"/>
				<path style="fill:#FFFFFF;" d="M608.095,146.615c1.205,0,2.187-0.981,2.187-2.187c0-1.206-0.982-2.187-2.187-2.187
					c-1.205,0-2.187,0.981-2.187,2.187C605.908,145.633,606.89,146.615,608.095,146.615z M608.095,143.335
					c0.603,0,1.093,0.49,1.093,1.093c0,0.603-0.49,1.093-1.093,1.093c-0.603,0-1.093-0.49-1.093-1.093
					C607.002,143.825,607.492,143.335,608.095,143.335z"/>
				<path style="fill:#FFFFFF;" d="M614.716,149.895c1.206,0,2.187-0.981,2.187-2.187c0-1.205-0.981-2.187-2.187-2.187
					c-1.205,0-2.187,0.981-2.187,2.187C612.529,148.913,613.51,149.895,614.716,149.895z M614.716,146.615
					c0.604,0,1.094,0.49,1.094,1.093c0,0.603-0.49,1.093-1.094,1.093c-0.603,0-1.093-0.49-1.093-1.093
					C613.623,147.105,614.113,146.615,614.716,146.615z"/>
				<path style="fill:#FFFFFF;" d="M621.336,153.175c1.205,0,2.187-0.981,2.187-2.187c0-1.205-0.981-2.187-2.187-2.187
					c-1.206,0-2.187,0.981-2.187,2.187C619.149,152.194,620.13,153.175,621.336,153.175z M621.336,149.895
					c0.603,0,1.093,0.49,1.093,1.093c0,0.603-0.49,1.093-1.093,1.093c-0.603,0-1.094-0.49-1.094-1.093
					C620.242,150.385,620.733,149.895,621.336,149.895z"/>
				<path style="fill:#FFFFFF;" d="M627.956,156.455c1.205,0,2.187-0.981,2.187-2.187c0-1.206-0.981-2.187-2.187-2.187
					c-1.206,0-2.187,0.981-2.187,2.187C625.769,155.473,626.75,156.455,627.956,156.455z M627.956,153.175
					c0.603,0,1.093,0.49,1.093,1.093s-0.49,1.093-1.093,1.093c-0.603,0-1.094-0.49-1.094-1.093S627.353,153.175,627.956,153.175z"/>
				<path style="fill:#FFFFFF;" d="M634.577,159.735c1.206,0,2.187-0.981,2.187-2.187c0-1.205-0.981-2.187-2.187-2.187
					c-1.205,0-2.187,0.981-2.187,2.187C632.39,158.754,633.371,159.735,634.577,159.735z M634.577,156.455
					c0.603,0,1.094,0.49,1.094,1.093c0,0.603-0.49,1.094-1.094,1.094c-0.603,0-1.093-0.49-1.093-1.094
					C633.483,156.945,633.974,156.455,634.577,156.455z"/>
			</g>
			<g>
				<g>
					
						<ellipse transform="matrix(0.9997 -0.0244 0.0244 0.9997 -4.8113 14.5984)" style="fill:#FF527B;" cx="595.849" cy="204.468" rx="7.239" ry="7.239"/>
					<path style="fill:#E6E9FF;" d="M600.577,204.468c0,2.611-2.117,4.728-4.728,4.728c-2.611,0-4.728-2.117-4.728-4.728
						s2.117-4.728,4.728-4.728C598.46,199.741,600.577,201.857,600.577,204.468z"/>
					<g>
						<rect x="607.78" y="199.91" style="fill:#FF527B;" width="58.451" height="3.486"/>
						<rect x="607.78" y="205.541" style="fill:#E6E9FF;" width="47.39" height="1.743"/>
						<rect x="607.78" y="208.892" style="fill:#E6E9FF;" width="47.39" height="1.743"/>
					</g>
				</g>
			</g>
			<g>
				<g>
					
						<ellipse transform="matrix(0.229 -0.9734 0.9734 0.229 234.0778 758.445)" style="fill:#FFCD27;" cx="595.849" cy="231.448" rx="7.239" ry="7.239"/>
					<path style="fill:#E6E9FF;" d="M600.577,231.448c0,2.611-2.117,4.728-4.728,4.728c-2.611,0-4.728-2.117-4.728-4.728
						c0-2.611,2.117-4.728,4.728-4.728C598.46,226.72,600.577,228.837,600.577,231.448z"/>
					<g>
						<rect x="607.78" y="226.89" style="fill:#FFCD27;" width="58.451" height="3.486"/>
						<rect x="607.78" y="232.521" style="fill:#E6E9FF;" width="47.39" height="1.743"/>
						<rect x="607.78" y="235.872" style="fill:#E6E9FF;" width="47.39" height="1.743"/>
					</g>
				</g>
			</g>
			<g>
				<g>
					<circle style="fill:#FFCD27;" cx="595.849" cy="258.428" r="7.239"/>
					<path style="fill:#E6E9FF;" d="M600.577,258.428c0,2.611-2.117,4.728-4.728,4.728c-2.611,0-4.728-2.117-4.728-4.728
						c0-2.611,2.117-4.728,4.728-4.728C598.46,253.7,600.577,255.817,600.577,258.428z"/>
					<g>
						<rect x="607.78" y="253.87" style="fill:#FFCD27;" width="58.451" height="3.485"/>
						<rect x="607.78" y="259.5" style="fill:#E6E9FF;" width="47.39" height="1.743"/>
						<rect x="607.78" y="262.852" style="fill:#E6E9FF;" width="47.39" height="1.743"/>
					</g>
				</g>
			</g>
		</g>
		<g>
			<g id="_x36_9LIld_1_">
				<g>
					<g>
						<path style="fill:#FF527B;" d="M177.826,155.702c3.801,1.932,31.209,6.642,36.26,8.339c1.987,0.668,4.85,1.286,6.296,2.895
							c1.205,1.341,1.473,3.578-0.342,4.521c-5.864,3.046-12.123,3.635-18.628,4.32c-7.211,0.76-14.462,1.103-21.712,1.158
							c-6.591,0.051-10.524-4.494-10.895-4.935c-2.475-2.931-23.938-25.044-26.824-27.457l0.773,31.292l-20.127-0.385
							c0,0,1.64-25.066,1.576-36.317c-0.01-1.771-0.539-3.533-0.729-5.309c-0.163-1.523-0.462-3.106-0.218-4.583
							c0.926-5.596,2.771-10.889,5.837-15.711c0.155-0.244,0.324-0.482,0.499-0.711c2.146-2.798,2.454-2.876,5.115-0.594
							c10.797,9.26,21.043,19.066,30.13,30.052c3.39,4.098,7.094,7.936,10.652,11.89c-0.618-0.461-1.313-0.844-1.837-1.392
							c-3.593-3.758-7.164-7.538-10.717-11.334c-5.352-5.718-10.678-11.461-16.033-17.177c-0.54-0.576-1.202-1.038-1.808-1.552
							c0.506,1.185,1.369,2.009,2.096,2.94c6.163,7.901,12.334,15.796,18.434,23.746c3.255,4.242,7.11,7.76,11.79,10.343
							c2.211,1.22,6.277,2.346,9.313,2.155c1.358-0.086,1.788-1.882,0.591-2.529C185.057,158.145,180.864,157.406,177.826,155.702z"
							/>
					</g>
				</g>
			</g>
			<g>
				<g>
					<circle style="fill:#C2CBFF;" cx="112.428" cy="198.012" r="8.229"/>
					<circle style="fill:#E6E9FF;" cx="112.428" cy="198.012" r="5.374"/>
					<g>
						<rect x="125.99" y="192.831" style="fill:#C2CBFF;" width="66.438" height="3.962"/>
						<rect x="125.99" y="199.231" style="fill:#E6E9FF;" width="53.867" height="1.981"/>
						<rect x="125.99" y="203.041" style="fill:#E6E9FF;" width="53.867" height="1.981"/>
					</g>
				</g>
				<g>
					<rect x="206.857" y="189.327" style="fill:#C2CBFF;" width="32.914" height="17.371"/>
					<polygon style="fill:#FFFFFF;" points="219,201.885 219,194.14 227.628,198.012 					"/>
				</g>
			</g>
		</g>
		<g>
			<g>
				<g>
					<path style="fill:#C2CBFF;" d="M613.105,324.35c-0.069-1.225-0.403-1.609-1.63-1.804c-1.804-0.287-3.61-0.561-5.423-0.778
						c-7.511-0.896-17.734-2.116-24.816,1.246c-0.938,0.445-1.844,0.965-2.736,1.498c-1.358,0.812-2.693,1.664-4.038,2.499
						c-0.046,0.029-0.105,0.043-0.143,0.079c-0.983,0.931-2.221,1.052-3.48,1.081c-1.245,0.028-2.49,0.053-3.734,0.077
						c-1.245,0.02-2.49,0.039-3.735,0.055c-1.259,0.016-2.501-0.061-3.516-0.957c-0.04-0.035-0.099-0.047-0.146-0.074
						c-1.374-0.787-2.737-1.591-4.124-2.355c-0.911-0.502-1.834-0.989-2.787-1.401c-7.196-3.11-17.37-1.529-24.844-0.368
						c-1.804,0.28-3.6,0.619-5.392,0.969c-1.22,0.238-1.54,0.634-1.566,1.861c-0.017,0.803,0.081,6.16,0.998,7.158
						c0.107,0.116,0.173,0.282,0.225,0.436c0.364,1.09,0.735,2.178,1.073,3.276c0.821,2.669,1.538,5.374,2.771,7.9
						c2.364,4.841,6.068,7.988,11.397,9.157c4.476,0.982,8.89,0.793,13.262-0.534c2.903-0.882,5.382-2.421,7.292-4.816
						c1.376-1.725,2.495-3.614,3.324-5.648c0.888-2.179,1.651-4.408,2.467-6.617c0.374-1.014,1.068-1.746,2.116-1.961
						c0.422-0.086,0.855-0.142,1.289-0.175c0.436,0.018,0.87,0.058,1.295,0.129c1.055,0.177,1.774,0.885,2.184,1.885
						c0.893,2.178,1.734,4.379,2.699,6.525c0.901,2.004,2.086,3.851,3.522,5.527c1.993,2.326,4.525,3.777,7.458,4.555
						c4.415,1.172,8.834,1.205,13.272,0.065c5.284-1.357,8.875-4.633,11.066-9.554c1.143-2.568,1.764-5.296,2.491-7.993
						c0.299-1.109,0.632-2.21,0.956-3.312c0.046-0.156,0.106-0.323,0.209-0.443C613.242,330.509,613.15,325.152,613.105,324.35z"/>
				</g>
				<g>
					<g>
						<g>
							<path style="fill:#FF75AD;" d="M613.105,324.35c-0.069-1.225-0.403-1.609-1.63-1.804c-1.803-0.287-3.61-0.561-5.423-0.778
								c-7.511-0.896-17.734-2.116-24.816,1.246c-0.938,0.445-1.844,0.965-2.736,1.498c-1.358,0.812-2.693,1.664-4.038,2.499
								c-0.046,0.029-0.105,0.043-0.143,0.079c-0.983,0.931-2.221,1.052-3.48,1.081c-1.245,0.028-2.49,0.053-3.734,0.077
								c-1.245,0.02-2.49,0.04-3.735,0.055c-1.259,0.016-2.501-0.061-3.516-0.957c-0.039-0.035-0.099-0.047-0.146-0.074
								c-1.374-0.786-2.737-1.591-4.124-2.355c-0.91-0.502-1.834-0.989-2.787-1.4c-7.197-3.11-17.37-1.529-24.844-0.368
								c-1.804,0.28-3.6,0.619-5.392,0.969c-1.22,0.238-1.54,0.634-1.566,1.861c-0.017,0.803,0.081,6.16,0.998,7.158
								c0.107,0.116,0.173,0.282,0.225,0.436c0.364,1.09,0.735,2.178,1.073,3.276c0.821,2.669,1.538,5.374,2.772,7.9
								c2.363,4.841,6.068,7.988,11.397,9.157c4.476,0.982,8.89,0.793,13.262-0.534c2.903-0.882,5.382-2.421,7.292-4.816
								c1.376-1.725,2.495-3.614,3.324-5.648c0.888-2.179,1.651-4.408,2.467-6.617c0.374-1.014,1.068-1.746,2.116-1.961
								c0.422-0.086,0.854-0.142,1.289-0.175c0.436,0.017,0.87,0.058,1.295,0.129c1.055,0.177,1.774,0.885,2.184,1.885
								c0.893,2.178,1.734,4.38,2.699,6.525c0.901,2.004,2.086,3.851,3.522,5.527c1.993,2.326,4.525,3.777,7.458,4.555
								c4.416,1.172,8.834,1.205,13.272,0.065c5.284-1.357,8.875-4.633,11.066-9.554c1.143-2.568,1.764-5.296,2.49-7.993
								c0.299-1.109,0.631-2.21,0.956-3.312c0.046-0.156,0.106-0.323,0.209-0.443C613.242,330.509,613.15,325.152,613.105,324.35z
								 M554.143,349.77c-0.631,0.459-1.358,0.784-2.013,1.215c-6.649,4.37-18.906,1.473-22.392-5.636
								c-2.133-4.351-4.803-11.704-1.878-16.187c2.368-3.629,7.134-4.042,11.229-4.24c4.774-0.23,9.629,0.561,14.058,2.367
								c1.594,0.65,3.101,1.457,4.481,2.503C563.96,334.592,559.419,345.93,554.143,349.77z M605.051,344.017
								c-3.232,7.228-15.379,10.556-22.178,6.424c-0.669-0.407-1.408-0.706-2.055-1.143c-5.408-3.652-10.347-14.821-4.19-19.843
								c1.342-1.095,2.82-1.954,4.389-2.66c4.363-1.961,9.187-2.924,13.966-2.862c4.1,0.053,8.878,0.297,11.372,3.84
								C609.437,332.15,607.029,339.593,605.051,344.017z"/>
						</g>
					</g>
				</g>
			</g>
			<g>
				<g>
					
						<ellipse transform="matrix(0.9239 -0.3827 0.3827 0.9239 -106.931 223.1674)" style="fill:#C2CBFF;" cx="507.505" cy="380.374" rx="8.229" ry="8.229"/>
					<circle style="fill:#E6E9FF;" cx="507.505" cy="380.374" r="5.374"/>
					<g>
						<rect x="521.067" y="375.193" style="fill:#C2CBFF;" width="66.438" height="3.962"/>
						<rect x="521.067" y="381.593" style="fill:#E6E9FF;" width="53.867" height="1.981"/>
						<rect x="521.067" y="385.402" style="fill:#E6E9FF;" width="53.867" height="1.981"/>
					</g>
				</g>
				<g>
					<rect x="601.933" y="371.688" style="fill:#C2CBFF;" width="32.914" height="17.371"/>
					<polygon style="fill:#FFFFFF;" points="614.077,384.246 614.077,376.501 622.705,380.374 					"/>
				</g>
			</g>
		</g>
	</g>
</g>
</svg>
