<?xml version="1.0" encoding="utf-8"?>
<!-- Generator: Adobe Illustrator 27.5.0, SVG Export Plug-In . SVG Version: 6.00 Build 0)  -->
<svg version="1.1" xmlns="http://www.w3.org/2000/svg" xmlns:xlink="http://www.w3.org/1999/xlink" x="0px" y="0px"
	 viewBox="0 0 500 500" style="enable-background:new 0 0 500 500;" xml:space="preserve">
<g id="BACKGROUND">
	<rect style="fill:#FFFFFF;" width="500" height="500"/>
</g>
<g id="OBJECTS">
	<g>
		<linearGradient id="SVGID_1_" gradientUnits="userSpaceOnUse" x1="275.7755" y1="26.5085" x2="241.7187" y2="397.7286">
			<stop  offset="0" style="stop-color:#F5F0FF"/>
			<stop  offset="0.9959" style="stop-color:#D2C1F7"/>
		</linearGradient>
		<path style="fill:url(#SVGID_1_);" d="M199.745,399.383c-23.735,3.008-47.978,1.972-71.37-3.052
			c-3.122-0.671-6.338-1.462-8.855-3.426c-2.518-1.965-4.147-5.427-3.038-8.421c1.665-4.494,7.879-5.244,10.945-8.927
			c2.65-3.183,2.354-8.061,0.343-11.681c-2.011-3.621-5.403-6.241-8.785-8.631c-10.021-7.082-20.804-13.098-30.357-20.8
			c-9.553-7.702-18.011-17.459-21.341-29.269c-3.329-11.811-0.531-25.877,9.057-33.534c6.817-5.444,15.828-6.998,24.27-9.203
			c8.441-2.205,17.366-5.794,21.628-13.406c5.363-9.579,1.372-21.4-1.577-31.975c-5.335-19.125-6.499-40.855,4.005-57.705
			c7.127-11.432,19.376-19.532,32.685-21.614c13.31-2.082,27.447,1.891,37.724,10.6c9.863,8.359,26.36,2.101,37.238-4.887
			c10.877-6.988,19.334-17.062,27.999-26.658c8.665-9.595,18.018-19.08,29.844-24.304c17.035-7.526,38.183-4.683,52.627,7.074
			c9.581,7.799,16.125,18.915,26.057,26.261c8.563,6.333,19.234,9.544,27.259,16.547c14.299,12.478,16.297,36.439,4.689,51.452
			c-8.624,11.154-23.354,17.725-28.269,30.94c-4.098,11.016,0.169,23.685,7.525,32.852c7.357,9.167,17.425,15.665,26.928,22.581
			c9.503,6.916,18.896,14.766,23.903,25.399c5.007,10.634,4.441,24.714-4.22,32.659c-5.217,4.786-12.374,6.655-18.972,9.222
			c-6.598,2.568-13.411,6.586-15.657,13.3c-3.075,9.191,3.677,19.017,2.515,28.639c-1.001,8.29-7.883,14.917-15.622,18.053
			c-7.739,3.136-16.291,3.426-24.638,3.674c-23.075,0.687-46.325,1.363-69.097-2.43
			C257.589,404.117,227.505,395.865,199.745,399.383z"/>
		<g>
			<g>
				
					<linearGradient id="SVGID_00000058546813565494575170000017521379736367085745_" gradientUnits="userSpaceOnUse" x1="258.0016" y1="119.2845" x2="264.7352" y2="385.0093">
					<stop  offset="0" style="stop-color:#263681"/>
					<stop  offset="0.9959" style="stop-color:#1A1248"/>
				</linearGradient>
				<path style="fill:url(#SVGID_00000058546813565494575170000017521379736367085745_);" d="M325.545,390.57H197.393
					c-4.734,0-8.571-3.837-8.571-8.571V130.26c0-4.734,3.837-8.571,8.571-8.571h128.152c4.734,0,8.571,3.837,8.571,8.571v251.739
					C334.116,386.733,330.279,390.57,325.545,390.57z"/>
				
					<linearGradient id="SVGID_00000178926406231744646500000012388787241311723705_" gradientUnits="userSpaceOnUse" x1="261.9977" y1="127.385" x2="260.2949" y2="542.0276">
					<stop  offset="0" style="stop-color:#F5F0FF"/>
					<stop  offset="0.9959" style="stop-color:#D2C1F7"/>
				</linearGradient>
				<path style="fill:url(#SVGID_00000178926406231744646500000012388787241311723705_);" d="M197.394,384.613
					c-1.442,0-2.615-1.172-2.615-2.614V130.26c0-1.442,1.173-2.614,2.615-2.614h128.152c1.442,0,2.614,1.173,2.614,2.614v251.739
					c0,1.442-1.172,2.614-2.614,2.614H197.394z"/>
				<g>
					<path style="fill:#50448C;" d="M224.687,343.308c-0.001,0-0.003,0-0.005,0c-1.337-0.014-2.674-0.042-4.01-0.086
						c-0.276-0.01-0.492-0.24-0.483-0.517c0.009-0.276,0.241-0.467,0.516-0.483c1.328,0.044,2.657,0.072,3.987,0.086
						c0.276,0.003,0.498,0.229,0.495,0.505C225.184,343.087,224.961,343.308,224.687,343.308z M230.686,343.269
						c-0.271,0-0.494-0.216-0.5-0.488c-0.006-0.276,0.212-0.505,0.488-0.512c1.329-0.031,2.658-0.076,3.987-0.136
						c0.258-0.041,0.51,0.2,0.522,0.477c0.013,0.275-0.201,0.51-0.477,0.521c-1.336,0.061-2.672,0.106-4.008,0.138
						C230.693,343.269,230.69,343.269,230.686,343.269z M214.695,342.916c-0.012,0-0.023,0-0.035-0.001
						c-1.335-0.093-2.668-0.2-3.999-0.324c-0.275-0.026-0.477-0.27-0.452-0.545c0.026-0.274,0.271-0.471,0.544-0.451
						c1.323,0.124,2.648,0.23,3.975,0.322c0.275,0.02,0.483,0.258,0.464,0.533C215.175,342.714,214.956,342.916,214.695,342.916z
						 M240.671,342.772c-0.259,0-0.478-0.2-0.498-0.462c-0.021-0.275,0.186-0.516,0.461-0.537c1.325-0.1,2.65-0.214,3.974-0.343
						c0.277-0.017,0.52,0.175,0.546,0.45c0.027,0.274-0.174,0.519-0.449,0.546c-1.331,0.129-2.663,0.243-3.996,0.345
						C240.697,342.772,240.684,342.772,240.671,342.772z M204.747,341.919c-0.021,0-0.044-0.001-0.066-0.004
						c-1.326-0.176-2.65-0.368-3.971-0.577c-0.273-0.044-0.459-0.3-0.415-0.572c0.043-0.272,0.297-0.455,0.572-0.416
						c1.313,0.209,2.628,0.399,3.945,0.573c0.274,0.036,0.466,0.288,0.43,0.562C205.209,341.737,204.994,341.919,204.747,341.919z
						 M250.62,341.769c-0.249,0-0.464-0.185-0.496-0.438c-0.034-0.274,0.16-0.524,0.434-0.559c1.32-0.166,2.638-0.344,3.956-0.534
						c0.266-0.036,0.526,0.149,0.566,0.424c0.039,0.273-0.15,0.526-0.424,0.566c-1.323,0.191-2.648,0.37-3.973,0.536
						C250.661,341.768,250.64,341.769,250.62,341.769z M260.509,340.295c-0.238,0-0.45-0.172-0.492-0.415
						c-0.047-0.272,0.136-0.531,0.408-0.578c1.312-0.226,2.621-0.464,3.928-0.712c0.273-0.049,0.533,0.126,0.585,0.397
						c0.052,0.271-0.127,0.533-0.397,0.585c-1.313,0.25-2.628,0.488-3.945,0.716C260.567,340.293,260.538,340.295,260.509,340.295z
						 M194.884,340.284c-0.033,0-0.065-0.003-0.099-0.01c-1.212-0.243-2.42-0.501-3.627-0.775l-0.297-0.068
						c-0.27-0.061-0.438-0.328-0.377-0.598c0.061-0.27,0.328-0.443,0.598-0.377l0.302,0.069c1.193,0.271,2.394,0.526,3.597,0.768
						c0.271,0.055,0.446,0.317,0.392,0.589C195.326,340.12,195.118,340.284,194.884,340.284z M270.326,338.387
						c-0.23,0-0.437-0.16-0.487-0.395c-0.059-0.27,0.112-0.536,0.383-0.594c1.301-0.282,2.599-0.574,3.894-0.878
						c0.281-0.061,0.538,0.104,0.602,0.373c0.063,0.27-0.104,0.538-0.373,0.602c-1.301,0.304-2.604,0.598-3.911,0.88
						C270.397,338.383,270.361,338.387,270.326,338.387z M185.157,337.974c-0.044,0-0.089-0.006-0.134-0.018
						c-1.29-0.357-2.574-0.732-3.854-1.127c-0.264-0.081-0.412-0.361-0.33-0.625c0.081-0.265,0.359-0.415,0.625-0.33
						c1.27,0.392,2.546,0.765,3.826,1.119c0.266,0.073,0.422,0.349,0.349,0.615C185.577,337.828,185.376,337.974,185.157,337.974z
						 M175.623,334.954c-0.056,0-0.113-0.01-0.169-0.029c-1.26-0.451-2.513-0.922-3.759-1.41c-0.257-0.102-0.384-0.392-0.283-0.649
						c0.101-0.258,0.391-0.384,0.648-0.283c1.237,0.486,2.48,0.953,3.73,1.4c0.26,0.093,0.395,0.379,0.302,0.64
						C176.021,334.828,175.828,334.954,175.623,334.954z M166.344,331.231c-0.068,0-0.137-0.014-0.203-0.043
						c-1.223-0.546-2.437-1.11-3.641-1.693c-0.249-0.12-0.352-0.42-0.232-0.668c0.121-0.249,0.422-0.354,0.668-0.232
						c1.195,0.579,2.399,1.14,3.612,1.68c0.252,0.113,0.366,0.408,0.253,0.66C166.718,331.12,166.536,331.231,166.344,331.231z
						 M157.38,326.804c-0.081,0-0.163-0.02-0.239-0.06c-1.176-0.642-2.342-1.3-3.496-1.976c-0.238-0.14-0.318-0.446-0.178-0.685
						c0.139-0.239,0.444-0.317,0.684-0.179c1.145,0.672,2.302,1.324,3.468,1.96c0.243,0.133,0.332,0.436,0.2,0.679
						C157.729,326.71,157.558,326.804,157.38,326.804z M148.8,321.675c-0.094,0-0.189-0.026-0.273-0.082
						c-1.122-0.734-2.239-1.493-3.322-2.256c-0.226-0.159-0.28-0.472-0.121-0.697c0.159-0.225,0.471-0.28,0.697-0.121
						c1.073,0.757,2.181,1.51,3.294,2.238c0.231,0.151,0.295,0.461,0.145,0.692C149.123,321.596,148.963,321.675,148.8,321.675z
						 M140.678,315.847c-0.108,0-0.217-0.035-0.309-0.106c-1.051-0.826-2.099-1.68-3.114-2.537c-0.211-0.178-0.237-0.493-0.06-0.704
						c0.178-0.211,0.492-0.238,0.705-0.06c1.006,0.85,2.045,1.695,3.087,2.514c0.217,0.171,0.255,0.485,0.084,0.702
						C140.973,315.782,140.826,315.847,140.678,315.847z M133.102,309.328c-0.123,0-0.247-0.045-0.343-0.137
						c-0.972-0.917-1.938-1.862-2.871-2.811c-0.194-0.196-0.191-0.514,0.006-0.707c0.196-0.193,0.512-0.191,0.707,0.006
						c0.924,0.94,1.881,1.876,2.844,2.785c0.201,0.189,0.21,0.506,0.021,0.706C133.367,309.275,133.235,309.328,133.102,309.328z
						 M126.164,302.135c-0.139,0-0.277-0.058-0.376-0.171c-0.879-1.003-1.75-2.038-2.588-3.075c-0.174-0.215-0.14-0.529,0.074-0.703
						c0.215-0.175,0.53-0.14,0.703,0.074c0.831,1.027,1.693,2.053,2.563,3.046c0.182,0.207,0.161,0.523-0.046,0.705
						C126.399,302.094,126.281,302.135,126.164,302.135z M119.96,294.297c-0.156,0-0.31-0.073-0.408-0.21
						c-0.79-1.11-1.552-2.228-2.262-3.326c-0.15-0.232-0.083-0.541,0.148-0.691c0.232-0.147,0.541-0.084,0.691,0.148
						c0.703,1.084,1.456,2.191,2.237,3.289c0.16,0.225,0.108,0.537-0.117,0.697C120.161,294.267,120.06,294.297,119.96,294.297z
						 M114.639,285.836c-0.177,0-0.349-0.095-0.44-0.261c-0.649-1.194-1.262-2.403-1.822-3.594c-0.117-0.25-0.01-0.548,0.24-0.665
						c0.249-0.119,0.548-0.011,0.666,0.239c0.552,1.173,1.156,2.365,1.796,3.541c0.132,0.243,0.042,0.547-0.201,0.679
						C114.802,285.817,114.72,285.836,114.639,285.836z M110.543,276.725c-0.206,0-0.398-0.128-0.471-0.333
						c-0.454-1.281-0.859-2.577-1.205-3.853c-0.072-0.267,0.085-0.541,0.352-0.613c0.265-0.07,0.541,0.085,0.613,0.352
						c0.339,1.251,0.737,2.522,1.183,3.78c0.092,0.261-0.044,0.546-0.304,0.639C110.655,276.716,110.598,276.725,110.543,276.725z
						 M108.141,267.035c-0.246,0-0.46-0.181-0.495-0.431c-0.147-1.059-0.257-2.125-0.326-3.17c-0.019-0.286-0.035-0.572-0.047-0.859
						c-0.012-0.275,0.202-0.509,0.478-0.522c0.279-0.002,0.509,0.203,0.521,0.479c0.012,0.279,0.027,0.558,0.046,0.836
						c0.067,1.022,0.174,2.064,0.318,3.098c0.038,0.273-0.153,0.526-0.426,0.565C108.187,267.034,108.164,267.035,108.141,267.035z
						 M141.759,257.147c-0.005,0-0.01,0-0.015,0c-0.59-0.017-1.19-0.058-1.783-0.121c-0.752-0.08-1.515-0.196-2.268-0.345
						c-0.271-0.053-0.448-0.315-0.395-0.587c0.053-0.27,0.314-0.451,0.587-0.394c0.725,0.142,1.459,0.254,2.182,0.331
						c0.567,0.061,1.141,0.1,1.705,0.115c0.276,0.008,0.494,0.238,0.486,0.515C142.251,256.932,142.028,257.147,141.759,257.147z
						 M107.982,257.064c-0.019,0-0.038-0.001-0.057-0.003c-0.274-0.031-0.472-0.279-0.441-0.554
						c0.152-1.342,0.376-2.687,0.666-3.996c0.06-0.269,0.326-0.44,0.596-0.38c0.27,0.06,0.44,0.327,0.38,0.597
						c-0.283,1.275-0.501,2.585-0.648,3.892C108.449,256.875,108.233,257.064,107.982,257.064z M147.673,256.335
						c-0.208,0-0.403-0.131-0.474-0.34c-0.088-0.262,0.052-0.545,0.313-0.634c1.277-0.433,2.404-1.039,3.348-1.802
						c0.215-0.175,0.53-0.141,0.703,0.074c0.174,0.215,0.141,0.529-0.074,0.703c-1.037,0.838-2.267,1.501-3.657,1.972
						C147.78,256.327,147.727,256.335,147.673,256.335z M132.079,254.89c-0.067,0-0.135-0.014-0.201-0.042
						c-1.233-0.544-2.443-1.183-3.597-1.899c-0.234-0.146-0.306-0.454-0.161-0.688c0.146-0.235,0.454-0.305,0.689-0.161
						c1.113,0.692,2.281,1.31,3.472,1.833c0.252,0.111,0.367,0.407,0.256,0.659C132.454,254.779,132.271,254.89,132.079,254.89z
						 M154.384,249.499c-0.043,0-0.087-0.005-0.131-0.017c-0.267-0.072-0.424-0.347-0.353-0.613c0.243-0.9,0.366-1.864,0.366-2.864
						c0-0.31-0.012-0.622-0.035-0.934c-0.021-0.275,0.186-0.515,0.462-0.535c0.265-0.02,0.515,0.186,0.535,0.462
						c0.025,0.337,0.038,0.673,0.038,1.007c0.001,1.088-0.134,2.14-0.4,3.125C154.806,249.352,154.605,249.499,154.384,249.499z
						 M123.822,249.34c-0.125,0-0.25-0.047-0.348-0.141c-0.979-0.947-1.891-1.968-2.711-3.033c-0.168-0.219-0.128-0.533,0.091-0.701
						c0.219-0.17,0.533-0.127,0.701,0.091c0.791,1.028,1.671,2.012,2.615,2.925c0.198,0.192,0.204,0.509,0.012,0.707
						C124.084,249.289,123.953,249.34,123.822,249.34z M110.409,247.394c-0.063,0-0.126-0.012-0.187-0.036
						c-0.256-0.104-0.38-0.395-0.277-0.651c0.511-1.265,1.097-2.498,1.741-3.666c0.133-0.241,0.437-0.329,0.68-0.196
						c0.242,0.134,0.33,0.438,0.196,0.68c-0.626,1.133-1.194,2.33-1.69,3.557C110.794,247.276,110.607,247.394,110.409,247.394z
						 M118.073,241.231c-0.19,0-0.372-0.109-0.456-0.293c-0.431-0.949-0.812-1.937-1.134-2.944c-0.2,0.221-0.396,0.446-0.589,0.673
						c-0.179,0.213-0.495,0.236-0.705,0.059c-0.211-0.179-0.237-0.494-0.059-0.705c0.357-0.422,0.726-0.833,1.105-1.232
						c0.047-0.115,0.137-0.212,0.256-0.266c0.479-0.491,0.975-0.963,1.482-1.412c0.207-0.182,0.523-0.163,0.705,0.044
						c0.183,0.206,0.164,0.523-0.043,0.706c-0.467,0.413-0.923,0.846-1.365,1.296c0.344,1.156,0.766,2.287,1.256,3.368
						c0.114,0.251,0.003,0.548-0.249,0.662C118.212,241.217,118.142,241.231,118.073,241.231z M153.111,239.794
						c-0.184,0-0.36-0.101-0.448-0.276c-0.588-1.177-1.308-2.259-2.142-3.217c-0.181-0.208-0.159-0.524,0.049-0.706
						c0.208-0.181,0.523-0.159,0.706,0.049c0.888,1.021,1.656,2.174,2.281,3.426c0.123,0.247,0.023,0.547-0.224,0.671
						C153.262,239.777,153.186,239.794,153.111,239.794z M146.274,232.693c-0.085,0-0.172-0.022-0.251-0.068
						c-1.104-0.643-2.296-1.188-3.544-1.62c-0.261-0.09-0.4-0.376-0.309-0.636c0.09-0.262,0.374-0.4,0.636-0.309
						c1.309,0.454,2.561,1.026,3.72,1.701c0.239,0.139,0.319,0.445,0.181,0.684C146.613,232.604,146.446,232.693,146.274,232.693z
						 M123.23,232.587c-0.181,0-0.355-0.098-0.444-0.27c-0.127-0.245-0.031-0.547,0.214-0.674c1.193-0.618,2.458-1.147,3.761-1.573
						c0.264-0.085,0.545,0.058,0.63,0.32c0.086,0.262-0.057,0.544-0.32,0.63c-1.251,0.41-2.467,0.918-3.612,1.511
						C123.386,232.569,123.307,232.587,123.23,232.587z M115.689,231.576c-0.262,0-0.482-0.204-0.499-0.468
						c-0.038-0.605-0.057-1.212-0.057-1.819c0-0.748,0.03-1.504,0.088-2.248c0.022-0.276,0.268-0.478,0.538-0.46
						c0.275,0.021,0.481,0.262,0.46,0.538c-0.056,0.718-0.085,1.449-0.085,2.17c0,0.585,0.018,1.171,0.055,1.755
						c0.018,0.276-0.192,0.513-0.467,0.531C115.71,231.576,115.699,231.576,115.689,231.576z M132.783,229.857
						c-0.257,0-0.476-0.197-0.497-0.458c-0.023-0.275,0.181-0.517,0.456-0.54c0.728-0.061,1.45-0.105,2.194-0.091
						c0.626,0,1.259,0.023,1.881,0.07c0.275,0.021,0.482,0.261,0.461,0.536c-0.021,0.275-0.266,0.473-0.536,0.461
						c-0.603-0.045-1.194-0.039-1.825-0.067c-0.694,0-1.398,0.029-2.092,0.087C132.811,229.857,132.797,229.857,132.783,229.857z
						 M116.824,221.694c-0.048,0-0.097-0.007-0.146-0.021c-0.264-0.081-0.413-0.36-0.333-0.624c0.398-1.309,0.895-2.586,1.475-3.796
						c0.12-0.249,0.417-0.355,0.667-0.234c0.249,0.119,0.354,0.418,0.234,0.667c-0.558,1.165-1.036,2.394-1.419,3.654
						C117.236,221.555,117.038,221.694,116.824,221.694z M121.435,212.887c-0.107,0-0.216-0.035-0.308-0.106
						c-0.217-0.17-0.256-0.484-0.086-0.702c0.821-1.05,1.733-2.068,2.711-3.026c0.198-0.193,0.514-0.189,0.708,0.007
						c0.193,0.197,0.19,0.514-0.007,0.708c-0.947,0.927-1.829,1.912-2.623,2.927C121.731,212.821,121.584,212.887,121.435,212.887z
						 M128.743,206.12c-0.16,0-0.317-0.076-0.414-0.218c-0.156-0.228-0.097-0.539,0.131-0.695c1.097-0.749,2.262-1.457,3.461-2.105
						c0.243-0.132,0.547-0.041,0.678,0.202c0.131,0.243,0.041,0.546-0.202,0.678c-1.169,0.631-2.304,1.321-3.374,2.051
						C128.939,206.091,128.84,206.12,128.743,206.12z M137.627,201.578c-0.203,0-0.394-0.124-0.469-0.327
						c-0.096-0.259,0.036-0.546,0.295-0.642c1.249-0.462,2.544-0.877,3.85-1.234c0.265-0.069,0.541,0.085,0.614,0.351
						c0.073,0.267-0.085,0.542-0.351,0.614c-1.278,0.349-2.545,0.755-3.767,1.207C137.743,201.568,137.684,201.578,137.627,201.578z
						 M181.11,201.188c-0.027,0-0.054-0.002-0.081-0.006c-1.313-0.214-2.628-0.428-3.947-0.637
						c-0.273-0.043-0.459-0.299-0.416-0.572c0.043-0.273,0.303-0.459,0.572-0.416c1.32,0.208,2.637,0.422,3.952,0.637
						c0.272,0.044,0.458,0.302,0.413,0.574C181.563,201.014,181.351,201.188,181.11,201.188z M171.226,199.671
						c-0.022,0-0.045-0.002-0.068-0.004c-1.318-0.179-2.638-0.343-3.958-0.489c-0.274-0.03-0.473-0.277-0.442-0.552
						c0.03-0.274,0.278-0.469,0.552-0.442c1.329,0.146,2.656,0.312,3.983,0.492c0.273,0.037,0.465,0.289,0.428,0.563
						C171.687,199.489,171.473,199.671,171.226,199.671z M147.308,199.148c-0.245,0-0.459-0.18-0.495-0.43
						c-0.039-0.273,0.151-0.526,0.425-0.565c1.303-0.186,2.652-0.332,4.009-0.433c0.273-0.02,0.516,0.186,0.536,0.461
						c0.02,0.275-0.186,0.516-0.461,0.536c-1.335,0.1-2.662,0.244-3.943,0.426C147.355,199.147,147.331,199.148,147.308,199.148z
						 M161.278,198.674c-0.01,0-0.019,0-0.029-0.001c-1.361-0.077-2.699-0.123-3.975-0.137c-0.276-0.003-0.498-0.229-0.495-0.505
						c0.003-0.274,0.226-0.495,0.5-0.495c0.001,0,0.003,0,0.005,0c1.292,0.014,2.644,0.061,4.021,0.139
						c0.276,0.016,0.486,0.252,0.471,0.527C161.761,198.469,161.541,198.674,161.278,198.674z"/>
				</g>
				<g>
					<defs>
						<path id="SVGID_00000130640132811405084500000010076814270071423617_" d="M133.666,380.995v-249.73
							c0-1.999,1.62-3.619,3.619-3.619h248.368c1.998,0,3.618,1.62,3.618,3.618v249.73c0,1.998-1.62,3.618-3.618,3.618H137.285
							C135.286,384.613,133.666,382.993,133.666,380.995z"/>
					</defs>
					<clipPath id="SVGID_00000091730873614332985470000013101446938482773903_">
						<use xlink:href="#SVGID_00000130640132811405084500000010076814270071423617_"  style="overflow:visible;"/>
					</clipPath>
					<g style="clip-path:url(#SVGID_00000091730873614332985470000013101446938482773903_);">
						<g>
							
								<linearGradient id="SVGID_00000057839332540993996940000005877600999083370901_" gradientUnits="userSpaceOnUse" x1="238.3339" y1="202.8786" x2="272.67" y2="202.8786">
								<stop  offset="0" style="stop-color:#263681"/>
								<stop  offset="0.9959" style="stop-color:#1A1248"/>
							</linearGradient>
							<path style="fill:url(#SVGID_00000057839332540993996940000005877600999083370901_);" d="M255.412,171.63
								c-2.016,0.764-4.081,1.748-5.295,3.53c-2.063,3.029-1.062,7.417-3.163,10.418c-0.804,1.149-1.985,1.968-2.992,2.944
								c-3.464,3.357-4.716,8.806-3.063,13.338c0.364,0.999,0.857,1.956,1.105,2.99c0.713,2.963-0.656,5.982-1.904,8.762
								c-1.248,2.781-2.421,5.947-1.342,8.797c0.697,1.84,2.249,3.258,2.934,5.102c0.742,1.996,0.466,4.448,1.906,6.016
								c0.567,0.618,1.334,1.008,2.091,1.369c2.008,0.958,4.112,1.814,6.329,2.001c1.622,0.137,3.251-0.09,4.864-0.315
								c2.456-0.344,4.912-0.688,7.368-1.032c0.919-0.129,1.868-0.268,2.655-0.76c1.2-0.75,1.789-2.164,2.221-3.512
								c3.786-11.806,0.983-24.642,2.178-36.982c0.414-4.274,1.311-8.508,1.363-12.802c0.042-3.452-0.47-10.043-3.772-12.181
								c-1.568-1.015-4.063-0.203-5.733,0.119C260.523,169.942,257.927,170.677,255.412,171.63z"/>
							<g>
								
									<linearGradient id="SVGID_00000048470114652718137680000015655058512725006996_" gradientUnits="userSpaceOnUse" x1="272.2794" y1="458.2324" x2="239.6283" y2="477.76" gradientTransform="matrix(0.9889 0.1487 -0.1487 0.9889 41.9825 -273.2841)">
									<stop  offset="0" style="stop-color:#FFC085"/>
									<stop  offset="1" style="stop-color:#FA976E"/>
								</linearGradient>
								<path style="fill:url(#SVGID_00000048470114652718137680000015655058512725006996_);" d="M217.77,240.494
									c-0.858-1.622-1.8-3.342-1.769-6.075c0.048-4.303,0.866-6.156-0.676-8.244c-1.542-2.088-4.774-2.095-5.47-3.038
									c-0.696-0.943-1.545-1.669-2.822-1.143c-1.277,0.526-6.132,5.743-5.323,9.118c0.81,3.375,2.556,6.092,5.89,8.21
									c2.892,1.837,3.215,4.28,3.757,7.238C213.291,244.29,215.246,242.056,217.77,240.494z"/>
								<g>
									
										<linearGradient id="SVGID_00000111174055028043367730000010776607455886273703_" gradientUnits="userSpaceOnUse" x1="3434.8696" y1="867.9592" x2="3441.7241" y2="867.2985" gradientTransform="matrix(-0.9244 -0.3814 -0.3814 0.9244 3718.8699 740.0765)">
										<stop  offset="0" style="stop-color:#9571CB"/>
										<stop  offset="0.9959" style="stop-color:#6237C0"/>
									</linearGradient>
									<path style="fill:url(#SVGID_00000111174055028043367730000010776607455886273703_);" d="M210.198,220.335l-8.26,14.383
										c-1.211,2.108-0.291,4.801,1.956,5.728l0,0c1.841,0.76,3.961,0.059,4.987-1.648l9.322-15.507
										C218.204,223.291,212.747,218.106,210.198,220.335z"/>
									
										<linearGradient id="SVGID_00000060735289960442318200000007613406820650192814_" gradientUnits="userSpaceOnUse" x1="190.2481" y1="177.5401" x2="194.9837" y2="215.262">
										<stop  offset="0" style="stop-color:#F59513"/>
										<stop  offset="0.3699" style="stop-color:#FAAD1E"/>
										<stop  offset="0.9959" style="stop-color:#F2830B"/>
									</linearGradient>
									<path style="fill:url(#SVGID_00000060735289960442318200000007613406820650192814_);" d="M230.668,215.446
										c0,5.424-4.855,11.148-11.402,9.275l-2.772-1.139c-11.178-4.615-23.344-6.278-35.361-4.84l-1.678,0.195l-19.449,2.322
										l21.606-52.382l11.837,14.954v0.015l1.363,1.723c7.507,9.485,17.321,16.887,28.499,21.501l2.757,1.139
										C229.289,209.738,230.668,212.555,230.668,215.446z"/>
									
										<linearGradient id="SVGID_00000159457269259941242530000013602059659405418645_" gradientUnits="userSpaceOnUse" x1="189.5655" y1="176.5978" x2="173.0021" y2="216.3204">
										<stop  offset="0" style="stop-color:#9571CB"/>
										<stop  offset="0.9959" style="stop-color:#6237C0"/>
									</linearGradient>
									<path style="fill:url(#SVGID_00000159457269259941242530000013602059659405418645_);" d="M193.449,183.831v0.015
										c0,14.879-6.593,27.69-13.995,35.092l-19.449,2.322l21.606-52.382L193.449,183.831z"/>
									
										<linearGradient id="SVGID_00000135667553735829186430000010610524214668503688_" gradientUnits="userSpaceOnUse" x1="3493.7942" y1="849.4442" x2="3482.6245" y2="849.4442" gradientTransform="matrix(-0.9244 -0.3814 -0.3814 0.9244 3718.8699 740.0765)">
										<stop  offset="0" style="stop-color:#7A5DA7"/>
										<stop  offset="0.9959" style="stop-color:#4F2D9C"/>
									</linearGradient>
									<path style="fill:url(#SVGID_00000135667553735829186430000010610524214668503688_);" d="M165.787,193
										c-5.968,14.467-8.558,27.122-5.784,28.267c2.774,1.145,9.861-9.655,15.83-24.122c5.968-14.467,8.558-27.122,5.784-28.267
										S171.755,178.533,165.787,193z"/>
									<g>
										<defs>
											
												<ellipse id="SVGID_00000024710497500674524870000008535787413212352693_" transform="matrix(0.3814 -0.9244 0.9244 0.3814 -74.6618 278.5766)" cx="170.81" cy="195.072" rx="28.336" ry="5.434"/>
										</defs>
										<clipPath id="SVGID_00000075137066574247154880000010185657331843518623_">
											<use xlink:href="#SVGID_00000024710497500674524870000008535787413212352693_"  style="overflow:visible;"/>
										</clipPath>
										
											<radialGradient id="SVGID_00000119111493051451651110000005716950557759063485_" cx="3488.9858" cy="850.0974" r="9.1544" gradientTransform="matrix(-0.9244 -0.3814 -0.3814 0.9244 3718.8699 740.0765)" gradientUnits="userSpaceOnUse">
											<stop  offset="0" style="stop-color:#FFD042"/>
											<stop  offset="1" style="stop-color:#F2830B"/>
										</radialGradient>
										
											<path style="clip-path:url(#SVGID_00000075137066574247154880000010185657331843518623_);fill:url(#SVGID_00000119111493051451651110000005716950557759063485_);" d="
											M170.872,201.874l2.771,1.143c3.198,1.319,6.86-0.204,8.179-3.402l0,0c1.319-3.198-0.204-6.86-3.402-8.18l-2.771-1.143
											c-3.198-1.319-6.86,0.204-8.18,3.402l0,0C166.151,196.893,167.674,200.555,170.872,201.874z"/>
									</g>
								</g>
								
									<linearGradient id="SVGID_00000064335845339629221400000004239514875514537895_" gradientUnits="userSpaceOnUse" x1="259.0118" y1="461.048" x2="234.4624" y2="475.7303" gradientTransform="matrix(0.9889 0.1487 -0.1487 0.9889 41.9825 -273.2841)">
									<stop  offset="0" style="stop-color:#FFC085"/>
									<stop  offset="1" style="stop-color:#FA976E"/>
								</linearGradient>
								<path style="fill:url(#SVGID_00000064335845339629221400000004239514875514537895_);" d="M215.996,227.436
									c-0.816-2.161-3.922-4.065-4.867-3.888c-0.945,0.177-3.544,4.456-2.127,5.388c1.417,0.931,2.526-1.935,2.995-1.865
									c0.468,0.07-0.872,5.036,0.16,6.434C212.186,233.308,215.996,227.436,215.996,227.436z"/>
							</g>
							<g>
								
									<linearGradient id="SVGID_00000036964530430220264610000002389698328408150173_" gradientUnits="userSpaceOnUse" x1="251.6171" y1="601.3239" x2="273.6212" y2="601.3239" gradientTransform="matrix(0.9849 0.1734 -0.1734 0.9849 20.9443 -357.3335)">
									<stop  offset="0" style="stop-color:#FFC085"/>
									<stop  offset="1" style="stop-color:#FA976E"/>
								</linearGradient>
								<path style="fill:url(#SVGID_00000036964530430220264610000002389698328408150173_);" d="M181.84,280.148
									c-3.96-1.272-4.898-4.27-4.761-6.236c0.137-1.966-0.725-3.553-2.23-3.039c-1.505,0.515-1.347,4.458-0.799,6.702
									c-3.535-1.041-8.697-1.58-9.264,0.154c-0.085,0.259-0.284,0.421-0.284,0.889c0,0.534,0.265,0.869,0.24,0.992
									c-0.116,0.576-0.444,0.412-0.531,1.125c-0.02,0.165-0.176,0.456-0.176,0.625c0,0.585,0.313,0.769,0.298,1.259
									c-0.011,0.365-0.33,0.823-0.296,1.292c0.089,1.218,0.71,0.877,0.941,1.647c0.127,0.421-0.296,0.928-0.237,1.248
									c0.179,0.966,0.878,1.481,1.7,1.721c2.567,0.751,8.408,0.966,10.19,0.331c2.886-1.028,3.461-1.451,5.137-1.156
									c1.676,0.295,3.352,0.59,3.352,0.59l1.261-7.162C186.38,281.13,183.822,280.785,181.84,280.148z"/>
							</g>
							
								<linearGradient id="SVGID_00000139276492309355706630000005451062323815100559_" gradientUnits="userSpaceOnUse" x1="241.9122" y1="224.2498" x2="235.0128" y2="296.3356">
								<stop  offset="0" style="stop-color:#9571CB"/>
								<stop  offset="0.9959" style="stop-color:#6237C0"/>
							</linearGradient>
							<path style="fill:url(#SVGID_00000139276492309355706630000005451062323815100559_);" d="M209.477,241.64
								c4.572,0,7.82-2.887,7.82-2.887l14.797,31.88c0,0,13.594-26.947,17.203-30.556c3.609-3.609,16.801-7.699,21.212,6.857
								c0,2.526-29.596,48.679-35.488,50.887c-5.892,2.208-12.07-6.256-17.484-24.421S209.477,241.64,209.477,241.64z"/>
							
								<linearGradient id="SVGID_00000017488675332222304880000007793746039022871703_" gradientUnits="userSpaceOnUse" x1="268.2509" y1="227.6564" x2="267.0478" y2="211.8971">
								<stop  offset="0" style="stop-color:#FFC085"/>
								<stop  offset="1" style="stop-color:#FA976E"/>
							</linearGradient>
							<path style="fill:url(#SVGID_00000017488675332222304880000007793746039022871703_);" d="M278.65,205.189
								c-4.09,8.782-4.571,24.662-4.571,24.662s-17.564,3.489-17.564,2.767c0-0.722,2.647-11.068,3.248-18.406
								C260.305,213.67,278.65,205.189,278.65,205.189z"/>
							
								<linearGradient id="SVGID_00000172407468322207173310000013396313656171830659_" gradientUnits="userSpaceOnUse" x1="257.9322" y1="182.2465" x2="279.0924" y2="209.1568">
								<stop  offset="0" style="stop-color:#FFC085"/>
								<stop  offset="1" style="stop-color:#FA976E"/>
							</linearGradient>
							<path style="fill:url(#SVGID_00000172407468322207173310000013396313656171830659_);" d="M260.685,175.234
								c-15.238,13.474-12.703,34.136-10.908,38.918c1.361,3.625,3.048,4.711,8.823,2.947c5.774-1.764,25.825-10.226,29.033-17.925
								c3.208-7.699,5.454-17.002-1.604-24.06C278.971,168.056,269.152,167.748,260.685,175.234z"/>
							
								<linearGradient id="SVGID_00000183212444489457860220000018149248601029325212_" gradientUnits="userSpaceOnUse" x1="261.9993" y1="230.3191" x2="263.2825" y2="308.274">
								<stop  offset="0" style="stop-color:#9571CB"/>
								<stop  offset="0.9959" style="stop-color:#6237C0"/>
							</linearGradient>
							<path style="fill:url(#SVGID_00000183212444489457860220000018149248601029325212_);" d="M266.219,229.249
								c-2.687,0-6.657-0.729-8.681-1.564c-9.117,4.878-15.011,16.649-17.545,27.148c-3.368,13.955,5.213,39.138,8.1,52.13
								c0,0,27.188,0.541,35.609,1.955c1.444-14.225,3-50.71,1.444-62.105c-1.432-10.485-5.226-14.097-10.914-19.785
								C272.252,227.966,268.671,229.249,266.219,229.249z"/>
							
								<linearGradient id="SVGID_00000065791367650136218220000003662417221441033654_" gradientUnits="userSpaceOnUse" x1="234.7139" y1="220.0411" x2="227.8942" y2="291.2947">
								<stop  offset="0" style="stop-color:#9571CB"/>
								<stop  offset="0.9959" style="stop-color:#6237C0"/>
							</linearGradient>
							<path style="fill:url(#SVGID_00000065791367650136218220000003662417221441033654_);" d="M265.658,235.104
								c7.416-3.526,20.852,2.246,8.982,19.409c-11.87,17.163-34.647,38.175-39.619,38.175s-53.734-3.85-53.734-3.85
								s1.444-5.774,1.444-9.464c0.802,0,42.827-0.481,46.195-1.925C232.295,276.006,255.873,239.756,265.658,235.104z"/>
							<g>
								<path style="fill:#9E86E0;" d="M212.257,279.216c-0.207,0-0.374-0.167-0.375-0.373c-0.001-0.207,0.167-0.376,0.374-0.377
									l7.71-0.033c1.973-0.009,4.013-0.017,5.949-0.467c2.525-0.586,4.89-1.952,6.657-3.848c0.861-0.923,1.6-1.983,2.314-3.009
									l2.813-4.039c1.581-2.27,3.215-4.615,4.759-6.972c3.255-4.97,6.649-8.745,10.946-13.524l1.45-1.615
									c0.139-0.154,0.377-0.166,0.529-0.029c0.154,0.138,0.168,0.376,0.029,0.53l-1.45,1.615
									c-4.443,4.942-7.653,8.512-10.877,13.433c-1.55,2.366-3.188,4.717-4.771,6.99l-2.814,4.038
									c-0.729,1.048-1.483,2.131-2.38,3.093c-1.868,2.003-4.367,3.447-7.036,4.066c-2.019,0.469-4.102,0.478-6.116,0.486
									l-7.71,0.033C212.258,279.216,212.258,279.216,212.257,279.216z"/>
							</g>
							<g>
								<path style="fill:#50448C;" d="M235.022,293.063c-3.384,0-22.002-1.421-22.793-1.481c-0.206-0.016-0.361-0.196-0.345-0.402
									c0.016-0.208,0.195-0.373,0.403-0.346c0.193,0.015,19.38,1.479,22.735,1.479c2.254,0,3.183-0.786,5.035-2.354
									c0.767-0.648,1.721-1.456,2.968-2.354c4.182-3.011,22.351-19.873,28.416-29.324c0.111-0.176,0.344-0.224,0.518-0.113
									c0.175,0.111,0.225,0.344,0.113,0.518c-6.109,9.521-24.4,26.498-28.608,29.529c-1.224,0.881-2.126,1.645-2.922,2.318
									C238.676,292.111,237.55,293.063,235.022,293.063z"/>
							</g>
							<g>
								
									<linearGradient id="SVGID_00000088107402741113727010000002484446348389907587_" gradientUnits="userSpaceOnUse" x1="253.6937" y1="205.4622" x2="278.7789" y2="205.4622">
									<stop  offset="0" style="stop-color:#263681"/>
									<stop  offset="0.9959" style="stop-color:#1A1248"/>
								</linearGradient>
								<path style="fill:url(#SVGID_00000088107402741113727010000002484446348389907587_);" d="M278.418,227.039
									c-1.804-1.892-3.847-4.037-4.866-6.677c-1.104-2.862-0.915-5.989-0.732-9.013c0.068-1.116,0.138-2.271,0.141-3.39
									c0.001-0.43-0.01-0.847-0.145-1.227c-0.211-0.587-0.692-1.02-1.203-1.478c-0.214-0.192-0.428-0.384-0.622-0.588
									c-1.494-1.566-1.84-3.748-2.174-5.859c-0.151-0.955-0.308-1.942-0.568-2.854c-0.143-0.495-0.341-1.055-0.732-1.459
									c-0.374-0.387-0.896-0.601-1.358-0.759c-1.221-0.417-2.561-0.62-3.858-0.816c-2.262-0.343-4.601-0.697-6.374-2.198
									c-1.927-1.629-2.719-4.439-1.926-6.835l0.475,0.157c-0.73,2.207-0.001,4.796,1.773,6.296
									c1.666,1.409,3.833,1.738,6.126,2.085c1.319,0.2,2.683,0.407,3.946,0.838c0.487,0.167,1.104,0.419,1.556,0.884
									c0.471,0.486,0.704,1.147,0.854,1.67c0.27,0.941,0.428,1.944,0.582,2.913c0.337,2.128,0.655,4.139,2.041,5.592
									c0.186,0.195,0.391,0.378,0.595,0.561c0.534,0.48,1.087,0.975,1.34,1.682c0.162,0.456,0.175,0.94,0.174,1.396
									c-0.003,1.134-0.073,2.296-0.142,3.419c-0.18,2.971-0.366,6.042,0.7,8.803c0.983,2.547,2.99,4.654,4.761,6.512
									L278.418,227.039z"/>
							</g>
							
								<linearGradient id="SVGID_00000060721748792701348500000016624799283126938782_" gradientUnits="userSpaceOnUse" x1="253.0095" y1="227.6247" x2="371.9682" y2="227.6247">
								<stop  offset="0" style="stop-color:#263681"/>
								<stop  offset="0.9959" style="stop-color:#1A1248"/>
							</linearGradient>
							<path style="fill:url(#SVGID_00000060721748792701348500000016624799283126938782_);" d="M253.206,184.818
								c0.814,3.85,5.535,5.361,8.248,5.695c2.932,0.361,6.542-2.425,8.457-0.176c1.308,1.536,0.934,3.835,1.39,5.801
								c0.753,3.247,3.796,5.539,4.75,8.733c0.528,1.767,0.367,3.665,0.049,5.482c-1.149,6.549-4.204,13.626-1.007,19.456
								c0.777,1.417,1.876,2.624,2.871,3.898c3.668,4.697,5.969,10.449,6.551,16.38c0.587,5.984-0.384,12.601,3.093,17.506
								c2.21,3.118,5.88,4.911,9.593,5.819c3.712,0.907,7.563,1.049,11.347,1.583c6.066,0.855,11.986,2.73,17.439,5.522
								c4.777,2.446,9.467,5.672,14.831,5.875c2.805,0.106,5.594-0.639,8.397-0.493c4.179,0.218,7.998,2.382,12.095,3.23
								c4.098,0.848,9.292-0.294,10.659-4.248c-3.672-0.061-6.623-3.29-7.814-6.763c-1.191-3.473-1.081-7.235-1.444-10.889
								c-0.994-9.991-6.226-20.026-15.195-24.539c-3.25-1.635-6.833-2.492-10.178-3.922c-3.345-1.43-6.604-3.618-8.092-6.938
								c-0.935-2.084-1.088-4.428-1.091-6.712c-0.006-3.948,0.391-7.925-0.202-11.828c-0.593-3.904-2.363-7.86-5.703-9.965
								c-2.806-1.768-6.435-2.07-8.961-4.219c-4.152-3.533-3.422-10.067-5.492-15.111c-1.522-3.709-4.748-6.678-8.57-7.888
								c-1.891-0.598-3.958-0.809-5.601-1.918c-2.35-1.587-3.318-4.665-5.618-6.323c-1.391-1.003-3.132-1.381-4.834-1.591
								c-6.497-0.804-14.974-0.664-20.663,2.547C257.804,171.474,251.848,178.397,253.206,184.818z"/>
							<path style="fill:#FFFFFF;" d="M249.021,205.757c0.26,1.681,0.52,3.148,2.453,3.47c1.932,0.322,4.979-1.896,5.462-3.47
								C255.375,204.648,249.504,205.292,249.021,205.757z"/>
						</g>
						<g>
							
								<linearGradient id="SVGID_00000034790517255999438880000006601437887869141644_" gradientUnits="userSpaceOnUse" x1="263.8083" y1="173.9917" x2="258.9961" y2="269.9141" gradientTransform="matrix(0.9965 -0.0833 0.0833 0.9965 -15.597 159.1661)">
								<stop  offset="0" style="stop-color:#263681"/>
								<stop  offset="0.9959" style="stop-color:#1A1248"/>
							</linearGradient>
							<path style="fill:url(#SVGID_00000034790517255999438880000006601437887869141644_);" d="M248.269,306.544
								c-16.135,22.555-17.932,111.838-17.932,111.838l24.876,0.093l8.106-21.442l2.923,20.52l24.881-2.08
								c3.96-39.927,16.72-82.524-7.206-109.948C280.913,302.984,248.269,306.544,248.269,306.544z"/>
							<g>
								<path style="fill:#374C99;" d="M263.556,397.113l-0.475-0.158c2.161-6.471,7.435-13.176,13.018-20.275
									c9.797-12.457,20.9-26.575,20.084-44.678l0.5-0.023c0.824,18.289-10.341,32.485-20.191,45.011
									C270.937,384.052,265.69,390.725,263.556,397.113z"/>
							</g>
						</g>
					</g>
				</g>
			</g>
			<g>
				<path style="fill:#50448C;" d="M353.446,331.038c-0.138,0-0.275-0.057-0.374-0.169c-0.184-0.206-0.164-0.523,0.043-0.705
					c0.977-0.865,1.959-1.774,2.92-2.702c0.2-0.191,0.517-0.186,0.707,0.012c0.192,0.199,0.187,0.516-0.012,0.707
					c-0.972,0.939-1.965,1.857-2.953,2.731C353.682,330.997,353.564,331.038,353.446,331.038z M360.562,324.018
					c-0.12,0-0.241-0.043-0.337-0.131c-0.204-0.185-0.219-0.502-0.032-0.706c0.894-0.979,1.774-1.988,2.618-2.996
					c0.18-0.212,0.493-0.239,0.705-0.061c0.212,0.177,0.239,0.492,0.063,0.704c-0.854,1.018-1.744,2.037-2.647,3.027
					C360.833,323.963,360.698,324.018,360.562,324.018z M366.905,316.293c-0.103,0-0.208-0.032-0.297-0.098
					c-0.223-0.164-0.27-0.477-0.105-0.699c0.784-1.063,1.559-2.154,2.3-3.248c0.155-0.229,0.464-0.286,0.695-0.133
					c0.229,0.155,0.287,0.467,0.133,0.695c-0.75,1.103-1.531,2.207-2.323,3.279C367.209,316.223,367.058,316.293,366.905,316.293z
					 M372.434,307.967c-0.088,0-0.176-0.022-0.256-0.07c-0.237-0.142-0.315-0.448-0.174-0.685c0.669-1.125,1.332-2.289,1.969-3.46
					c0.133-0.242,0.436-0.331,0.679-0.2c0.242,0.132,0.332,0.436,0.2,0.679c-0.644,1.182-1.313,2.357-1.988,3.493
					C372.77,307.88,372.604,307.967,372.434,307.967z M377.123,299.139c-0.071,0-0.145-0.016-0.213-0.048
					c-0.25-0.117-0.357-0.415-0.239-0.665c0.56-1.188,1.108-2.41,1.628-3.634c0.108-0.253,0.401-0.372,0.656-0.264
					c0.254,0.108,0.372,0.401,0.264,0.656c-0.525,1.234-1.078,2.468-1.644,3.667C377.49,299.034,377.31,299.139,377.123,299.139z
					 M380.948,289.904c-0.057,0-0.113-0.01-0.169-0.029c-0.26-0.094-0.395-0.38-0.302-0.64c0.448-1.246,0.878-2.515,1.277-3.772
					c0.083-0.263,0.367-0.408,0.628-0.325c0.264,0.084,0.409,0.365,0.325,0.628c-0.403,1.269-0.837,2.55-1.289,3.807
					C381.345,289.777,381.153,289.904,380.948,289.904z M383.886,280.349c-0.041,0-0.083-0.005-0.124-0.016
					c-0.268-0.069-0.429-0.342-0.36-0.608c0.331-1.286,0.64-2.59,0.918-3.874c0.059-0.27,0.32-0.444,0.594-0.383
					c0.271,0.058,0.441,0.324,0.383,0.594c-0.28,1.297-0.592,2.613-0.926,3.911C384.312,280.199,384.109,280.349,383.886,280.349z
					 M385.916,270.56c-0.026,0-0.053-0.002-0.079-0.006c-0.272-0.044-0.459-0.3-0.416-0.572c0.207-1.304,0.392-2.631,0.549-3.944
					c0.033-0.274,0.288-0.47,0.556-0.437c0.275,0.032,0.47,0.281,0.437,0.556c-0.158,1.325-0.344,2.665-0.553,3.981
					C386.37,270.384,386.157,270.56,385.916,270.56z M387.008,260.623c-0.011,0-0.021,0-0.031-0.001
					c-0.276-0.017-0.485-0.254-0.469-0.529c0.082-1.327,0.139-2.665,0.168-3.978c0.006-0.275,0.218-0.474,0.512-0.488
					c0.275,0.007,0.494,0.235,0.488,0.512c-0.03,1.324-0.087,2.676-0.17,4.015C387.49,260.419,387.27,260.623,387.008,260.623z
					 M387.135,250.628c-0.268,0-0.49-0.212-0.5-0.482c-0.048-1.312-0.123-2.649-0.224-3.974c-0.021-0.275,0.185-0.515,0.461-0.536
					c0.291-0.021,0.516,0.186,0.537,0.461c0.101,1.338,0.177,2.688,0.226,4.013c0.01,0.276-0.206,0.508-0.481,0.518
					C387.147,250.628,387.141,250.628,387.135,250.628z M386.271,240.67c-0.245,0-0.46-0.181-0.494-0.432
					c-0.179-1.293-0.39-2.615-0.625-3.93c-0.049-0.272,0.132-0.532,0.404-0.581c0.269-0.051,0.532,0.132,0.58,0.404
					c0.238,1.328,0.45,2.664,0.631,3.97c0.038,0.273-0.153,0.526-0.427,0.564C386.317,240.668,386.295,240.67,386.271,240.67z
					 M384.39,230.853c-0.225,0-0.429-0.152-0.485-0.38c-0.318-1.29-0.667-2.582-1.035-3.841c-0.078-0.265,0.074-0.543,0.339-0.621
					c0.267-0.078,0.543,0.076,0.62,0.339c0.373,1.273,0.725,2.579,1.047,3.883c0.066,0.268-0.098,0.539-0.365,0.605
					C384.47,230.848,384.429,230.853,384.39,230.853z M358.355,224.74c-0.257,0-0.475-0.197-0.497-0.457
					c-0.023-0.275,0.181-0.517,0.456-0.541c1.283-0.109,2.555-0.382,3.776-0.811c0.268-0.093,0.547,0.045,0.638,0.306
					c0.092,0.261-0.046,0.546-0.306,0.637c-1.303,0.457-2.656,0.748-4.024,0.864C358.384,224.739,358.37,224.74,358.355,224.74z
					 M352.451,224.001c-0.058,0-0.117-0.01-0.175-0.031c-1.361-0.507-2.561-1.232-3.564-2.155c-0.204-0.187-0.217-0.503-0.03-0.707
					c0.188-0.203,0.504-0.216,0.706-0.03c0.909,0.835,1.998,1.493,3.238,1.954c0.259,0.097,0.39,0.384,0.294,0.643
					C352.844,223.877,352.654,224.001,352.451,224.001z M381.459,221.298c-0.201,0-0.392-0.123-0.468-0.323
					c-0.487-1.284-1.006-2.512-1.54-3.649c-0.118-0.25-0.011-0.548,0.239-0.666c0.247-0.117,0.548-0.01,0.665,0.24
					c0.546,1.161,1.074,2.412,1.571,3.72c0.098,0.258-0.032,0.547-0.29,0.645C381.578,221.288,381.517,221.298,381.459,221.298z
					 M367.376,220.851c-0.137,0-0.272-0.056-0.371-0.165c-0.184-0.205-0.169-0.521,0.036-0.706c0.937-0.848,1.813-1.821,2.605-2.893
					c0.165-0.222,0.479-0.268,0.699-0.105c0.223,0.164,0.27,0.477,0.105,0.699c-0.831,1.125-1.753,2.148-2.739,3.04
					C367.615,220.809,367.496,220.851,367.376,220.851z M346.12,216.817c-0.228,0-0.434-0.156-0.487-0.387
					c-0.193-0.832-0.291-1.69-0.291-2.549c0.001-0.538,0.039-1.079,0.113-1.607c0.038-0.273,0.299-0.465,0.565-0.426
					c0.273,0.038,0.464,0.291,0.426,0.564c-0.067,0.483-0.103,0.978-0.104,1.469c0,0.782,0.089,1.563,0.266,2.322
					c0.063,0.269-0.105,0.538-0.374,0.6C346.195,216.813,346.157,216.817,346.12,216.817z M372.991,212.673
					c-0.066,0-0.134-0.013-0.198-0.041c-0.253-0.109-0.37-0.403-0.261-0.657c0.493-1.145,0.948-2.391,1.353-3.705
					c0.08-0.265,0.362-0.414,0.625-0.331c0.213,0.066,0.351,0.262,0.353,0.474c0.881,0.974,1.725,2.05,2.507,3.2
					c0.155,0.228,0.097,0.539-0.132,0.694c-0.226,0.155-0.538,0.098-0.694-0.132c-0.636-0.934-1.313-1.817-2.018-2.633
					c-0.332,0.991-0.692,1.939-1.076,2.828C373.369,212.56,373.184,212.673,372.991,212.673z M348.248,207.371
					c-0.105,0-0.212-0.033-0.303-0.102c-0.22-0.167-0.263-0.481-0.096-0.701c0.556-0.732,1.193-1.406,1.895-2.001
					c0.36-0.306,0.727-0.589,1.102-0.853c0.224-0.158,0.537-0.104,0.696,0.122c0.159,0.226,0.104,0.538-0.122,0.696
					c-0.35,0.246-0.693,0.511-1.03,0.797c-0.646,0.548-1.232,1.168-1.744,1.843C348.547,207.303,348.398,207.371,348.248,207.371z
					 M369.956,205.348c-0.094,0-0.188-0.026-0.271-0.08c-1.102-0.713-2.265-1.322-3.458-1.81c-0.255-0.104-0.378-0.396-0.273-0.652
					c0.104-0.256,0.397-0.378,0.652-0.273c1.25,0.511,2.469,1.149,3.622,1.895c0.232,0.15,0.298,0.46,0.148,0.691
					C370.28,205.267,370.119,205.348,369.956,205.348z M375.793,203.091c-0.031,0-0.064-0.003-0.095-0.009
					c-0.271-0.052-0.449-0.314-0.397-0.585l0.131-0.699c0.196-1.07,0.374-2.145,0.531-3.223c0.041-0.273,0.295-0.465,0.567-0.422
					c0.273,0.04,0.462,0.293,0.423,0.567c-0.159,1.09-0.339,2.176-0.537,3.259l-0.133,0.707
					C376.237,202.924,376.027,203.091,375.793,203.091z M356.622,202.32c-0.235,0-0.445-0.167-0.49-0.408
					c-0.051-0.271,0.128-0.533,0.399-0.583c1.319-0.247,2.721-0.32,4.11-0.223c0.275,0.019,0.483,0.258,0.464,0.534
					c-0.02,0.277-0.278,0.489-0.534,0.463c-1.306-0.091-2.619-0.023-3.856,0.208C356.684,202.317,356.653,202.32,356.622,202.32z
					 M377.136,193.186c-0.014,0-0.027,0-0.041-0.001c-0.275-0.023-0.48-0.264-0.458-0.539c0.106-1.322,0.186-2.658,0.234-3.971
					c0.011-0.275,0.249-0.509,0.519-0.481c0.276,0.01,0.491,0.242,0.481,0.518c-0.05,1.327-0.13,2.678-0.238,4.015
					C377.613,192.988,377.394,193.186,377.136,193.186z M377.406,183.195c-0.271,0-0.492-0.215-0.5-0.487
					c-0.034-1.313-0.098-2.65-0.189-3.975c-0.018-0.275,0.19-0.514,0.465-0.533c0.267-0.021,0.514,0.189,0.533,0.465
					c0.091,1.339,0.155,2.69,0.19,4.017c0.007,0.276-0.211,0.506-0.486,0.513C377.415,183.195,377.41,183.195,377.406,183.195z
					 M269.647,174.971c-0.777,0-1.556-0.075-2.314-0.222c-0.271-0.053-0.448-0.315-0.396-0.586c0.053-0.272,0.32-0.448,0.587-0.395
					c0.695,0.135,1.41,0.204,2.123,0.204c0.003,0,0.005,0,0.008,0c0.559,0,1.124-0.042,1.681-0.125
					c0.27-0.035,0.528,0.148,0.567,0.421c0.041,0.273-0.148,0.527-0.421,0.568c-0.604,0.09-1.22,0.135-1.827,0.135
					C269.652,174.971,269.649,174.971,269.647,174.971z M376.611,173.23c-0.246,0-0.461-0.183-0.494-0.434
					c-0.176-1.311-0.382-2.634-0.612-3.931c-0.049-0.271,0.133-0.531,0.404-0.579c0.273-0.051,0.531,0.132,0.58,0.405
					c0.233,1.312,0.441,2.648,0.618,3.973c0.037,0.274-0.155,0.525-0.429,0.562C376.656,173.229,376.633,173.23,376.611,173.23z
					 M276.897,172.57c-0.152,0-0.304-0.07-0.402-0.203c-0.164-0.222-0.117-0.535,0.105-0.699c1.04-0.77,1.931-1.693,2.646-2.746
					c0.156-0.229,0.47-0.285,0.694-0.132c0.228,0.155,0.287,0.466,0.132,0.695c-0.778,1.146-1.747,2.15-2.877,2.987
					C277.105,172.538,277.001,172.57,276.897,172.57z M262.056,172.216c-0.104,0-0.207-0.032-0.297-0.098
					c-1.084-0.799-2.127-1.686-3.098-2.634c-0.197-0.193-0.201-0.509-0.008-0.707c0.193-0.197,0.509-0.201,0.707-0.008
					c0.938,0.916,1.944,1.772,2.992,2.544c0.222,0.164,0.27,0.477,0.105,0.699C262.361,172.146,262.21,172.216,262.056,172.216z
					 M255.179,165.023c-0.161,0-0.318-0.078-0.415-0.222c-0.759-1.131-1.439-2.319-2.021-3.53c-0.12-0.249-0.016-0.548,0.233-0.667
					c0.249-0.119,0.548-0.015,0.667,0.234c0.563,1.169,1.219,2.315,1.95,3.407c0.154,0.229,0.093,0.54-0.137,0.694
					C255.373,164.996,255.276,165.023,255.179,165.023z M281.7,164.121c-0.027,0-0.056-0.002-0.084-0.007
					c-0.272-0.045-0.456-0.303-0.41-0.576c0.214-1.276,0.363-2.595,0.446-3.921c0.017-0.274,0.235-0.479,0.53-0.468
					c0.275,0.017,0.485,0.254,0.468,0.53c-0.085,1.36-0.239,2.714-0.458,4.024C282.151,163.948,281.939,164.121,281.7,164.121z
					 M374.753,163.408c-0.225,0-0.43-0.152-0.485-0.38c-0.317-1.286-0.666-2.578-1.037-3.839c-0.078-0.265,0.073-0.543,0.338-0.621
					c0.269-0.081,0.544,0.073,0.621,0.338c0.376,1.275,0.729,2.581,1.049,3.882c0.066,0.268-0.098,0.539-0.365,0.605
					C374.832,163.404,374.792,163.408,374.753,163.408z M251.182,155.913c-0.225,0-0.429-0.152-0.485-0.38
					c-0.321-1.297-0.564-2.641-0.721-3.996c-0.032-0.274,0.165-0.522,0.439-0.554c0.277-0.033,0.522,0.165,0.554,0.439
					c0.153,1.313,0.388,2.615,0.699,3.871c0.066,0.268-0.098,0.539-0.365,0.605C251.262,155.908,251.222,155.913,251.182,155.913z
					 M282.065,154.155c-0.256,0-0.475-0.196-0.497-0.456c-0.115-1.299-0.295-2.616-0.535-3.914c-0.051-0.271,0.129-0.533,0.4-0.583
					c0.268-0.053,0.532,0.129,0.582,0.4c0.247,1.329,0.432,2.678,0.549,4.009c0.024,0.275-0.179,0.518-0.454,0.542
					C282.095,154.154,282.08,154.155,282.065,154.155z M371.819,153.853c-0.203,0-0.395-0.124-0.469-0.327
					c-0.457-1.236-0.951-2.48-1.467-3.696c-0.108-0.254,0.011-0.548,0.265-0.656c0.252-0.107,0.548,0.011,0.655,0.265
					c0.522,1.23,1.021,2.489,1.484,3.74c0.096,0.259-0.036,0.546-0.295,0.642C371.935,153.844,371.877,153.853,371.819,153.853z
					 M250.313,145.989c-0.01,0-0.02-0.001-0.03-0.001c-0.276-0.017-0.486-0.253-0.469-0.529c0.08-1.334,0.237-2.688,0.467-4.026
					c0.046-0.272,0.308-0.455,0.577-0.408c0.272,0.046,0.455,0.305,0.408,0.577c-0.224,1.302-0.376,2.62-0.454,3.917
					C250.795,145.785,250.575,145.989,250.313,145.989z M367.804,144.701c-0.182,0-0.356-0.099-0.445-0.273
					c-0.601-1.174-1.238-2.349-1.897-3.492c-0.138-0.239-0.056-0.545,0.184-0.683c0.239-0.138,0.545-0.057,0.684,0.184
					c0.666,1.158,1.313,2.347,1.921,3.536c0.126,0.246,0.028,0.547-0.218,0.673C367.96,144.683,367.882,144.701,367.804,144.701z
					 M280.007,144.393c-0.208,0-0.402-0.131-0.474-0.339c-0.422-1.241-0.91-2.477-1.451-3.673c-0.114-0.252-0.003-0.548,0.249-0.662
					c0.248-0.113,0.548-0.003,0.661,0.249c0.556,1.226,1.056,2.492,1.488,3.763c0.089,0.262-0.051,0.546-0.313,0.635
					C280.114,144.385,280.06,144.393,280.007,144.393z M252.257,136.211c-0.054,0-0.108-0.009-0.162-0.027
					c-0.261-0.089-0.4-0.374-0.311-0.635c0.436-1.275,0.944-2.54,1.511-3.759c0.115-0.251,0.414-0.358,0.664-0.243
					c0.25,0.117,0.358,0.414,0.242,0.665c-0.552,1.187-1.047,2.418-1.472,3.66C252.66,136.08,252.465,136.211,252.257,136.211z
					 M362.708,136.105c-0.159,0-0.316-0.076-0.413-0.218c-0.748-1.098-1.53-2.182-2.323-3.224c-0.168-0.219-0.125-0.533,0.095-0.701
					c0.217-0.166,0.533-0.126,0.7,0.095c0.804,1.056,1.596,2.154,2.354,3.266c0.155,0.228,0.097,0.539-0.132,0.695
					C362.903,136.077,362.805,136.105,362.708,136.105z M275.59,135.461c-0.157,0-0.312-0.074-0.409-0.213
					c-0.747-1.066-1.576-2.095-2.465-3.059c-0.187-0.203-0.174-0.52,0.029-0.707c0.203-0.186,0.52-0.174,0.707,0.029
					c0.918,0.997,1.774,2.06,2.547,3.162c0.159,0.226,0.104,0.538-0.122,0.697C275.79,135.432,275.69,135.461,275.59,135.461z
					 M268.633,128.347c-0.105,0-0.211-0.033-0.301-0.101c-1.007-0.758-2.107-1.504-3.267-2.217
					c-0.235-0.145-0.309-0.452-0.164-0.688c0.143-0.235,0.45-0.31,0.687-0.164c1.188,0.729,2.313,1.493,3.345,2.27
					c0.221,0.166,0.265,0.479,0.099,0.7C268.934,128.278,268.785,128.347,268.633,128.347z M356.55,128.238
					c-0.137,0-0.273-0.056-0.372-0.167c-0.747-0.833-1.523-1.66-2.307-2.457l-0.423-0.426c-0.196-0.195-0.196-0.511-0.002-0.707
					c0.195-0.196,0.512-0.195,0.707-0.001l0.431,0.433c0.795,0.808,1.581,1.646,2.338,2.491c0.185,0.206,0.167,0.521-0.038,0.706
					C356.789,128.196,356.67,128.238,356.55,128.238z M256.69,127.279c-0.096,0-0.192-0.027-0.277-0.084
					c-0.229-0.153-0.292-0.464-0.139-0.693c0.738-1.107,1.546-2.202,2.4-3.256c0.176-0.215,0.49-0.247,0.704-0.073
					c0.214,0.174,0.247,0.489,0.073,0.703c-0.836,1.03-1.625,2.1-2.346,3.181C257.009,127.201,256.851,127.279,256.69,127.279z
					 M260.059,123.236c-0.074,0-0.148-0.016-0.22-0.051c-1.087-0.531-2.269-1.079-3.611-1.675c-0.252-0.112-0.366-0.407-0.254-0.66
					c0.112-0.253,0.408-0.365,0.66-0.254c1.353,0.601,2.546,1.154,3.645,1.69c0.248,0.121,0.351,0.42,0.229,0.668
					C260.421,123.133,260.244,123.236,260.059,123.236z M349.375,121.288c-0.113,0-0.228-0.038-0.32-0.116
					c-1.005-0.84-2.054-1.667-3.119-2.459c-0.221-0.165-0.268-0.478-0.102-0.7c0.166-0.221,0.48-0.266,0.7-0.103
					c1.079,0.803,2.143,1.643,3.162,2.494c0.212,0.177,0.24,0.493,0.063,0.705C349.66,121.227,349.517,121.288,349.375,121.288z
					 M263.14,119.665c-0.133,0-0.265-0.052-0.363-0.156c-0.19-0.2-0.181-0.517,0.019-0.707c0.964-0.914,1.987-1.808,3.043-2.657
					c0.216-0.171,0.529-0.14,0.703,0.076c0.173,0.215,0.139,0.53-0.076,0.703c-1.034,0.833-2.038,1.709-2.982,2.604
					C263.387,119.62,263.263,119.665,263.14,119.665z M250.914,119.198c-0.064,0-0.13-0.012-0.193-0.039l-1.613-0.675
					c-0.685-0.286-1.376-0.555-2.074-0.804c-0.26-0.093-0.396-0.379-0.302-0.639c0.093-0.26,0.38-0.397,0.639-0.302
					c0.714,0.255,1.422,0.53,2.123,0.823l1.613,0.675c0.254,0.106,0.374,0.399,0.268,0.654
					C251.295,119.082,251.109,119.198,250.914,119.198z M217.737,117.332c-0.209,0-0.404-0.132-0.474-0.342
					c-0.087-0.262,0.054-0.545,0.316-0.632c1.262-0.422,2.572-0.79,3.895-1.097c0.272-0.061,0.538,0.105,0.6,0.374
					c0.062,0.269-0.105,0.538-0.375,0.6c-1.292,0.299-2.571,0.659-3.804,1.071C217.843,117.324,217.79,117.332,217.737,117.332z
					 M241.433,116.08c-0.034,0-0.069-0.003-0.104-0.011c-1.278-0.27-2.591-0.487-3.902-0.646c-0.274-0.034-0.47-0.283-0.437-0.557
					c0.033-0.274,0.281-0.47,0.557-0.437c1.34,0.163,2.682,0.385,3.988,0.661c0.27,0.057,0.443,0.322,0.386,0.592
					C241.872,115.918,241.664,116.08,241.433,116.08z M341.274,115.439c-0.091,0-0.182-0.024-0.264-0.075
					c-1.124-0.697-2.278-1.37-3.432-2c-0.243-0.133-0.332-0.437-0.199-0.679c0.133-0.243,0.44-0.332,0.678-0.199
					c1.17,0.639,2.341,1.321,3.48,2.028c0.234,0.146,0.307,0.454,0.161,0.688C341.604,115.355,341.441,115.439,341.274,115.439z
					 M227.505,115.293c-0.255,0-0.473-0.194-0.497-0.453c-0.026-0.275,0.176-0.519,0.451-0.545c1.329-0.126,2.688-0.195,4.037-0.206
					c0.001,0,0.003,0,0.004,0c0.275,0,0.498,0.221,0.5,0.496c0.003,0.276-0.22,0.501-0.496,0.504
					c-1.321,0.011-2.65,0.078-3.951,0.201C227.537,115.292,227.521,115.293,227.505,115.293z M271.032,113.548
					c-0.165,0-0.327-0.082-0.423-0.233c-0.147-0.233-0.078-0.542,0.155-0.689c1.128-0.713,2.3-1.398,3.485-2.035
					c0.243-0.13,0.547-0.04,0.677,0.204c0.131,0.243,0.039,0.546-0.204,0.677c-1.164,0.626-2.315,1.298-3.423,1.999
					C271.216,113.523,271.124,113.548,271.032,113.548z M332.442,110.763c-0.068,0-0.138-0.014-0.203-0.043
					c-1.204-0.536-2.439-1.046-3.673-1.517c-0.258-0.099-0.387-0.388-0.288-0.646c0.099-0.258,0.386-0.388,0.645-0.289
					c1.249,0.477,2.501,0.994,3.722,1.537c0.253,0.112,0.366,0.408,0.254,0.66C332.816,110.653,332.633,110.763,332.442,110.763z
					 M279.909,108.971c-0.196,0-0.384-0.117-0.463-0.31c-0.104-0.255,0.018-0.547,0.273-0.652c1.232-0.506,2.505-0.977,3.782-1.4
					c0.262-0.087,0.545,0.056,0.632,0.317c0.087,0.262-0.055,0.545-0.317,0.632c-1.255,0.417-2.506,0.879-3.718,1.376
					C280.037,108.96,279.972,108.971,279.909,108.971z M323.059,107.326c-0.046,0-0.093-0.006-0.14-0.02
					c-1.271-0.37-2.564-0.708-3.844-1.005c-0.269-0.062-0.437-0.331-0.374-0.6c0.063-0.269,0.329-0.438,0.601-0.373
					c1.297,0.301,2.608,0.644,3.896,1.019c0.266,0.077,0.418,0.354,0.341,0.62C323.475,107.185,323.276,107.326,323.059,107.326z
					 M289.439,105.985c-0.229,0-0.435-0.158-0.488-0.391c-0.06-0.27,0.109-0.537,0.379-0.597c1.303-0.291,2.636-0.544,3.962-0.751
					c0.269-0.039,0.528,0.144,0.571,0.417c0.042,0.273-0.145,0.529-0.417,0.571c-1.305,0.204-2.616,0.452-3.897,0.738
					C289.511,105.981,289.475,105.985,289.439,105.985z M313.296,105.201c-0.024,0-0.049-0.002-0.073-0.005
					c-1.308-0.19-2.635-0.345-3.945-0.46c-0.275-0.024-0.479-0.267-0.454-0.542c0.023-0.275,0.274-0.482,0.542-0.454
					c1.329,0.117,2.676,0.274,4.002,0.467c0.273,0.039,0.462,0.293,0.423,0.567C313.754,105.022,313.54,105.201,313.296,105.201z
					 M299.332,104.596c-0.263,0-0.482-0.204-0.499-0.47c-0.017-0.275,0.193-0.513,0.469-0.529c1.331-0.081,2.686-0.123,4.028-0.123
					c0.276,0,0.5,0.224,0.5,0.5c0,0.276-0.224,0.5-0.5,0.5c-1.321,0.001-2.656,0.041-3.968,0.121
					C299.352,104.595,299.341,104.596,299.332,104.596z"/>
			</g>
			<g>
				
					<linearGradient id="SVGID_00000011739180728664107580000007087755874482487487_" gradientUnits="userSpaceOnUse" x1="327.8968" y1="135.0324" x2="328.5785" y2="161.9349">
					<stop  offset="0" style="stop-color:#9571CB"/>
					<stop  offset="0.9959" style="stop-color:#6237C0"/>
				</linearGradient>
				<path style="fill:url(#SVGID_00000011739180728664107580000007087755874482487487_);" d="M376.247,161.445h-95.998
					c-1.587,0-2.874-1.286-2.874-2.874v-19.37c0-1.587,1.287-2.874,2.874-2.874h95.998c1.587,0,2.874,1.286,2.874,2.874v19.37
					C379.12,160.159,377.834,161.445,376.247,161.445z"/>
				<g>
					
						<radialGradient id="SVGID_00000119817358463663246490000010868634345605519239_" cx="289.0115" cy="135.7608" r="81.6863" gradientUnits="userSpaceOnUse">
						<stop  offset="0" style="stop-color:#FFD042"/>
						<stop  offset="1" style="stop-color:#F2830B"/>
					</radialGradient>
					<polygon style="fill:url(#SVGID_00000119817358463663246490000010868634345605519239_);" points="290.785,141.224 
						293.023,145.759 298.028,146.486 294.407,150.016 295.261,155 290.785,152.647 286.309,155 287.164,150.016 283.543,146.486 
						288.547,145.759 					"/>
					
						<radialGradient id="SVGID_00000088851652736375696310000016628330610893178046_" cx="289.0115" cy="135.7608" r="81.6865" gradientUnits="userSpaceOnUse">
						<stop  offset="0" style="stop-color:#FFD042"/>
						<stop  offset="1" style="stop-color:#F2830B"/>
					</radialGradient>
					<polygon style="fill:url(#SVGID_00000088851652736375696310000016628330610893178046_);" points="309.517,141.224 
						311.755,145.759 316.759,146.486 313.138,150.016 313.993,155 309.517,152.647 305.04,155 305.895,150.016 302.274,146.486 
						307.279,145.759 					"/>
					
						<radialGradient id="SVGID_00000170979453493652856680000003034230990338381213_" cx="289.0116" cy="135.7608" r="81.686" gradientUnits="userSpaceOnUse">
						<stop  offset="0" style="stop-color:#FFD042"/>
						<stop  offset="1" style="stop-color:#F2830B"/>
					</radialGradient>
					<polygon style="fill:url(#SVGID_00000170979453493652856680000003034230990338381213_);" points="328.248,141.224 
						330.486,145.759 335.49,146.486 331.869,150.016 332.724,155 328.248,152.647 323.772,155 324.627,150.016 321.005,146.486 
						326.01,145.759 					"/>
					
						<radialGradient id="SVGID_00000139996314005800768600000011810273778804333470_" cx="289.0117" cy="135.7608" r="81.6862" gradientUnits="userSpaceOnUse">
						<stop  offset="0" style="stop-color:#FFD042"/>
						<stop  offset="1" style="stop-color:#F2830B"/>
					</radialGradient>
					<polygon style="fill:url(#SVGID_00000139996314005800768600000011810273778804333470_);" points="346.979,141.224 
						349.217,145.759 354.222,146.486 350.6,150.016 351.455,155 346.979,152.647 342.503,155 343.358,150.016 339.737,146.486 
						344.741,145.759 					"/>
					
						<radialGradient id="SVGID_00000077308488796642892020000008659290305572724378_" cx="289.0112" cy="135.7608" r="81.6868" gradientUnits="userSpaceOnUse">
						<stop  offset="0" style="stop-color:#FFD042"/>
						<stop  offset="1" style="stop-color:#F2830B"/>
					</radialGradient>
					<polygon style="fill:url(#SVGID_00000077308488796642892020000008659290305572724378_);" points="365.71,141.224 
						367.948,145.759 372.953,146.486 369.332,150.016 370.186,155 365.71,152.647 361.234,155 362.089,150.016 358.468,146.486 
						363.472,145.759 					"/>
				</g>
			</g>
			<g>
				
					<linearGradient id="SVGID_00000095300849545557756530000005830286278438347175_" gradientUnits="userSpaceOnUse" x1="199.8318" y1="109.0638" x2="199.422" y2="152.8177">
					<stop  offset="0" style="stop-color:#FF8561"/>
					<stop  offset="1" style="stop-color:#EF4C43"/>
				</linearGradient>
				<path style="fill:url(#SVGID_00000095300849545557756530000005830286278438347175_);" d="M217.817,141.961h-4.438l0.014,9.276
					l-10.758-9.276h-21.125c-2.788,0-5.048-2.26-5.048-5.049v-19.807c0-2.788,2.26-5.049,5.048-5.049h36.306
					c2.788,0,5.048,2.26,5.048,5.049v19.807C222.865,139.701,220.605,141.961,217.817,141.961z"/>
				
					<linearGradient id="SVGID_00000170278758141682930130000006263958549533711278_" gradientUnits="userSpaceOnUse" x1="199.6049" y1="119.1799" x2="199.7843" y2="133.7162">
					<stop  offset="0.0041" style="stop-color:#FFFFFF"/>
					<stop  offset="1" style="stop-color:#F5F0FF"/>
				</linearGradient>
				<path style="fill:url(#SVGID_00000170278758141682930130000006263958549533711278_);" d="M199.664,121.473
					c-4.921-4.921-10.973-1.33-9.377,4.256c1.596,5.586,9.377,9.311,9.377,9.311s7.781-3.724,9.377-9.311
					C210.637,120.143,204.585,116.551,199.664,121.473z"/>
			</g>
			<g>
				<g>
					
						<linearGradient id="SVGID_00000087410771792180427980000003844779808686591396_" gradientUnits="userSpaceOnUse" x1="330.9841" y1="319.9322" x2="332.9329" y2="393.9872">
						<stop  offset="0" style="stop-color:#FAAD1E"/>
						<stop  offset="0.9959" style="stop-color:#F2830B"/>
					</linearGradient>
					<polygon style="fill:url(#SVGID_00000087410771792180427980000003844779808686591396_);" points="370.778,393.678 
						295.072,393.678 303.373,316.977 362.477,316.977 					"/>
					<g>
						
							<linearGradient id="SVGID_00000137817444395898179060000017208800270059483562_" gradientUnits="userSpaceOnUse" x1="332.2756" y1="291.6763" x2="333.2542" y2="328.8665">
							<stop  offset="0" style="stop-color:#FAAD1E"/>
							<stop  offset="0.9959" style="stop-color:#F2830B"/>
						</linearGradient>
						<path style="fill:url(#SVGID_00000137817444395898179060000017208800270059483562_);" d="M345.542,328.543
							c-0.703,0-1.273-0.57-1.273-1.273v-21.715c0-6.255-5.089-11.345-11.345-11.345c-6.256,0-11.345,5.089-11.345,11.345v21.715
							c0,0.703-0.569,1.273-1.273,1.273c-0.703,0-1.273-0.57-1.273-1.273v-21.715c0-7.659,6.231-13.891,13.891-13.891
							s13.891,6.231,13.891,13.891v21.715C346.815,327.973,346.245,328.543,345.542,328.543z"/>
					</g>
				</g>
				<g>
					
						<linearGradient id="SVGID_00000134953535453003145400000010155173691139013534_" gradientUnits="userSpaceOnUse" x1="300.4315" y1="328.4228" x2="302.3802" y2="402.4778">
						<stop  offset="0" style="stop-color:#9571CB"/>
						<stop  offset="0.9959" style="stop-color:#6237C0"/>
					</linearGradient>
					<polygon style="fill:url(#SVGID_00000134953535453003145400000010155173691139013534_);" points="340.225,402.169 
						264.519,402.169 272.82,325.467 331.924,325.467 					"/>
					
						<linearGradient id="SVGID_00000059305399412320798530000007808645613940673202_" gradientUnits="userSpaceOnUse" x1="301.0766" y1="344.3422" x2="301.3539" y2="354.8768">
						<stop  offset="0" style="stop-color:#663CC1"/>
						<stop  offset="0.9959" style="stop-color:#6237C0"/>
					</linearGradient>
					
						<rect x="289.65" y="344.643" style="fill:url(#SVGID_00000059305399412320798530000007808645613940673202_);" width="23.13" height="9.933"/>
					<g>
						
							<linearGradient id="SVGID_00000106135207031555590610000003772437043272722070_" gradientUnits="userSpaceOnUse" x1="301.723" y1="300.1669" x2="302.7017" y2="337.3571">
							<stop  offset="0" style="stop-color:#9571CB"/>
							<stop  offset="0.9959" style="stop-color:#6237C0"/>
						</linearGradient>
						<path style="fill:url(#SVGID_00000106135207031555590610000003772437043272722070_);" d="M314.989,337.033
							c-0.703,0-1.273-0.57-1.273-1.273v-21.715c0-6.255-5.089-11.345-11.345-11.345c-6.256,0-11.345,5.089-11.345,11.345v21.715
							c0,0.703-0.569,1.273-1.273,1.273c-0.703,0-1.273-0.57-1.273-1.273v-21.715c0-7.659,6.231-13.891,13.891-13.891
							c7.659,0,13.891,6.231,13.891,13.891v21.715C316.262,336.463,315.693,337.033,314.989,337.033z"/>
					</g>
				</g>
			</g>
		</g>
	</g>
</g>
</svg>
