<?xml version="1.0" encoding="utf-8"?>
<!-- Generator: Adobe Illustrator 27.5.0, SVG Export Plug-In . SVG Version: 6.00 Build 0)  -->
<svg version="1.1" xmlns="http://www.w3.org/2000/svg" xmlns:xlink="http://www.w3.org/1999/xlink" x="0px" y="0px"
	 viewBox="0 0 500 500" style="enable-background:new 0 0 500 500;" xml:space="preserve">
<g id="BACKGROUND">
	<rect style="opacity:0.4;fill:#E8E8E8;" width="500" height="500"/>
</g>
<g id="OBJECTS">
	<g>
		<g style="opacity:0.3;">
			<rect y="401" style="fill:#D1D1D1;" width="500" height="99"/>
		</g>
		<g>
			<g>
				<g>
					<polygon style="fill:#F26363;" points="79.584,79.295 84.768,88.154 90.064,78.921 					"/>
				</g>
				<g>
					<path style="fill:#F26363;" d="M104.695,81.079h-38.67c-3.411,0-6.177-2.765-6.177-6.177V49.333
						c0-3.411,2.765-6.177,6.177-6.177h38.67c3.411,0,6.177,2.765,6.177,6.177v25.569C110.871,78.313,108.106,81.079,104.695,81.079
						z"/>
				</g>
				<g>
					<path style="fill:#FFFFFF;" d="M92.623,56.366c-0.921-0.999-2.185-1.549-3.559-1.549c-1.027,0-1.968,0.325-2.796,0.965
						c-0.418,0.323-0.797,0.719-1.13,1.18c-0.334-0.461-0.712-0.857-1.13-1.18c-0.828-0.64-1.769-0.965-2.796-0.965
						c-1.374,0-2.638,0.55-3.559,1.549c-0.91,0.987-1.411,2.336-1.411,3.798c0,1.505,0.561,2.882,1.765,4.335
						c1.077,1.299,2.625,2.619,4.417,4.146c0.612,0.522,1.306,1.113,2.026,1.743c0.19,0.167,0.434,0.258,0.688,0.258
						c0.253,0,0.497-0.092,0.688-0.258c0.72-0.63,1.415-1.222,2.027-1.743c1.792-1.527,3.34-2.846,4.417-4.146
						c1.204-1.453,1.765-2.83,1.765-4.335C94.035,58.702,93.533,57.353,92.623,56.366z"/>
				</g>
			</g>
			<g>
				<g style="opacity:0.72;">
					<path style="fill:#D1D1D1;" d="M405.551,436.389c0,10.75-61.751,16.616-137.925,16.616c-76.174,0-136.109-6.02-137.925-16.616
						c-3.337-19.465,61.751-19.465,137.925-19.465C343.8,416.924,405.551,416.924,405.551,436.389z"/>
				</g>
				<g>
					<g>
						<g>
							<g>
								<path style="fill:#2D3962;" d="M350.743,436.067H162.519c-5.402,0-9.782-4.38-9.782-9.782V82.69
									c0-5.402,4.38-9.782,9.782-9.782h188.223c5.402,0,9.782,4.38,9.782,9.782v343.596
									C360.525,431.688,356.145,436.067,350.743,436.067z"/>
							</g>
							<g>
								<path style="fill:#FFFFFF;" d="M344.743,429.232H168.802c-5.123,0-9.276-4.153-9.276-9.276V89.303
									c0-5.123,4.153-9.276,9.276-9.276h175.942c5.123,0,9.276,4.153,9.276,9.276v330.652
									C354.02,425.078,349.867,429.232,344.743,429.232z"/>
							</g>
						</g>
						<g>
							<g>
								<path style="fill:#EAEAEA;" d="M344.52,241.429H168.26c-1.21,0-2.19-0.981-2.19-2.19l0,0c0-1.21,0.981-2.19,2.19-2.19
									H344.52c1.21,0,2.19,0.981,2.19,2.19l0,0C346.71,240.448,345.729,241.429,344.52,241.429z"/>
							</g>
							<g>
								<path style="fill:#C993C9;" d="M231.281,241.429H168.26c-1.21,0-2.19-0.981-2.19-2.19l0,0c0-1.21,0.981-2.19,2.19-2.19
									h62.811L231.281,241.429z"/>
							</g>
							<g>
								<path style="fill:#A863A4;" d="M233.262,239.218c0,1.556-1.261,2.817-2.817,2.817s-2.817-1.261-2.817-2.817
									c0-1.556,1.261-2.817,2.817-2.817S233.262,237.662,233.262,239.218z"/>
							</g>
						</g>
						<g>
							<g>
								<path style="fill:#D8D8D8;" d="M191.872,253.341h-21.886c-1.728,0-3.129-1.401-3.129-3.129l0,0
									c0-1.728,1.401-3.129,3.129-3.129h21.886c1.728,0,3.129,1.401,3.129,3.129l0,0C195,251.94,193.6,253.341,191.872,253.341z"
									/>
							</g>
							<g>
								<path style="fill:#D8D8D8;" d="M213.527,262.486h-43.541c-1.728,0-3.129-1.401-3.129-3.129l0,0
									c0-1.728,1.401-3.129,3.129-3.129h43.541c1.728,0,3.129,1.401,3.129,3.129l0,0
									C216.655,261.085,215.255,262.486,213.527,262.486z"/>
							</g>
						</g>
						<g>
							<g>
								<g>
									<path style="fill:#C993C9;" d="M185.002,301.48h-15.424c-1.397,0-2.529-1.132-2.529-2.529v-12.128
										c0-1.397,1.132-2.529,2.529-2.529h15.424c1.397,0,2.529,1.132,2.529,2.529v12.128
										C187.531,300.347,186.399,301.48,185.002,301.48z"/>
								</g>
								<g>
									<path style="fill:#E2E2E2;" d="M255.89,292.518h-61.567c-1.332,0-2.412-1.08-2.412-2.412v0c0-1.332,1.08-2.412,2.412-2.412
										h61.567c1.332,0,2.412,1.08,2.412,2.412v0C258.302,291.438,257.222,292.518,255.89,292.518z"/>
								</g>
								<g>
									<path style="fill:#E2E2E2;" d="M272.583,299.567h-78.26c-1.332,0-2.412-1.08-2.412-2.412l0,0
										c0-1.332,1.08-2.412,2.412-2.412h78.26c1.332,0,2.412,1.08,2.412,2.412l0,0
										C274.995,298.487,273.915,299.567,272.583,299.567z"/>
								</g>
							</g>
							<g>
								<g>
									<path style="fill:#C993C9;" d="M185.002,324.502h-15.424c-1.397,0-2.529-1.132-2.529-2.529v-12.128
										c0-1.397,1.132-2.529,2.529-2.529h15.424c1.397,0,2.529,1.132,2.529,2.529v12.128
										C187.531,323.37,186.399,324.502,185.002,324.502z"/>
								</g>
								<g>
									<path style="fill:#E2E2E2;" d="M245.26,315.54h-50.937c-1.332,0-2.412-1.08-2.412-2.412l0,0
										c0-1.332,1.08-2.412,2.412-2.412h50.937c1.332,0,2.412,1.08,2.412,2.412l0,0C247.672,314.46,246.592,315.54,245.26,315.54z
										"/>
								</g>
								<g>
									<path style="fill:#E2E2E2;" d="M254.564,322.589h-60.241c-1.332,0-2.412-1.08-2.412-2.412l0,0
										c0-1.332,1.08-2.412,2.412-2.412h60.241c1.332,0,2.412,1.08,2.412,2.412l0,0
										C256.976,321.509,255.896,322.589,254.564,322.589z"/>
								</g>
							</g>
							<g>
								<g>
									<path style="fill:#C993C9;" d="M185.002,347.524h-15.424c-1.397,0-2.529-1.132-2.529-2.529v-12.128
										c0-1.397,1.132-2.529,2.529-2.529h15.424c1.397,0,2.529,1.132,2.529,2.529v12.128
										C187.531,346.392,186.399,347.524,185.002,347.524z"/>
								</g>
								<g>
									<path style="fill:#E2E2E2;" d="M250.353,338.562h-56.03c-1.332,0-2.412-1.08-2.412-2.412l0,0
										c0-1.332,1.08-2.412,2.412-2.412h56.03c1.332,0,2.412,1.08,2.412,2.412l0,0
										C252.765,337.482,251.685,338.562,250.353,338.562z"/>
								</g>
								<g>
									<path style="fill:#E2E2E2;" d="M267.046,345.611h-72.723c-1.332,0-2.412-1.08-2.412-2.412l0,0
										c0-1.332,1.08-2.412,2.412-2.412h72.723c1.332,0,2.412,1.08,2.412,2.412l0,0
										C269.458,344.532,268.378,345.611,267.046,345.611z"/>
								</g>
							</g>
							<g>
								<g>
									<path style="fill:#C993C9;" d="M185.002,372.008h-15.424c-1.397,0-2.529-1.132-2.529-2.529v-12.128
										c0-1.397,1.132-2.529,2.529-2.529h15.424c1.397,0,2.529,1.132,2.529,2.529v12.128
										C187.531,370.875,186.399,372.008,185.002,372.008z"/>
								</g>
								<g>
									<path style="fill:#E2E2E2;" d="M237.871,363.046h-43.548c-1.332,0-2.412-1.08-2.412-2.412l0,0
										c0-1.332,1.08-2.412,2.412-2.412h43.548c1.332,0,2.412,1.08,2.412,2.412l0,0
										C240.283,361.966,239.203,363.046,237.871,363.046z"/>
								</g>
								<g>
									<path style="fill:#E2E2E2;" d="M263.495,370.095h-69.172c-1.332,0-2.412-1.08-2.412-2.412l0,0
										c0-1.332,1.08-2.412,2.412-2.412h69.172c1.332,0,2.412,1.08,2.412,2.412l0,0
										C265.907,369.015,264.827,370.095,263.495,370.095z"/>
								</g>
							</g>
							<g>
								<g>
									<path style="fill:#C993C9;" d="M185.002,394.872h-15.424c-1.397,0-2.529-1.132-2.529-2.529v-12.128
										c0-1.397,1.132-2.529,2.529-2.529h15.424c1.397,0,2.529,1.132,2.529,2.529v12.128
										C187.531,393.74,186.399,394.872,185.002,394.872z"/>
								</g>
								<g>
									<path style="fill:#E2E2E2;" d="M237.871,385.91h-43.548c-1.332,0-2.412-1.08-2.412-2.412l0,0
										c0-1.332,1.08-2.412,2.412-2.412h43.548c1.332,0,2.412,1.08,2.412,2.412l0,0
										C240.283,384.831,239.203,385.91,237.871,385.91z"/>
								</g>
								<g>
									<path style="fill:#E2E2E2;" d="M263.495,392.96h-69.172c-1.332,0-2.412-1.08-2.412-2.412l0,0
										c0-1.332,1.08-2.412,2.412-2.412h69.172c1.332,0,2.412,1.08,2.412,2.412l0,0C265.907,391.88,264.827,392.96,263.495,392.96
										z"/>
								</g>
							</g>
						</g>
						<g>
							<g>
								<path style="fill:#A863A4;" d="M337.929,319.094h-45.175c-1.551,0-2.808-1.257-2.808-2.808v-31.622
									c0-1.551,1.257-2.808,2.808-2.808h45.175c1.551,0,2.808,1.257,2.808,2.808v31.622
									C340.737,317.837,339.48,319.094,337.929,319.094z"/>
							</g>
							<g>
								<path style="fill:#E2E2E2;" d="M300.967,324.948h-8.291c-1.027,0-1.86-0.833-1.86-1.86l0,0c0-1.027,0.833-1.86,1.86-1.86
									h8.291c1.027,0,1.86,0.833,1.86,1.86l0,0C302.827,324.116,301.994,324.948,300.967,324.948z"/>
							</g>
							<g>
								<path style="fill:#E2E2E2;" d="M317.684,330.126h-25.008c-1.027,0-1.86-0.833-1.86-1.86l0,0c0-1.027,0.833-1.86,1.86-1.86
									h25.008c1.027,0,1.86,0.833,1.86,1.86l0,0C319.544,329.293,318.711,330.126,317.684,330.126z"/>
							</g>
							<g>
								<path style="fill:#A863A4;" d="M337.929,373.216h-45.175c-1.551,0-2.808-1.257-2.808-2.808v-31.622
									c0-1.551,1.257-2.808,2.808-2.808h45.175c1.551,0,2.808,1.257,2.808,2.808v31.622
									C340.737,371.959,339.48,373.216,337.929,373.216z"/>
							</g>
							<g>
								<path style="fill:#E2E2E2;" d="M300.967,379.071h-8.291c-1.027,0-1.86-0.833-1.86-1.86l0,0c0-1.027,0.833-1.86,1.86-1.86
									h8.291c1.027,0,1.86,0.833,1.86,1.86l0,0C302.827,378.238,301.994,379.071,300.967,379.071z"/>
							</g>
							<g>
								<path style="fill:#E2E2E2;" d="M317.684,384.248h-25.008c-1.027,0-1.86-0.833-1.86-1.86l0,0c0-1.027,0.833-1.86,1.86-1.86
									h25.008c1.027,0,1.86,0.833,1.86,1.86l0,0C319.544,383.415,318.711,384.248,317.684,384.248z"/>
							</g>
						</g>
						<g>
							<path style="fill:#A863A4;" d="M342.354,231.556h-171.9c-2.585,0-4.681-2.096-4.681-4.681V108.694
								c0-2.585,2.096-4.681,4.681-4.681h171.9c2.585,0,4.681,2.096,4.681,4.681v118.182
								C347.035,229.46,344.939,231.556,342.354,231.556z"/>
						</g>
						<g>
							<g>
								<path style="fill:#A863A4;" d="M319.122,245.461c-0.405-0.439-0.96-0.681-1.564-0.681c-0.452,0-0.865,0.143-1.229,0.424
									c-0.184,0.142-0.35,0.316-0.497,0.519c-0.147-0.203-0.313-0.377-0.497-0.519c-0.364-0.281-0.777-0.424-1.229-0.424
									c-0.604,0-1.16,0.242-1.565,0.681c-0.4,0.434-0.62,1.027-0.62,1.67c0,0.661,0.246,1.267,0.776,1.906
									c0.474,0.571,1.154,1.151,1.942,1.823c0.269,0.229,0.574,0.489,0.891,0.766c0.084,0.073,0.191,0.114,0.302,0.114
									c0.111,0,0.219-0.04,0.302-0.114c0.317-0.277,0.622-0.537,0.891-0.766c0.788-0.671,1.468-1.251,1.942-1.823
									c0.529-0.639,0.776-1.244,0.776-1.906C319.743,246.488,319.522,245.895,319.122,245.461z"/>
							</g>
							<g>
								<path style="fill:#A863A4;" d="M328.492,244.733c-1.912,0-3.468,1.556-3.468,3.468c0,0.605,0.158,1.199,0.458,1.722
									l-0.57,1.709c-0.014,0.041-0.004,0.086,0.026,0.118c0.023,0.024,0.054,0.037,0.086,0.037c0.01,0,0.02-0.001,0.03-0.004
									l1.865-0.491c0.485,0.247,1.027,0.377,1.573,0.377c1.912,0,3.468-1.556,3.468-3.468
									C331.96,246.288,330.404,244.733,328.492,244.733z"/>
							</g>
							<g>
								<path style="fill:#A863A4;" d="M337.102,250.772v0.655c0,0.152,0.104,0.284,0.252,0.318c0.025,0.006,0.05,0.009,0.075,0.009
									c0.122,0,0.237-0.068,0.293-0.181l0.006-0.011c0.614-1.229,1.849-1.992,3.224-1.992h0.519v1.42
									c0,0.134,0.081,0.254,0.205,0.304c0.123,0.051,0.266,0.02,0.358-0.076l2.84-2.949c0.122-0.127,0.122-0.328,0-0.455
									l-2.84-2.949c-0.092-0.096-0.234-0.127-0.358-0.076c-0.124,0.05-0.205,0.17-0.205,0.304v1.42h-0.109
									C339.013,246.512,337.102,248.423,337.102,250.772z"/>
							</g>
						</g>
						<g>
							<path style="fill:#D8D8D8;" d="M345.869,273.839H167.826c-0.207,0-0.375-0.168-0.375-0.375c0-0.207,0.168-0.375,0.375-0.375
								h178.043c0.207,0,0.375,0.168,0.375,0.375C346.244,273.671,346.076,273.839,345.869,273.839z"/>
						</g>
						<g>
							<path style="fill:#D8D8D8;" d="M345.869,406.219H167.826c-0.207,0-0.375-0.168-0.375-0.375c0-0.207,0.168-0.375,0.375-0.375
								h178.043c0.207,0,0.375,0.168,0.375,0.375C346.244,406.051,346.076,406.219,345.869,406.219z"/>
						</g>
						<g>
							<g>
								<path style="fill:#EAEAEA;" d="M295.025,413.936c0.526,0,1.008,0.209,1.358,0.589c0.365,0.395,0.565,0.948,0.565,1.556
									c0,0.648-0.249,1.237-0.808,1.911c-0.578,0.698-1.458,1.447-2.492,2.329c-0.286,0.244-0.602,0.513-0.932,0.799
									c-0.334-0.289-0.654-0.562-0.948-0.813c-1.019-0.868-1.898-1.618-2.477-2.315c-0.559-0.674-0.808-1.264-0.808-1.912
									c0-0.608,0.201-1.16,0.565-1.556c0.35-0.38,0.832-0.589,1.358-0.589c0.383,0,0.72,0.117,1.032,0.359
									c0.17,0.131,0.326,0.296,0.466,0.489c0.188,0.26,0.489,0.414,0.81,0.414c0.321,0,0.622-0.154,0.81-0.414
									c0.14-0.193,0.297-0.358,0.466-0.489C294.304,414.054,294.642,413.936,295.025,413.936 M295.025,412.936
									c-0.604,0-1.157,0.191-1.644,0.568c-0.246,0.19-0.468,0.423-0.665,0.694c-0.196-0.271-0.419-0.504-0.665-0.694
									c-0.487-0.377-1.04-0.568-1.644-0.568c-0.808,0-1.552,0.324-2.093,0.911c-0.535,0.581-0.83,1.374-0.83,2.234
									c0,0.885,0.33,1.695,1.038,2.55c0.633,0.764,1.544,1.54,2.598,2.438c0.36,0.307,0.768,0.655,1.192,1.025
									c0.112,0.098,0.255,0.152,0.404,0.152c0.149,0,0.293-0.054,0.404-0.152c0.424-0.371,0.832-0.718,1.192-1.025
									c1.054-0.898,1.964-1.674,2.598-2.438c0.708-0.854,1.038-1.664,1.038-2.549c0-0.86-0.295-1.653-0.83-2.234
									C296.576,413.26,295.833,412.936,295.025,412.936L295.025,412.936z"/>
							</g>
							<g>
								<path style="fill:#EAEAEA;" d="M255.858,412.763c2.427,0,4.401,1.974,4.401,4.401s-1.974,4.401-4.401,4.401
									c-2.427,0-4.401-1.974-4.401-4.401S253.431,412.763,255.858,412.763 M255.858,411.763c-2.983,0-5.401,2.418-5.401,5.401
									c0,2.983,2.418,5.401,5.401,5.401c2.983,0,5.401-2.418,5.401-5.401C261.259,414.181,258.841,411.763,255.858,411.763
									L255.858,411.763z"/>
							</g>
							<g>
								<path style="fill:#EAEAEA;" d="M221.387,423.34c-0.143,0-0.286-0.045-0.408-0.133l-2.986-2.17l-2.984,2.169
									c-0.247,0.179-0.576,0.178-0.821-0.001c-0.244-0.179-0.345-0.491-0.252-0.778l1.14-3.509l-2.985-2.169
									c-0.245-0.178-0.347-0.491-0.253-0.779c0.094-0.288,0.36-0.481,0.663-0.481h3.689l1.14-3.508
									c0.093-0.287,0.359-0.482,0.662-0.482c0.001,0,0.001,0,0.001,0c0.303,0,0.569,0.194,0.663,0.482l0,0l1.14,3.508h3.69
									c0.303,0,0.569,0.193,0.663,0.481c0.094,0.288-0.008,0.601-0.252,0.779l-2.985,2.169l1.14,3.509
									c0.093,0.287-0.008,0.601-0.252,0.778C221.675,423.295,221.531,423.34,221.387,423.34z M213.433,416.489l2.409,1.75
									c0.246,0.181,0.346,0.493,0.253,0.779l-0.92,2.831l2.408-1.75c0.247-0.178,0.575-0.177,0.818-0.001l2.409,1.751l-0.92-2.831
									c-0.093-0.287,0.008-0.6,0.252-0.778l2.41-1.751h-2.977c-0.303,0-0.569-0.193-0.663-0.481l-0.92-2.83l-0.92,2.83
									c-0.092,0.287-0.358,0.481-0.663,0.481H213.433z M216.122,415.698c-0.001,0.001-0.001,0.002-0.001,0.003L216.122,415.698z
									 M219.864,415.699h0.01H219.864z"/>
							</g>
							<g>
								<path style="fill:#EAEAEA;" d="M320.61,414.89l8.15,2.513l-8.07,2.758L320.61,414.89 M319.589,413.529l0.121,8.023
									l10.636-3.634c0.519-0.177,0.508-0.915-0.016-1.077L319.589,413.529L319.589,413.529z"/>
							</g>
							<g>
								<g>
									<path style="fill:#EAEAEA;" d="M182.609,421.404c-2.499,0-4.532-2.033-4.532-4.532s2.033-4.532,4.532-4.532
										c2.499,0,4.532,2.033,4.532,4.532S185.108,421.404,182.609,421.404z M182.609,413.339c-1.948,0-3.532,1.585-3.532,3.532
										s1.584,3.532,3.532,3.532c1.948,0,3.532-1.585,3.532-3.532S184.557,413.339,182.609,413.339z"/>
								</g>
								<g>
									<path style="fill:#EAEAEA;" d="M186.167,423.053c-0.161,0-0.319-0.077-0.416-0.221l-1.509-2.246
										c-0.154-0.229-0.093-0.54,0.136-0.694c0.229-0.155,0.539-0.094,0.694,0.136l1.509,2.246
										c0.154,0.229,0.093,0.54-0.136,0.694C186.36,423.026,186.263,423.053,186.167,423.053z"/>
								</g>
							</g>
						</g>
					</g>
					<g>
						<g>
							<g>
								<path style="fill:#F4D1BB;" d="M335.878,154.821c-0.319-0.399-0.291-0.973,0.066-1.339c1.681-1.73,6.418-6.365,9.532-7.032
									c2.747-0.589,12.794-0.335,18.291-0.143c1.029,0.036,1.357,1.403,0.454,1.898c-4.449,2.435-12.363,6.755-16.001,8.67
									c-3.486,1.835-5.622,3.056-6.655,3.664c-0.435,0.256-0.99,0.154-1.305-0.24L335.878,154.821z"/>
							</g>
							<g>
								<path style="fill:#F4D1BB;" d="M164.122,154.821c0.319-0.399,0.291-0.973-0.066-1.339c-1.681-1.73-6.418-6.365-9.532-7.032
									c-2.747-0.589-12.794-0.335-18.291-0.143c-1.029,0.036-1.357,1.403-0.454,1.898c4.449,2.435,12.364,6.755,16.002,8.67
									c3.486,1.835,5.622,3.056,6.655,3.664c0.435,0.256,0.99,0.154,1.305-0.24L164.122,154.821z"/>
							</g>
							<g>
								<path style="fill:#F4B04E;" d="M337.598,149.552c0,0-23.07,16.285-29.041,14.928c-10.593-2.408-30.899-26.967-42.945-27.483
									c-0.29-0.073-0.577-0.131-0.861-0.157c-7.05-0.659-20.359,0.041-26.395,0.104c-13.009-1.419-35.501,24.943-46.913,27.536
									c-5.971,1.357-29.041-14.928-29.041-14.928l-10.314,8.142c0,0,12.342,31.932,36.906,33.686
									c11.939,0.852,26.038-6.573,32.333-10.332c-1.874,13.303-3.461,30.273-4.213,51.915l75.312-1.366
									c0,0,0.719-21.283-3.187-45.087c6.586,2.887,14.566,5.385,21.767,4.871c24.564-1.754,36.906-33.686,36.906-33.686
									L337.598,149.552z"/>
							</g>
							<g>
								<path style="fill:#2D3962;" d="M291.948,209.078c-0.245,0-0.454-0.187-0.478-0.436c-1.13-12.023-3.43-32.164-3.452-32.366
									c-0.03-0.264,0.159-0.502,0.423-0.533c0.261-0.024,0.503,0.16,0.532,0.423c0.023,0.202,2.324,20.352,3.454,32.385
									c0.025,0.265-0.169,0.499-0.434,0.524C291.978,209.077,291.964,209.078,291.948,209.078z"/>
							</g>
							<g>
								<path style="fill:#2D3962;" d="M218.539,209.078c-0.014,0-0.028,0-0.042-0.002c-0.265-0.023-0.46-0.256-0.438-0.521
									c1.049-12.085,2.528-32.168,2.544-32.369c0.02-0.265,0.261-0.461,0.515-0.444c0.265,0.02,0.464,0.25,0.444,0.515
									c-0.015,0.202-1.495,20.291-2.544,32.382C218.996,208.889,218.786,209.078,218.539,209.078z"/>
							</g>
							<g>
								<defs>
									<path id="SVGID_1_" d="M337.598,149.552c0,0-23.07,16.285-29.041,14.928c-10.593-2.408-30.899-26.967-42.945-27.483
										c-0.29-0.073-0.577-0.131-0.861-0.157c-7.05-0.659-20.359,0.041-26.395,0.104c-13.009-1.419-35.501,24.943-46.913,27.536
										c-5.971,1.357-29.041-14.928-29.041-14.928l-10.314,8.142c0,0,12.342,31.932,36.906,33.686
										c11.939,0.852,26.038-6.573,32.333-10.332c-1.874,13.303-3.461,30.273-4.213,51.915l75.312-1.366
										c0,0,0.719-21.283-3.187-45.087c6.586,2.887,14.566,5.385,21.767,4.871c24.564-1.754,36.906-33.686,36.906-33.686
										L337.598,149.552z"/>
								</defs>
								<clipPath id="SVGID_00000060014016275250315800000015585762253640661126_">
									<use xlink:href="#SVGID_1_"  style="overflow:visible;"/>
								</clipPath>
								<g style="opacity:0.4;clip-path:url(#SVGID_00000060014016275250315800000015585762253640661126_);">
									<g>
										<path style="fill:#FFFFFF;" d="M160.812,165.985c0,2.206-1.788,3.994-3.994,3.994c-2.206,0-3.994-1.788-3.994-3.994
											c0-2.206,1.788-3.994,3.994-3.994C159.024,161.991,160.812,163.779,160.812,165.985z"/>
									</g>
									<g>
										<path style="fill:#FFFFFF;" d="M174.836,157.034c0,2.206-1.788,3.994-3.994,3.994c-2.206,0-3.994-1.788-3.994-3.994
											s1.788-3.994,3.994-3.994C173.048,153.04,174.836,154.828,174.836,157.034z"/>
									</g>
									<g>
										<path style="fill:#FFFFFF;" d="M177.582,172.325c0,2.206-1.788,3.994-3.994,3.994c-2.206,0-3.994-1.788-3.994-3.994
											c0-2.206,1.788-3.994,3.994-3.994C175.794,168.331,177.582,170.12,177.582,172.325z"/>
									</g>
									<g>
										<path style="fill:#FFFFFF;" d="M197.028,174.53c0,2.206-1.788,3.994-3.994,3.994c-2.206,0-3.994-1.788-3.994-3.994
											c0-2.206,1.788-3.994,3.994-3.994C195.24,170.536,197.028,172.324,197.028,174.53z"/>
									</g>
									<g>
										<path style="fill:#FFFFFF;" d="M183.602,190.018c0,2.206-1.788,3.994-3.994,3.994c-2.206,0-3.994-1.788-3.994-3.994
											c0-2.206,1.788-3.994,3.994-3.994C181.814,186.024,183.602,187.812,183.602,190.018z"/>
									</g>
									<g>
										<path style="fill:#FFFFFF;" d="M208.754,187.807c0,2.206-1.788,3.994-3.994,3.994c-2.206,0-3.994-1.788-3.994-3.994
											c0-2.206,1.788-3.994,3.994-3.994C206.966,183.813,208.754,185.602,208.754,187.807z"/>
									</g>
									<g>
										<path style="fill:#FFFFFF;" d="M206.632,160.154c0,2.206-1.788,3.994-3.994,3.994c-2.206,0-3.994-1.788-3.994-3.994
											c0-2.206,1.788-3.994,3.994-3.994C204.843,156.16,206.632,157.948,206.632,160.154z"/>
									</g>
									<g>
										<path style="fill:#FFFFFF;" d="M225.977,157.37c0,2.206-1.788,3.994-3.994,3.994c-2.206,0-3.994-1.788-3.994-3.994
											c0-2.206,1.788-3.994,3.994-3.994C224.189,153.376,225.977,155.165,225.977,157.37z"/>
									</g>
									<g>
										<path style="fill:#FFFFFF;" d="M213.697,172.628c0,2.206-1.788,3.994-3.994,3.994c-2.206,0-3.994-1.788-3.994-3.994
											c0-2.206,1.788-3.994,3.994-3.994C211.909,168.634,213.697,170.423,213.697,172.628z"/>
									</g>
									<g>
										<path style="fill:#FFFFFF;" d="M248.831,154.387c0,2.206-1.788,3.994-3.994,3.994c-2.206,0-3.994-1.788-3.994-3.994
											c0-2.206,1.788-3.994,3.994-3.994C247.043,150.394,248.831,152.182,248.831,154.387z"/>
									</g>
									<g>
										<path style="fill:#FFFFFF;" d="M235.532,139.339c0,2.206-1.788,3.994-3.994,3.994c-2.206,0-3.994-1.788-3.994-3.994
											c0-2.206,1.788-3.994,3.994-3.994C233.744,135.346,235.532,137.134,235.532,139.339z"/>
									</g>
									<g>
										<path style="fill:#FFFFFF;" d="M240.507,174.417c0,2.206-1.788,3.994-3.994,3.994c-2.206,0-3.994-1.788-3.994-3.994
											s1.788-3.994,3.994-3.994C238.719,170.423,240.507,172.211,240.507,174.417z"/>
									</g>
									<g>
										<path style="fill:#FFFFFF;" d="M232.781,189.869c0,2.206-1.788,3.994-3.994,3.994c-2.206,0-3.994-1.788-3.994-3.994
											c0-2.206,1.788-3.994,3.994-3.994C230.993,185.875,232.781,187.663,232.781,189.869z"/>
									</g>
									<g>
										<path style="fill:#FFFFFF;" d="M245.707,196.406c0,2.206-1.788,3.994-3.994,3.994c-2.206,0-3.994-1.788-3.994-3.994
											c0-2.206,1.788-3.994,3.994-3.994C243.919,192.412,245.707,194.201,245.707,196.406z"/>
									</g>
									<g>
										<path style="fill:#FFFFFF;" d="M261.01,184.074c0,2.206-1.788,3.994-3.994,3.994c-2.206,0-3.994-1.788-3.994-3.994
											c0-2.206,1.788-3.994,3.994-3.994C259.222,180.081,261.01,181.869,261.01,184.074z"/>
									</g>
									<g>
										<path style="fill:#FFFFFF;" d="M261.307,162.531c0,2.206-1.788,3.994-3.994,3.994c-2.206,0-3.994-1.788-3.994-3.994
											c0-2.206,1.788-3.994,3.994-3.994C259.519,158.537,261.307,160.325,261.307,162.531z"/>
									</g>
									<g>
										<path style="fill:#FFFFFF;" d="M279.788,169.641c0,2.206-1.788,3.994-3.994,3.994c-2.206,0-3.994-1.788-3.994-3.994
											c0-2.206,1.788-3.994,3.994-3.994C278,165.647,279.788,167.435,279.788,169.641z"/>
									</g>
									<g>
										<path style="fill:#FFFFFF;" d="M292.805,151.834c0,2.206-1.788,3.994-3.994,3.994c-2.206,0-3.994-1.788-3.994-3.994
											c0-2.206,1.788-3.994,3.994-3.994C291.017,147.84,292.805,149.628,292.805,151.834z"/>
									</g>
									<g>
										<path style="fill:#FFFFFF;" d="M299.342,170.108c0,2.206-1.788,3.994-3.994,3.994c-2.206,0-3.994-1.788-3.994-3.994
											c0-2.206,1.788-3.994,3.994-3.994C297.554,166.115,299.342,167.903,299.342,170.108z"/>
									</g>
									<g>
										<path style="fill:#FFFFFF;" d="M304.097,189.72c0,2.206-1.788,3.994-3.994,3.994c-2.206,0-3.994-1.788-3.994-3.994
											c0-2.206,1.788-3.994,3.994-3.994C302.309,185.727,304.097,187.515,304.097,189.72z"/>
									</g>
									<g>
										<path style="fill:#FFFFFF;" d="M316.132,179.171c0,2.206-1.788,3.994-3.994,3.994c-2.206,0-3.994-1.788-3.994-3.994
											c0-2.206,1.788-3.994,3.994-3.994C314.343,175.178,316.132,176.966,316.132,179.171z"/>
									</g>
									<g>
										<path style="fill:#FFFFFF;" d="M320.589,162.383c0,2.206-1.788,3.994-3.994,3.994c-2.206,0-3.994-1.788-3.994-3.994
											c0-2.206,1.788-3.994,3.994-3.994C318.801,158.389,320.589,160.177,320.589,162.383z"/>
									</g>
									<g>
										<path style="fill:#FFFFFF;" d="M335.595,171.297c0,2.206-1.788,3.994-3.994,3.994c-2.206,0-3.994-1.788-3.994-3.994
											c0-2.206,1.788-3.994,3.994-3.994C333.807,167.303,335.595,169.091,335.595,171.297z"/>
									</g>
									<g>
										<path style="fill:#FFFFFF;" d="M337.675,153.914c0,2.206-1.788,3.994-3.994,3.994c-2.206,0-3.994-1.788-3.994-3.994
											c0-2.206,1.788-3.994,3.994-3.994C335.887,149.92,337.675,151.708,337.675,153.914z"/>
									</g>
									<g>
										<path style="fill:#FFFFFF;" d="M327.72,187.64c0,2.206-1.788,3.994-3.994,3.994c-2.206,0-3.994-1.788-3.994-3.994
											c0-2.206,1.788-3.994,3.994-3.994C325.932,183.646,327.72,185.434,327.72,187.64z"/>
									</g>
									<g>
										<path style="fill:#FFFFFF;" d="M281.365,192.395c0,2.206-1.788,3.994-3.994,3.994c-2.206,0-3.994-1.788-3.994-3.994
											c0-2.206,1.788-3.994,3.994-3.994C279.577,188.401,281.365,190.189,281.365,192.395z"/>
									</g>
									<g>
										<path style="fill:#FFFFFF;" d="M263.833,204.132c0,2.206-1.788,3.994-3.994,3.994c-2.206,0-3.994-1.788-3.994-3.994
											c0-2.206,1.788-3.994,3.994-3.994C262.045,200.138,263.833,201.926,263.833,204.132z"/>
									</g>
									<g>
										<path style="fill:#FFFFFF;" d="M234.861,212.601c0,2.206-1.788,3.994-3.994,3.994c-2.206,0-3.994-1.788-3.994-3.994
											c0-2.206,1.788-3.994,3.994-3.994C233.073,208.607,234.861,210.395,234.861,212.601z"/>
									</g>
									<g>
										<path style="fill:#FFFFFF;" d="M229.512,230.43c0,2.206-1.788,3.994-3.994,3.994s-3.994-1.788-3.994-3.994
											c0-2.206,1.788-3.994,3.994-3.994S229.512,228.224,229.512,230.43z"/>
									</g>
									<g>
										<path style="fill:#FFFFFF;" d="M250.58,221.785c0,2.206-1.788,3.994-3.994,3.994s-3.994-1.788-3.994-3.994
											c0-2.206,1.788-3.994,3.994-3.994S250.58,219.579,250.58,221.785z"/>
									</g>
									<g>
										<path style="fill:#FFFFFF;" d="M271.686,232.026c0,2.206-1.788,3.994-3.994,3.994c-2.206,0-3.994-1.788-3.994-3.994
											s1.788-3.994,3.994-3.994C269.898,228.032,271.686,229.82,271.686,232.026z"/>
									</g>
									<g>
										<path style="fill:#FFFFFF;" d="M278.542,215.424c0,2.206-1.788,3.994-3.994,3.994c-2.206,0-3.994-1.788-3.994-3.994
											c0-2.206,1.788-3.994,3.994-3.994C276.754,211.43,278.542,213.218,278.542,215.424z"/>
									</g>
									<g>
										<path style="fill:#FFFFFF;" d="M296.222,222.11c0,2.206-1.788,3.994-3.994,3.994c-2.206,0-3.994-1.788-3.994-3.994
											c0-2.206,1.788-3.994,3.994-3.994C294.434,218.116,296.222,219.904,296.222,222.11z"/>
									</g>
									<g>
										<path style="fill:#FFFFFF;" d="M271.262,148.119c0,2.206-1.788,3.994-3.994,3.994c-2.206,0-3.994-1.788-3.994-3.994
											c0-2.206,1.788-3.994,3.994-3.994C269.474,144.125,271.262,145.913,271.262,148.119z"/>
									</g>
									<g>
										<path style="fill:#FFFFFF;" d="M255.81,136.828c0,2.206-1.788,3.994-3.994,3.994c-2.206,0-3.994-1.788-3.994-3.994
											c0-2.206,1.788-3.994,3.994-3.994C254.022,132.834,255.81,134.622,255.81,136.828z"/>
									</g>
								</g>
							</g>
						</g>
						<g>
							<g>
								<path style="fill:#2D3962;" d="M277.848,119.988c0,0,26.197-26.953,18.349-40.922c0,0,4.938-14.442-7.079-18.704
									c0,0,2.017-18.931-20.205-18.574c0,0-4.223-4.783-10.353-5.673c-6.276-0.911-10.156-0.124-15.533,3.696
									c0,0-4.482-3.163-11.986-1.363c-6.79,1.628-7.734,6.68-7.734,6.68s-7.82-0.969-12.453,6.54
									c-1.691,2.741-2.885,6.468-2.372,11.803c0,0-12.184,12.45-0.932,24.311c0,0-3.898,1.388-1.649,8.302
									c2.249,6.914,18.479,22.582,18.479,22.582L277.848,119.988z"/>
							</g>
							<g>
								<path style="fill:#F4D1BB;" d="M254.12,133.964c-40.988,0.023-34.972-44.586-34.476-47.854
									c0.022-0.142,0.037-0.278,0.049-0.422l0.695-8.538c0.265-3.254,2.951-5.779,6.215-5.841l48.77-0.937
									c3.158-0.061,5.882,2.199,6.395,5.316C284.303,91.079,288.298,133.945,254.12,133.964z"/>
							</g>
							<g>
								<circle style="fill:#2D3962;" cx="259.584" cy="101.474" r="2.767"/>
							</g>
							<g>
								<path style="fill:#2D3962;" d="M242.569,100.825c0.38-1.48,1.888-2.372,3.368-1.991c1.48,0.38,2.372,1.888,1.991,3.368
									c-0.38,1.48-1.888,2.372-3.368,1.992C243.08,103.813,242.189,102.305,242.569,100.825z"/>
							</g>
							<g>
								<path style="fill:#2D3962;" d="M252.051,113.359c-1.503,0-2.956-0.383-4.135-1.098c-0.227-0.138-0.299-0.434-0.162-0.661
									c0.138-0.227,0.434-0.3,0.661-0.162c1.137,0.689,2.586,1.028,4.056,0.947c1.368-0.073,2.637-0.481,3.669-1.182
									c0.219-0.149,0.518-0.094,0.668,0.128c0.15,0.22,0.093,0.519-0.127,0.668c-1.178,0.799-2.615,1.265-4.159,1.347
									C252.365,113.355,252.208,113.359,252.051,113.359z"/>
							</g>
							<g>
								<path style="fill:#F4D1BB;" d="M281.365,100.342c3.16-0.597,9.116-1.58,11.353,1.137c1.898,2.305,1.227,5.817-1.271,7.597
									c-4.078,2.906-10.761,3.066-12.77,3.245"/>
							</g>
							<g>
								<g>
									<path style="fill:#2D3962;" d="M290.266,104.518c-0.086,0-0.174-0.023-0.252-0.071c-2.194-1.35-3.999-0.819-4.017-0.814
										c-0.258,0.078-0.524-0.065-0.602-0.319c-0.078-0.254,0.065-0.523,0.318-0.601c0.09-0.028,2.243-0.661,4.804,0.915
										c0.227,0.139,0.297,0.436,0.158,0.662C290.586,104.437,290.427,104.518,290.266,104.518z"/>
								</g>
								<g>
									<path style="fill:#2D3962;" d="M286.599,107.115c-0.122,0-0.244-0.046-0.338-0.139c-0.188-0.187-0.19-0.491-0.004-0.68
										c0.008-0.008,0.855-0.875,1.892-2.647c0.134-0.23,0.432-0.307,0.658-0.172c0.229,0.134,0.306,0.429,0.172,0.658
										c-1.104,1.889-2.001,2.801-2.038,2.839C286.846,107.068,286.723,107.115,286.599,107.115z"/>
								</g>
							</g>
							<g>
								<path style="fill:#F4D1BB;" d="M221.111,99.481c-3.142-0.688-9.067-1.84-11.381,0.812c-1.963,2.249-1.393,5.78,1.053,7.63
									c3.993,3.021,10.669,3.372,12.672,3.609"/>
							</g>
							<g>
								<g>
									<path style="fill:#2D3962;" d="M212.108,103.4c-0.166,0-0.328-0.086-0.417-0.241c-0.133-0.23-0.054-0.524,0.176-0.657
										c2.608-1.503,4.738-0.807,4.827-0.777c0.251,0.085,0.387,0.358,0.301,0.61c-0.085,0.251-0.357,0.387-0.608,0.302
										c-0.08-0.026-1.833-0.573-4.04,0.698C212.273,103.38,212.19,103.4,212.108,103.4z"/>
								</g>
								<g>
									<path style="fill:#2D3962;" d="M215.699,106.101c-0.128,0-0.256-0.051-0.351-0.152c-0.037-0.039-0.906-0.977-1.957-2.896
										c-0.127-0.233-0.042-0.525,0.191-0.653c0.233-0.127,0.525-0.042,0.653,0.191c0.986,1.801,1.807,2.692,1.815,2.7
										c0.181,0.194,0.17,0.499-0.023,0.68C215.935,106.058,215.816,106.101,215.699,106.101z"/>
								</g>
							</g>
							<g>
								<polygon style="fill:#F4D1BB;" points="242.642,129.577 242.321,140.378 248.949,140.473 262.467,140.666 261.995,128.978 
																	"/>
							</g>
							<g>
								<path style="fill:#2D3962;" d="M217.057,87.814c0,0,2.256,7.266,11.855,6.856c2.514-0.107,6.145-1.271,8.69-5.077
									c0,0,3.766,5.629,15.193,5.067c9.657-0.475,11.673-5.089,11.673-5.089s4.742,5.675,12.246,5.782
									c7.504,0.107,9.791-4.318,9.791-4.318l-3.77-27.916l-67.938,7.944L217.057,87.814z"/>
							</g>
							<g>
								<path style="fill:#2D3962;" d="M257.214,92.908c0.767-0.793,2.313-0.737,3.448-0.646c1.064,0.086,2.996,0.17,3.824,0.885
									c0.438,0.378,0.57,0.972,0.389,1.447c-0.251,0.66-0.996,1.037-1.754,1.173c-0.668,0.12-1.374,0.081-2.07,0.042
									c-0.938-0.053-1.875-0.108-2.813-0.196c-0.231-0.022-0.469-0.047-0.679-0.146c-0.555-0.262-0.755-1.255-0.718-1.709
									C256.871,93.404,257.004,93.126,257.214,92.908z"/>
							</g>
							<g>
								<path style="fill:#2D3962;" d="M247.836,93.017c-0.744-0.814-2.291-0.803-3.428-0.744c-1.066,0.055-3,0.084-3.848,0.775
									c-0.449,0.366-0.597,0.955-0.43,1.435c0.232,0.667,0.966,1.065,1.72,1.223c0.664,0.139,1.371,0.12,2.068,0.101
									c0.939-0.026,1.878-0.054,2.817-0.115c0.232-0.015,0.47-0.034,0.683-0.127c0.562-0.246,0.791-1.233,0.766-1.688
									C248.165,93.523,248.04,93.241,247.836,93.017z"/>
							</g>
							<g>
								<path style="fill:#2D3962;" d="M253.328,141.419c-6.602,0-12.079-1.023-12.16-1.038c-0.261-0.05-0.432-0.302-0.383-0.563
									c0.05-0.261,0.302-0.428,0.563-0.383c0.119,0.023,12.019,2.243,21.772,0.072c0.263-0.063,0.517,0.106,0.574,0.365
									c0.058,0.259-0.105,0.516-0.365,0.574C260.06,141.174,256.559,141.419,253.328,141.419z"/>
							</g>
						</g>
					</g>
				</g>
			</g>
			<g>
				<g style="opacity:0.72;">
					<path style="fill:#D1D1D1;" d="M468.478,457.39c0,6.002-34.475,9.276-77.002,9.276s-75.988-3.361-77.002-9.276
						c-1.863-10.867,34.475-10.867,77.002-10.867S468.478,446.523,468.478,457.39z"/>
				</g>
				<g>
					<g>
						<path style="fill:#8E518E;" d="M452.128,454.605h-89.177c-2.626,0-4.573-2.746-3.996-5.635l14.95-74.82h62.74l19.484,74.844
							C456.69,451.877,454.744,454.605,452.128,454.605z"/>
					</g>
					<g>
						<path style="fill:#8E518E;" d="M434.382,376.097l-1.496-0.118c0.014-0.166,1.22-16.709-6.257-25.077
							c-2.709-3.033-6.272-4.646-10.589-4.792c-4.572-0.156-8.361,1.282-11.263,4.272c-7.952,8.197-6.938,25.432-6.927,25.605
							l-1.496,0.096c-0.048-0.733-1.064-18.076,7.346-26.745c3.21-3.308,7.384-4.893,12.391-4.728
							c4.744,0.162,8.667,1.943,11.659,5.295C435.653,358.756,434.437,375.393,434.382,376.097z"/>
					</g>
					<g>
						<path style="fill:#A863A4;" d="M446.53,454.605h-89.177c-2.626,0-4.573-2.746-3.996-5.635l14.95-74.82h62.74l19.484,74.844
							C451.093,451.877,449.147,454.605,446.53,454.605z"/>
					</g>
					<g>
						<path style="fill:#8E518E;" d="M417.759,378.972l-1.484-0.217c0.026-0.181,2.549-18.151-5.179-27.317
							c-2.877-3.412-6.866-5.205-11.855-5.328c-4.983-0.141-8.993,1.463-11.961,4.714c-8.029,8.795-6.026,26.967-6.005,27.148
							l-1.49,0.174c-0.09-0.773-2.099-19.039,6.388-28.334c3.273-3.585,7.686-5.339,13.106-5.202
							c5.438,0.135,9.802,2.107,12.968,5.864C420.408,360.159,417.872,378.208,417.759,378.972z"/>
					</g>
					<g>
						<path style="fill:#8E518E;" d="M385.923,382.106h-10.332c-0.42,0-0.761-0.341-0.761-0.761v-2.853
							c0-0.42,0.341-0.761,0.761-0.761h10.332c0.42,0,0.761,0.341,0.761,0.761v2.853
							C386.684,381.766,386.344,382.106,385.923,382.106z"/>
					</g>
					<g>
						<path style="fill:#8E518E;" d="M421.42,382.106h-10.332c-0.42,0-0.761-0.341-0.761-0.761v-2.853
							c0-0.42,0.341-0.761,0.761-0.761h10.332c0.42,0,0.761,0.341,0.761,0.761v2.853C422.181,381.766,421.84,382.106,421.42,382.106
							z"/>
					</g>
					<g>
						<defs>
							<path id="SVGID_00000098186070646066335040000000772087704226518167_" d="M446.53,454.605h-89.177
								c-2.626,0-4.573-2.746-3.996-5.635l14.95-74.82h62.74l19.484,74.844C451.093,451.877,449.147,454.605,446.53,454.605z"/>
						</defs>
						<clipPath id="SVGID_00000038400655349324998850000005698749852616528303_">
							<use xlink:href="#SVGID_00000098186070646066335040000000772087704226518167_"  style="overflow:visible;"/>
						</clipPath>
						<g style="clip-path:url(#SVGID_00000038400655349324998850000005698749852616528303_);">
							<g style="opacity:0.4;">
								<path style="fill:#E8E8E8;" d="M377.758,391.897c0,0.943-0.765,1.708-1.708,1.708c-0.944,0-1.708-0.765-1.708-1.708
									c0-0.943,0.765-1.708,1.708-1.708C376.994,390.188,377.758,390.953,377.758,391.897z"/>
							</g>
							<g style="opacity:0.4;">
								<circle style="fill:#E8E8E8;" cx="363.147" cy="401.584" r="1.708"/>
							</g>
							<g style="opacity:0.4;">
								<circle style="fill:#E8E8E8;" cx="415.429" cy="454.205" r="1.708"/>
							</g>
							<g style="opacity:0.4;">
								<circle style="fill:#E8E8E8;" cx="397.15" cy="402.261" r="1.708"/>
							</g>
							<g style="opacity:0.4;">
								<circle style="fill:#E8E8E8;" cx="411.029" cy="391.26" r="1.708"/>
							</g>
							<g style="opacity:0.4;">
								<path style="fill:#E8E8E8;" d="M407.49,419.694c0,0.944-0.765,1.708-1.708,1.708c-0.943,0-1.708-0.765-1.708-1.708
									c0-0.943,0.765-1.708,1.708-1.708C406.725,417.986,407.49,418.751,407.49,419.694z"/>
							</g>
							<g style="opacity:0.4;">
								<path style="fill:#E8E8E8;" d="M402.074,436.974c0,0.943-0.765,1.708-1.708,1.708c-0.944,0-1.708-0.765-1.708-1.708
									c0-0.944,0.765-1.708,1.708-1.708C401.309,435.265,402.074,436.03,402.074,436.974z"/>
							</g>
							<g style="opacity:0.4;">
								<circle style="fill:#E8E8E8;" cx="364.485" cy="430.68" r="1.708"/>
							</g>
							<g style="opacity:0.4;">
								<path style="fill:#E8E8E8;" d="M441.679,447.975c0,0.944-0.765,1.708-1.708,1.708c-0.943,0-1.708-0.765-1.708-1.708
									c0-0.943,0.765-1.708,1.708-1.708C440.914,446.266,441.679,447.031,441.679,447.975z"/>
							</g>
							<g style="opacity:0.4;">
								<path style="fill:#E8E8E8;" d="M426.785,405.154c0,0.944-0.765,1.708-1.708,1.708c-0.944,0-1.708-0.765-1.708-1.708
									c0-0.943,0.765-1.708,1.708-1.708C426.02,403.446,426.785,404.211,426.785,405.154z"/>
							</g>
							<g style="opacity:0.4;">
								<circle style="fill:#E8E8E8;" cx="395.288" cy="384.136" r="1.708"/>
							</g>
							<g style="opacity:0.4;">
								<path style="fill:#E8E8E8;" d="M379.056,445.082c0,0.943-0.765,1.708-1.708,1.708c-0.943,0-1.708-0.765-1.708-1.708
									c0-0.943,0.765-1.708,1.708-1.708C378.291,443.373,379.056,444.138,379.056,445.082z"/>
							</g>
							<g style="opacity:0.4;">
								<circle style="fill:#E8E8E8;" cx="441.002" cy="413.77" r="1.708"/>
							</g>
							<g style="opacity:0.4;">
								<circle style="fill:#E8E8E8;" cx="385.641" cy="425.449" r="1.708"/>
							</g>
							<g style="opacity:0.4;">
								<circle style="fill:#E8E8E8;" cx="419.999" cy="438.142" r="1.708"/>
							</g>
							<g style="opacity:0.4;">
								<circle style="fill:#E8E8E8;" cx="428.414" cy="388.488" r="1.708"/>
							</g>
							<g style="opacity:0.4;">
								<circle style="fill:#E8E8E8;" cx="374.65" cy="408.712" r="1.708"/>
							</g>
							<g style="opacity:0.4;">
								<path style="fill:#E8E8E8;" d="M360.27,454.56c0,0.944-0.765,1.708-1.708,1.708c-0.943,0-1.708-0.765-1.708-1.708
									c0-0.943,0.765-1.708,1.708-1.708C359.505,452.851,360.27,453.616,360.27,454.56z"/>
							</g>
							<g style="opacity:0.4;">
								<circle style="fill:#E8E8E8;" cx="428.292" cy="424.772" r="1.708"/>
							</g>
						</g>
					</g>
				</g>
				<g>
					<g>
						<path style="fill:#DD9C45;" d="M383.914,459.881h-48.71c-1.434,0-2.498-1.5-2.183-3.078l8.166-40.868h34.27l10.643,40.881
							C386.406,458.391,385.343,459.881,383.914,459.881z"/>
					</g>
					<g>
						<path style="fill:#DD9C45;" d="M374.31,417.005l-0.996-0.078c0.007-0.091,0.662-9.089-3.396-13.631
							c-1.463-1.637-3.387-2.508-5.719-2.587c-2.471-0.098-4.517,0.691-6.083,2.305c-4.313,4.443-3.766,13.825-3.76,13.919
							l-0.998,0.065c-0.026-0.402-0.583-9.914,4.038-14.678c1.771-1.826,4.076-2.687,6.836-2.61c2.617,0.09,4.781,1.073,6.433,2.923
							C375.007,407.495,374.341,416.62,374.31,417.005z"/>
					</g>
					<g>
						<path style="fill:#F4B04E;" d="M380.857,459.881h-48.71c-1.434,0-2.498-1.5-2.183-3.078l8.166-40.868h34.27l10.643,40.881
							C383.349,458.391,382.286,459.881,380.857,459.881z"/>
					</g>
					<g>
						<defs>
							<path id="SVGID_00000028301764703659218000000015285427871706551983_" d="M380.857,459.881h-48.71
								c-1.434,0-2.498-1.5-2.183-3.078l8.166-40.868h34.27l10.643,40.881C383.349,458.391,382.286,459.881,380.857,459.881z"/>
						</defs>
						<clipPath id="SVGID_00000151533535175334669180000001952162898605381055_">
							<use xlink:href="#SVGID_00000028301764703659218000000015285427871706551983_"  style="overflow:visible;"/>
						</clipPath>
						<g style="clip-path:url(#SVGID_00000151533535175334669180000001952162898605381055_);">
							<g style="opacity:0.4;">
								
									<rect x="326.717" y="444.738" transform="matrix(0.9585 -0.285 0.285 0.9585 -112.104 121.8744)" style="fill:#E8E8E8;" width="72.048" height="2.837"/>
							</g>
							<g style="opacity:0.4;">
								
									<rect x="324.674" y="437.866" transform="matrix(0.9585 -0.285 0.285 0.9585 -110.2307 121.0078)" style="fill:#E8E8E8;" width="72.048" height="2.837"/>
							</g>
							<g style="opacity:0.4;">
								
									<rect x="322.631" y="430.994" transform="matrix(0.9585 -0.285 0.285 0.9585 -108.3566 120.14)" style="fill:#E8E8E8;" width="72.048" height="2.837"/>
							</g>
							<g style="opacity:0.4;">
								
									<rect x="320.588" y="424.122" transform="matrix(0.9585 -0.285 0.285 0.9585 -106.4833 119.2733)" style="fill:#E8E8E8;" width="72.048" height="2.837"/>
							</g>
							<g style="opacity:0.4;">
								
									<rect x="318.545" y="417.249" transform="matrix(0.9585 -0.285 0.285 0.9585 -104.6091 118.4055)" style="fill:#E8E8E8;" width="72.048" height="2.837"/>
							</g>
							<g style="opacity:0.4;">
								
									<rect x="328.761" y="451.611" transform="matrix(0.9585 -0.285 0.285 0.9585 -113.9778 122.7416)" style="fill:#E8E8E8;" width="72.048" height="2.837"/>
							</g>
							<g style="opacity:0.4;">
								
									<rect x="330.804" y="458.483" transform="matrix(0.9585 -0.285 0.285 0.9585 -115.8515 123.6089)" style="fill:#E8E8E8;" width="72.048" height="2.837"/>
							</g>
						</g>
					</g>
					<g>
						<g>
							<path style="fill:#DD9C45;" d="M365.231,418.582l-0.99-0.145c0.015-0.099,1.386-9.876-2.809-14.851
								c-1.554-1.843-3.71-2.811-6.408-2.878c-2.698-0.084-4.861,0.791-6.464,2.545c-4.358,4.774-3.269,14.659-3.257,14.759
								l-0.994,0.115c-0.049-0.424-1.15-10.441,3.513-15.548c1.806-1.979,4.22-2.953,7.228-2.871
								c2.997,0.074,5.402,1.162,7.149,3.235C366.683,408.266,365.292,418.163,365.231,418.582z"/>
						</g>
						<g>
							<path style="fill:#DD9C45;" d="M347.752,420.281h-5.643c-0.23,0-0.416-0.186-0.416-0.416v-1.558
								c0-0.229,0.186-0.415,0.416-0.415h5.643c0.229,0,0.415,0.186,0.415,0.415v1.558
								C348.168,420.095,347.982,420.281,347.752,420.281z"/>
						</g>
						<g>
							<path style="fill:#DD9C45;" d="M367.141,420.281h-5.643c-0.229,0-0.415-0.186-0.415-0.416v-1.558
								c0-0.229,0.186-0.415,0.415-0.415h5.643c0.229,0,0.415,0.186,0.415,0.415v1.558
								C367.557,420.095,367.371,420.281,367.141,420.281z"/>
						</g>
					</g>
				</g>
			</g>
			<g>
				<g>
					<path style="fill:#E2E2E2;" d="M137.475,203.926H32.495c-1.87,0-3.387-1.516-3.387-3.387V99.022
						c0-1.87,1.516-3.387,3.387-3.387h104.981c1.87,0,3.387,1.516,3.387,3.387v101.518
						C140.862,202.41,139.346,203.926,137.475,203.926z"/>
				</g>
				<g>
					<g>
						<path style="fill:#6B8DF2;" d="M43.162,139.979c0,0,4.638-24.735,32.863-30.702c0,0-0.196,8.949,8.982,9.408
							c10.087,0.504,10.785-8.72,10.785-8.72s22.931,0.726,31.406,29.856l-15.182,0.687l3.708,51.375l-60.112-0.153l2.91-48.574
							L43.162,139.979z"/>
					</g>
					<g>
						<defs>
							<path id="SVGID_00000132797593007407849030000005701424958967981239_" d="M43.162,139.979c0,0,4.638-24.735,32.863-30.702
								c0,0-0.196,8.949,8.982,9.408c10.087,0.504,10.785-8.72,10.785-8.72s22.931,0.726,31.406,29.856l-15.182,0.687l3.708,51.375
								l-60.112-0.153l2.91-48.574L43.162,139.979z"/>
						</defs>
						<clipPath id="SVGID_00000145752171395667743720000005329006969837572023_">
							<use xlink:href="#SVGID_00000132797593007407849030000005701424958967981239_"  style="overflow:visible;"/>
						</clipPath>
						<g style="clip-path:url(#SVGID_00000145752171395667743720000005329006969837572023_);">
							<rect x="49.419" y="184.24" style="fill:#4B6DC4;" width="74.201" height="3.016"/>
						</g>
						<g style="clip-path:url(#SVGID_00000145752171395667743720000005329006969837572023_);">
							<rect x="49.419" y="174.129" style="fill:#4B6DC4;" width="74.201" height="3.016"/>
						</g>
						<g style="clip-path:url(#SVGID_00000145752171395667743720000005329006969837572023_);">
							<rect x="49.419" y="164.019" style="fill:#4B6DC4;" width="74.201" height="3.016"/>
						</g>
						<g style="clip-path:url(#SVGID_00000145752171395667743720000005329006969837572023_);">
							<rect x="49.419" y="153.909" style="fill:#4B6DC4;" width="74.201" height="3.016"/>
						</g>
						<g style="clip-path:url(#SVGID_00000145752171395667743720000005329006969837572023_);">
							<rect x="49.419" y="143.798" style="fill:#4B6DC4;" width="74.201" height="3.016"/>
						</g>
						<g style="clip-path:url(#SVGID_00000145752171395667743720000005329006969837572023_);">
							<rect x="40.238" y="133.688" style="fill:#4B6DC4;" width="90.505" height="3.016"/>
						</g>
						<g style="clip-path:url(#SVGID_00000145752171395667743720000005329006969837572023_);">
							<rect x="41.782" y="123.578" style="fill:#4B6DC4;" width="90.974" height="3.016"/>
						</g>
						<g style="clip-path:url(#SVGID_00000145752171395667743720000005329006969837572023_);">
							<rect x="41.782" y="113.467" style="fill:#4B6DC4;" width="90.974" height="3.016"/>
						</g>
					</g>
					<g>
						<path style="fill:#2D3962;" d="M57.7,155.116c-0.012,0-0.024-0.001-0.037-0.001c-0.222-0.02-0.385-0.216-0.365-0.438
							l1.836-20.193c0.02-0.222,0.208-0.38,0.439-0.365c0.222,0.021,0.385,0.216,0.365,0.439l-1.836,20.193
							C58.083,154.959,57.906,155.116,57.7,155.116z"/>
					</g>
					<g>
						<path style="fill:#2D3962;" d="M112.773,154.198c-0.207,0-0.383-0.159-0.401-0.369l-1.835-21.341
							c-0.019-0.222,0.146-0.417,0.367-0.437c0.216-0.019,0.417,0.146,0.436,0.367l1.835,21.341
							c0.019,0.222-0.146,0.417-0.367,0.436C112.796,154.198,112.784,154.198,112.773,154.198z"/>
					</g>
				</g>
			</g>
			<g>
				<g>
					<path style="fill:#E2E2E2;" d="M137.475,327.249H32.495c-1.87,0-3.387-1.516-3.387-3.387V222.345
						c0-1.87,1.516-3.386,3.387-3.386h104.981c1.87,0,3.387,1.516,3.387,3.386v101.518
						C140.862,325.733,139.346,327.249,137.475,327.249z"/>
				</g>
				<g>
					<g>
						<path style="fill:#C993C9;" d="M43.162,263.303c0,0,4.638-24.735,32.863-30.702c0,0-0.196,8.949,8.982,9.408
							c10.087,0.504,10.785-8.72,10.785-8.72s22.931,0.726,31.406,29.856l-15.182,0.687l3.708,51.375l-60.112-0.153l2.91-48.574
							L43.162,263.303z"/>
					</g>
					<g>
						<defs>
							<path id="SVGID_00000150066014064644504210000013839540533929361296_" d="M43.162,263.303c0,0,4.638-24.735,32.863-30.702
								c0,0-0.196,8.949,8.982,9.408c10.087,0.504,10.785-8.72,10.785-8.72s22.931,0.726,31.406,29.856l-15.182,0.687l3.708,51.375
								l-60.112-0.153l2.91-48.574L43.162,263.303z"/>
						</defs>
						<clipPath id="SVGID_00000168810551591412444410000000027541151369734555_">
							<use xlink:href="#SVGID_00000150066014064644504210000013839540533929361296_"  style="overflow:visible;"/>
						</clipPath>
						<g style="clip-path:url(#SVGID_00000168810551591412444410000000027541151369734555_);">
							<rect x="49.419" y="307.563" style="fill:#A863A4;" width="74.201" height="3.016"/>
						</g>
						<g style="clip-path:url(#SVGID_00000168810551591412444410000000027541151369734555_);">
							<rect x="49.419" y="297.453" style="fill:#A863A4;" width="74.201" height="3.016"/>
						</g>
						<g style="clip-path:url(#SVGID_00000168810551591412444410000000027541151369734555_);">
							<rect x="49.419" y="287.343" style="fill:#A863A4;" width="74.201" height="3.016"/>
						</g>
						<g style="clip-path:url(#SVGID_00000168810551591412444410000000027541151369734555_);">
							<rect x="49.419" y="277.232" style="fill:#A863A4;" width="74.201" height="3.016"/>
						</g>
						<g style="clip-path:url(#SVGID_00000168810551591412444410000000027541151369734555_);">
							<rect x="49.419" y="267.122" style="fill:#A863A4;" width="74.201" height="3.016"/>
						</g>
						<g style="clip-path:url(#SVGID_00000168810551591412444410000000027541151369734555_);">
							<rect x="40.238" y="257.012" style="fill:#A863A4;" width="90.505" height="3.016"/>
						</g>
						<g style="clip-path:url(#SVGID_00000168810551591412444410000000027541151369734555_);">
							<rect x="41.782" y="246.901" style="fill:#A863A4;" width="90.974" height="3.016"/>
						</g>
						<g style="clip-path:url(#SVGID_00000168810551591412444410000000027541151369734555_);">
							<rect x="41.782" y="236.791" style="fill:#A863A4;" width="90.974" height="3.016"/>
						</g>
					</g>
					<g>
						<path style="fill:#2D3962;" d="M57.7,278.44c-0.012,0-0.024,0-0.037-0.002c-0.222-0.02-0.385-0.216-0.365-0.438l1.836-20.193
							c0.02-0.223,0.208-0.396,0.439-0.365c0.222,0.02,0.385,0.216,0.365,0.438l-1.836,20.193
							C58.083,278.283,57.906,278.44,57.7,278.44z"/>
					</g>
					<g>
						<path style="fill:#2D3962;" d="M112.773,277.522c-0.207,0-0.383-0.158-0.401-0.369l-1.835-21.341
							c-0.019-0.222,0.146-0.417,0.367-0.436c0.216-0.022,0.417,0.145,0.436,0.368l1.835,21.341
							c0.019,0.222-0.146,0.417-0.367,0.437C112.796,277.522,112.784,277.522,112.773,277.522z"/>
					</g>
				</g>
			</g>
			<g>
				<g>
					<path style="fill:#E2E2E2;" d="M478.832,281.173H375.991c-1.832,0-3.318-1.485-3.318-3.318V99.574
						c0-1.832,1.485-3.317,3.318-3.317h102.841c1.832,0,3.318,1.485,3.318,3.317v178.282
						C482.15,279.688,480.664,281.173,478.832,281.173z"/>
				</g>
				<g>
					<g>
						<path style="fill:#7FC2EF;" d="M400.163,120.849h54.634c0,0,4.114,49.613,5.961,76.647c1.006,14.722,1.007,14.73,2.389,65.945
							h-22.286l-6.884-64.607l-6.691-42.337l-3.621,41.999l-2.966,64.17h-23.422c0,0-0.811-50.421-0.533-64.241
							C397.433,164.291,400.163,120.849,400.163,120.849z"/>
					</g>
					<g>
						<path style="fill:#2D3962;" d="M455.464,138.186c-0.065,0-0.131-0.015-0.192-0.046c-6.404-3.202-8.215-11.459-8.289-11.809
							c-0.049-0.232,0.1-0.461,0.333-0.51c0.229-0.049,0.461,0.1,0.511,0.332c0.017,0.082,1.803,8.203,7.83,11.217
							c0.213,0.106,0.3,0.365,0.193,0.578C455.773,138.098,455.621,138.186,455.464,138.186z"/>
					</g>
					<g>
						<path style="fill:#2D3962;" d="M399.887,138.186c-0.157,0-0.31-0.087-0.386-0.238c-0.106-0.213-0.02-0.472,0.193-0.578
							c6.019-3.01,7.535-11.058,7.55-11.139c0.042-0.234,0.261-0.393,0.5-0.348c0.234,0.042,0.39,0.266,0.348,0.5
							c-0.063,0.348-1.602,8.551-8.013,11.757C400.018,138.171,399.953,138.186,399.887,138.186z"/>
					</g>
					<g>
						<path style="fill:#2D3962;" d="M454.992,126.553h-55.064c-0.238,0-0.431-0.193-0.431-0.431s0.192-0.431,0.431-0.431h55.064
							c0.238,0,0.431,0.193,0.431,0.431S455.23,126.553,454.992,126.553z"/>
					</g>
					<g>
						<path style="fill:#2D3962;" d="M427.666,125.124c-0.845,0-1.531-0.687-1.531-1.531c0-0.844,0.686-1.531,1.531-1.531
							c0.844,0,1.53,0.687,1.53,1.531C429.196,124.438,428.509,125.124,427.666,125.124z M427.666,122.924
							c-0.369,0-0.67,0.3-0.67,0.669c0,0.369,0.301,0.669,0.67,0.669c0.369,0,0.669-0.3,0.669-0.669
							C428.335,123.224,428.035,122.924,427.666,122.924z"/>
					</g>
					<g>
						<path style="fill:#2D3962;" d="M427.087,157.525c-0.238,0-0.431-0.193-0.431-0.431v-30.956c0-0.238,0.192-0.431,0.431-0.431
							c0.238,0,0.431,0.193,0.431,0.431v30.956C427.517,157.332,427.325,157.525,427.087,157.525z"/>
					</g>
					<g>
						<path style="fill:#2D3962;" d="M427.087,154.107c-0.194,0-0.371-0.133-0.419-0.33c-0.056-0.231,0.087-0.464,0.317-0.52
							c1.561-0.377,5.657-1.796,5.881-3.801c0.299-2.691,0.201-23.047,0.2-23.253c-0.001-0.239,0.223-0.432,0.431-0.433
							c0.237,0,0.43,0.191,0.431,0.429c0.004,0.84,0.1,20.611-0.206,23.352c-0.335,3.013-6.28,4.482-6.533,4.543
							C427.154,154.103,427.12,154.107,427.087,154.107z"/>
					</g>
					<g>
						<path style="fill:#2D3962;" d="M420.722,259.44h-23.388c-0.238,0-0.431-0.192-0.431-0.431c0-0.238,0.192-0.431,0.431-0.431
							h23.388c0.238,0,0.431,0.192,0.431,0.431C421.153,259.247,420.961,259.44,420.722,259.44z"/>
					</g>
					<g>
						<path style="fill:#2D3962;" d="M462.704,259.44h-21.864c-0.238,0-0.431-0.192-0.431-0.431c0-0.238,0.192-0.431,0.431-0.431
							h21.864c0.238,0,0.431,0.192,0.431,0.431C463.134,259.247,462.942,259.44,462.704,259.44z"/>
					</g>
				</g>
			</g>
		</g>
	</g>
</g>
</svg>
