<svg xmlns="http://www.w3.org/2000/svg" viewBox="0 0 24 24" fill="none"><path d="M20.5901 1.5V7.23H4.36009C3.6295 7.18682 2.94302 6.86617 2.44102 6.33362C1.93901 5.80107 1.65942 5.09686 1.65942 4.365C1.65942 3.63314 1.93901 2.92893 2.44102 2.39638C2.94302 1.86383 3.6295 1.54318 4.36009 1.5H20.5901Z" stroke="#191919" stroke-width="1.5" stroke-miterlimit="10" stroke-linecap="square"/><path d="M18.68 13H22.5V16.82H18.68C18.1735 16.82 17.6876 16.6188 17.3294 16.2606C16.9713 15.9024 16.77 15.4166 16.77 14.91C16.77 14.4034 16.9713 13.9176 17.3294 13.5594C17.6876 13.2012 18.1735 13 18.68 13Z" stroke="#191919" stroke-width="1.5" stroke-miterlimit="10" stroke-linecap="square"/><path d="M22.5 7.22937V22.4994H3.41002C2.90426 22.4967 2.41997 22.2947 2.06235 21.937C1.70472 21.5794 1.50264 21.0951 1.50002 20.5894V4.35938C1.4987 4.7358 1.57171 5.10877 1.71485 5.45692C1.85798 5.80507 2.06844 6.12153 2.33415 6.38817C2.59985 6.6548 2.91558 6.86636 3.26323 7.01072C3.61087 7.15507 3.98359 7.22938 4.36002 7.22937H22.5Z" stroke="#191919" stroke-width="1.5" stroke-miterlimit="10" stroke-linecap="square"/></svg>